0
SECTION
2
ENTITIES
0
POLYLINE
8
EdgeCuts
66
1
70
1
0
VERTEX
8
EdgeCuts
10
192.2201
20
-25.9817
0
VERTEX
8
EdgeCuts
10
193.0933
20
-26.8549
0
VERTEX
8
EdgeCuts
10
193.5500
20
-27.9576
0
VERTEX
8
EdgeCuts
10
193.5500
20
-104.9797
0
VERTEX
8
EdgeCuts
10
193.5050
20
-105.3448
0
VERTEX
8
EdgeCuts
10
188.5990
20
-124.9689
0
VERTEX
8
EdgeCuts
10
188.1972
20
-125.6787
0
VERTEX
8
EdgeCuts
10
187.5351
20
-126.3408
0
VERTEX
8
EdgeCuts
10
186.6635
20
-126.7763
0
VERTEX
8
EdgeCuts
10
49.9363
20
-146.2485
0
VERTEX
8
EdgeCuts
10
49.7245
20
-146.2635
0
VERTEX
8
EdgeCuts
10
48.9802
20
-146.2635
0
VERTEX
8
EdgeCuts
10
47.8776
20
-145.8067
0
VERTEX
8
EdgeCuts
10
26.7988
20
-124.7280
0
VERTEX
8
EdgeCuts
10
26.3421
20
-123.6253
0
VERTEX
8
EdgeCuts
10
26.3421
20
-122.9081
0
VERTEX
8
EdgeCuts
10
26.3505
20
-122.7501
0
VERTEX
8
EdgeCuts
10
30.3071
20
-85.3604
0
VERTEX
8
EdgeCuts
10
35.1048
20
-46.9791
0
VERTEX
8
EdgeCuts
10
35.2526
20
-46.4908
0
VERTEX
8
EdgeCuts
10
44.9999
20
-26.9963
0
VERTEX
8
EdgeCuts
10
45.2827
20
-26.6040
0
VERTEX
8
EdgeCuts
10
45.9049
20
-25.9817
0
VERTEX
8
EdgeCuts
10
47.0076
20
-25.5250
0
VERTEX
8
EdgeCuts
10
191.1174
20
-25.5250
0
SEQEND
0
ENDSEC
0
EOF
