0
SECTION
2
ENTITIES
0
POLYLINE
8
EdgeCuts
66
1
70
1
0
VERTEX
8
EdgeCuts
10
163.6451
20
-25.9817
0
VERTEX
8
EdgeCuts
10
164.2673
20
-26.6040
0
VERTEX
8
EdgeCuts
10
164.5501
20
-26.9963
0
VERTEX
8
EdgeCuts
10
174.3395
20
-46.5751
0
VERTEX
8
EdgeCuts
10
174.5000
20
-47.2550
0
VERTEX
8
EdgeCuts
10
174.5000
20
-66.7175
0
VERTEX
8
EdgeCuts
10
173.6741
20
-123.6575
0
VERTEX
8
EdgeCuts
10
173.2182
20
-124.7359
0
VERTEX
8
EdgeCuts
10
152.1474
20
-145.8067
0
VERTEX
8
EdgeCuts
10
151.0448
20
-146.2635
0
VERTEX
8
EdgeCuts
10
150.2835
20
-146.2635
0
VERTEX
8
EdgeCuts
10
150.0380
20
-146.2433
0
VERTEX
8
EdgeCuts
10
32.3633
20
-126.7580
0
VERTEX
8
EdgeCuts
10
31.5276
20
-126.3285
0
VERTEX
8
EdgeCuts
10
30.8124
20
-125.6132
0
VERTEX
8
EdgeCuts
10
30.3727
20
-124.7143
0
VERTEX
8
EdgeCuts
10
25.5366
20
-86.0252
0
VERTEX
8
EdgeCuts
10
25.5250
20
-85.8390
0
VERTEX
8
EdgeCuts
10
25.5250
20
-27.9576
0
VERTEX
8
EdgeCuts
10
25.9817
20
-26.8549
0
VERTEX
8
EdgeCuts
10
26.8549
20
-25.9817
0
VERTEX
8
EdgeCuts
10
27.9576
20
-25.5250
0
VERTEX
8
EdgeCuts
10
162.5424
20
-25.5250
0
SEQEND
0
ENDSEC
0
EOF
