0
SECTION
2
ENTITIES
0
POLYLINE
8
PlateOutline
66
1
70
1
0
VERTEX
8
PlateOutline
10
163.6451
20
-25.9817
0
VERTEX
8
PlateOutline
10
164.2673
20
-26.6040
0
VERTEX
8
PlateOutline
10
164.5501
20
-26.9963
0
VERTEX
8
PlateOutline
10
174.3395
20
-46.5751
0
VERTEX
8
PlateOutline
10
174.5000
20
-47.2550
0
VERTEX
8
PlateOutline
10
174.5000
20
-66.7175
0
VERTEX
8
PlateOutline
10
173.6741
20
-123.6575
0
VERTEX
8
PlateOutline
10
173.2182
20
-124.7359
0
VERTEX
8
PlateOutline
10
152.1474
20
-145.8067
0
VERTEX
8
PlateOutline
10
151.0448
20
-146.2635
0
VERTEX
8
PlateOutline
10
150.2835
20
-146.2635
0
VERTEX
8
PlateOutline
10
150.0380
20
-146.2433
0
VERTEX
8
PlateOutline
10
32.3633
20
-126.7580
0
VERTEX
8
PlateOutline
10
31.5276
20
-126.3285
0
VERTEX
8
PlateOutline
10
30.8124
20
-125.6132
0
VERTEX
8
PlateOutline
10
30.3727
20
-124.7143
0
VERTEX
8
PlateOutline
10
25.5366
20
-86.0252
0
VERTEX
8
PlateOutline
10
25.5250
20
-85.8390
0
VERTEX
8
PlateOutline
10
25.5250
20
-27.9576
0
VERTEX
8
PlateOutline
10
25.9817
20
-26.8549
0
VERTEX
8
PlateOutline
10
26.8549
20
-25.9817
0
VERTEX
8
PlateOutline
10
27.9576
20
-25.5250
0
VERTEX
8
PlateOutline
10
162.5424
20
-25.5250
0
SEQEND
0
POLYLINE
8
SwitchCutouts
66
1
70
1
0
VERTEX
8
SwitchCutouts
10
44.6000
20
-45.1000
0
VERTEX
8
SwitchCutouts
10
31.6028
20
-45.0989
0
VERTEX
8
SwitchCutouts
10
31.4734
20
-45.0818
0
VERTEX
8
SwitchCutouts
10
31.3528
20
-45.0319
0
VERTEX
8
SwitchCutouts
10
31.2492
20
-44.9524
0
VERTEX
8
SwitchCutouts
10
31.1698
20
-44.8489
0
VERTEX
8
SwitchCutouts
10
31.1198
20
-44.7283
0
VERTEX
8
SwitchCutouts
10
31.1028
20
-44.5989
0
VERTEX
8
SwitchCutouts
10
31.1000
20
-31.6000
0
VERTEX
8
SwitchCutouts
10
31.1170
20
-31.4706
0
VERTEX
8
SwitchCutouts
10
31.1670
20
-31.3500
0
VERTEX
8
SwitchCutouts
10
31.2464
20
-31.2464
0
VERTEX
8
SwitchCutouts
10
31.3500
20
-31.1670
0
VERTEX
8
SwitchCutouts
10
31.4706
20
-31.1170
0
VERTEX
8
SwitchCutouts
10
31.6000
20
-31.1000
0
VERTEX
8
SwitchCutouts
10
44.6000
20
-31.1000
0
VERTEX
8
SwitchCutouts
10
44.7294
20
-31.1170
0
VERTEX
8
SwitchCutouts
10
44.8500
20
-31.1670
0
VERTEX
8
SwitchCutouts
10
44.9536
20
-31.2464
0
VERTEX
8
SwitchCutouts
10
45.0330
20
-31.3500
0
VERTEX
8
SwitchCutouts
10
45.0830
20
-31.4706
0
VERTEX
8
SwitchCutouts
10
45.1000
20
-31.6000
0
VERTEX
8
SwitchCutouts
10
45.1000
20
-44.6000
0
VERTEX
8
SwitchCutouts
10
45.0830
20
-44.7294
0
VERTEX
8
SwitchCutouts
10
45.0330
20
-44.8500
0
VERTEX
8
SwitchCutouts
10
44.9536
20
-44.9536
0
VERTEX
8
SwitchCutouts
10
44.8500
20
-45.0330
0
VERTEX
8
SwitchCutouts
10
44.7294
20
-45.0830
0
VERTEX
8
SwitchCutouts
10
44.6000
20
-45.1000
0
SEQEND
0
POLYLINE
8
SwitchCutouts
66
1
70
1
0
VERTEX
8
SwitchCutouts
10
92.2250
20
-64.1500
0
VERTEX
8
SwitchCutouts
10
79.2278
20
-64.1489
0
VERTEX
8
SwitchCutouts
10
79.0984
20
-64.1318
0
VERTEX
8
SwitchCutouts
10
78.9778
20
-64.0819
0
VERTEX
8
SwitchCutouts
10
78.8742
20
-64.0024
0
VERTEX
8
SwitchCutouts
10
78.7948
20
-63.8989
0
VERTEX
8
SwitchCutouts
10
78.7448
20
-63.7783
0
VERTEX
8
SwitchCutouts
10
78.7278
20
-63.6489
0
VERTEX
8
SwitchCutouts
10
78.7250
20
-50.6500
0
VERTEX
8
SwitchCutouts
10
78.7420
20
-50.5206
0
VERTEX
8
SwitchCutouts
10
78.7920
20
-50.4000
0
VERTEX
8
SwitchCutouts
10
78.8714
20
-50.2964
0
VERTEX
8
SwitchCutouts
10
78.9750
20
-50.2170
0
VERTEX
8
SwitchCutouts
10
79.0956
20
-50.1670
0
VERTEX
8
SwitchCutouts
10
79.2250
20
-50.1500
0
VERTEX
8
SwitchCutouts
10
92.2250
20
-50.1500
0
VERTEX
8
SwitchCutouts
10
92.3544
20
-50.1670
0
VERTEX
8
SwitchCutouts
10
92.4750
20
-50.2170
0
VERTEX
8
SwitchCutouts
10
92.5786
20
-50.2964
0
VERTEX
8
SwitchCutouts
10
92.6580
20
-50.4000
0
VERTEX
8
SwitchCutouts
10
92.7080
20
-50.5206
0
VERTEX
8
SwitchCutouts
10
92.7250
20
-50.6500
0
VERTEX
8
SwitchCutouts
10
92.7250
20
-63.6500
0
VERTEX
8
SwitchCutouts
10
92.7080
20
-63.7794
0
VERTEX
8
SwitchCutouts
10
92.6580
20
-63.9000
0
VERTEX
8
SwitchCutouts
10
92.5786
20
-64.0036
0
VERTEX
8
SwitchCutouts
10
92.4750
20
-64.0830
0
VERTEX
8
SwitchCutouts
10
92.3544
20
-64.1330
0
VERTEX
8
SwitchCutouts
10
92.2250
20
-64.1500
0
SEQEND
0
POLYLINE
8
SwitchCutouts
66
1
70
1
0
VERTEX
8
SwitchCutouts
10
111.2750
20
-64.1500
0
VERTEX
8
SwitchCutouts
10
98.2778
20
-64.1489
0
VERTEX
8
SwitchCutouts
10
98.1484
20
-64.1318
0
VERTEX
8
SwitchCutouts
10
98.0278
20
-64.0819
0
VERTEX
8
SwitchCutouts
10
97.9242
20
-64.0024
0
VERTEX
8
SwitchCutouts
10
97.8448
20
-63.8989
0
VERTEX
8
SwitchCutouts
10
97.7948
20
-63.7783
0
VERTEX
8
SwitchCutouts
10
97.7778
20
-63.6489
0
VERTEX
8
SwitchCutouts
10
97.7750
20
-50.6500
0
VERTEX
8
SwitchCutouts
10
97.7920
20
-50.5206
0
VERTEX
8
SwitchCutouts
10
97.8420
20
-50.4000
0
VERTEX
8
SwitchCutouts
10
97.9214
20
-50.2964
0
VERTEX
8
SwitchCutouts
10
98.0250
20
-50.2170
0
VERTEX
8
SwitchCutouts
10
98.1456
20
-50.1670
0
VERTEX
8
SwitchCutouts
10
98.2750
20
-50.1500
0
VERTEX
8
SwitchCutouts
10
111.2750
20
-50.1500
0
VERTEX
8
SwitchCutouts
10
111.4044
20
-50.1670
0
VERTEX
8
SwitchCutouts
10
111.5250
20
-50.2170
0
VERTEX
8
SwitchCutouts
10
111.6286
20
-50.2964
0
VERTEX
8
SwitchCutouts
10
111.7080
20
-50.4000
0
VERTEX
8
SwitchCutouts
10
111.7580
20
-50.5206
0
VERTEX
8
SwitchCutouts
10
111.7750
20
-50.6500
0
VERTEX
8
SwitchCutouts
10
111.7750
20
-63.6500
0
VERTEX
8
SwitchCutouts
10
111.7580
20
-63.7794
0
VERTEX
8
SwitchCutouts
10
111.7080
20
-63.9000
0
VERTEX
8
SwitchCutouts
10
111.6286
20
-64.0036
0
VERTEX
8
SwitchCutouts
10
111.5250
20
-64.0830
0
VERTEX
8
SwitchCutouts
10
111.4044
20
-64.1330
0
VERTEX
8
SwitchCutouts
10
111.2750
20
-64.1500
0
SEQEND
0
POLYLINE
8
SwitchCutouts
66
1
70
1
0
VERTEX
8
SwitchCutouts
10
130.3250
20
-64.1500
0
VERTEX
8
SwitchCutouts
10
117.3278
20
-64.1489
0
VERTEX
8
SwitchCutouts
10
117.1984
20
-64.1318
0
VERTEX
8
SwitchCutouts
10
117.0778
20
-64.0819
0
VERTEX
8
SwitchCutouts
10
116.9742
20
-64.0024
0
VERTEX
8
SwitchCutouts
10
116.8948
20
-63.8989
0
VERTEX
8
SwitchCutouts
10
116.8448
20
-63.7783
0
VERTEX
8
SwitchCutouts
10
116.8278
20
-63.6489
0
VERTEX
8
SwitchCutouts
10
116.8250
20
-50.6500
0
VERTEX
8
SwitchCutouts
10
116.8420
20
-50.5206
0
VERTEX
8
SwitchCutouts
10
116.8920
20
-50.4000
0
VERTEX
8
SwitchCutouts
10
116.9714
20
-50.2964
0
VERTEX
8
SwitchCutouts
10
117.0750
20
-50.2170
0
VERTEX
8
SwitchCutouts
10
117.1956
20
-50.1670
0
VERTEX
8
SwitchCutouts
10
117.3250
20
-50.1500
0
VERTEX
8
SwitchCutouts
10
130.3250
20
-50.1500
0
VERTEX
8
SwitchCutouts
10
130.4544
20
-50.1670
0
VERTEX
8
SwitchCutouts
10
130.5750
20
-50.2170
0
VERTEX
8
SwitchCutouts
10
130.6786
20
-50.2964
0
VERTEX
8
SwitchCutouts
10
130.7580
20
-50.4000
0
VERTEX
8
SwitchCutouts
10
130.8080
20
-50.5206
0
VERTEX
8
SwitchCutouts
10
130.8250
20
-50.6500
0
VERTEX
8
SwitchCutouts
10
130.8250
20
-63.6500
0
VERTEX
8
SwitchCutouts
10
130.8080
20
-63.7794
0
VERTEX
8
SwitchCutouts
10
130.7580
20
-63.9000
0
VERTEX
8
SwitchCutouts
10
130.6786
20
-64.0036
0
VERTEX
8
SwitchCutouts
10
130.5750
20
-64.0830
0
VERTEX
8
SwitchCutouts
10
130.4544
20
-64.1330
0
VERTEX
8
SwitchCutouts
10
130.3250
20
-64.1500
0
SEQEND
0
POLYLINE
8
SwitchCutouts
66
1
70
1
0
VERTEX
8
SwitchCutouts
10
149.3750
20
-64.1500
0
VERTEX
8
SwitchCutouts
10
136.3778
20
-64.1489
0
VERTEX
8
SwitchCutouts
10
136.2484
20
-64.1318
0
VERTEX
8
SwitchCutouts
10
136.1278
20
-64.0819
0
VERTEX
8
SwitchCutouts
10
136.0242
20
-64.0024
0
VERTEX
8
SwitchCutouts
10
135.9448
20
-63.8989
0
VERTEX
8
SwitchCutouts
10
135.8948
20
-63.7783
0
VERTEX
8
SwitchCutouts
10
135.8778
20
-63.6489
0
VERTEX
8
SwitchCutouts
10
135.8750
20
-50.6500
0
VERTEX
8
SwitchCutouts
10
135.8920
20
-50.5206
0
VERTEX
8
SwitchCutouts
10
135.9420
20
-50.4000
0
VERTEX
8
SwitchCutouts
10
136.0214
20
-50.2964
0
VERTEX
8
SwitchCutouts
10
136.1250
20
-50.2170
0
VERTEX
8
SwitchCutouts
10
136.2456
20
-50.1670
0
VERTEX
8
SwitchCutouts
10
136.3750
20
-50.1500
0
VERTEX
8
SwitchCutouts
10
149.3750
20
-50.1500
0
VERTEX
8
SwitchCutouts
10
149.5044
20
-50.1670
0
VERTEX
8
SwitchCutouts
10
149.6250
20
-50.2170
0
VERTEX
8
SwitchCutouts
10
149.7286
20
-50.2964
0
VERTEX
8
SwitchCutouts
10
149.8080
20
-50.4000
0
VERTEX
8
SwitchCutouts
10
149.8580
20
-50.5206
0
VERTEX
8
SwitchCutouts
10
149.8750
20
-50.6500
0
VERTEX
8
SwitchCutouts
10
149.8750
20
-63.6500
0
VERTEX
8
SwitchCutouts
10
149.8580
20
-63.7794
0
VERTEX
8
SwitchCutouts
10
149.8080
20
-63.9000
0
VERTEX
8
SwitchCutouts
10
149.7286
20
-64.0036
0
VERTEX
8
SwitchCutouts
10
149.6250
20
-64.0830
0
VERTEX
8
SwitchCutouts
10
149.5044
20
-64.1330
0
VERTEX
8
SwitchCutouts
10
149.3750
20
-64.1500
0
SEQEND
0
POLYLINE
8
SwitchCutouts
66
1
70
1
0
VERTEX
8
SwitchCutouts
10
168.4250
20
-64.1500
0
VERTEX
8
SwitchCutouts
10
155.4278
20
-64.1489
0
VERTEX
8
SwitchCutouts
10
155.2984
20
-64.1318
0
VERTEX
8
SwitchCutouts
10
155.1778
20
-64.0819
0
VERTEX
8
SwitchCutouts
10
155.0742
20
-64.0024
0
VERTEX
8
SwitchCutouts
10
154.9948
20
-63.8989
0
VERTEX
8
SwitchCutouts
10
154.9448
20
-63.7783
0
VERTEX
8
SwitchCutouts
10
154.9278
20
-63.6489
0
VERTEX
8
SwitchCutouts
10
154.9250
20
-50.6500
0
VERTEX
8
SwitchCutouts
10
154.9420
20
-50.5206
0
VERTEX
8
SwitchCutouts
10
154.9920
20
-50.4000
0
VERTEX
8
SwitchCutouts
10
155.0714
20
-50.2964
0
VERTEX
8
SwitchCutouts
10
155.1750
20
-50.2170
0
VERTEX
8
SwitchCutouts
10
155.2956
20
-50.1670
0
VERTEX
8
SwitchCutouts
10
155.4250
20
-50.1500
0
VERTEX
8
SwitchCutouts
10
168.4250
20
-50.1500
0
VERTEX
8
SwitchCutouts
10
168.5544
20
-50.1670
0
VERTEX
8
SwitchCutouts
10
168.6750
20
-50.2170
0
VERTEX
8
SwitchCutouts
10
168.7786
20
-50.2964
0
VERTEX
8
SwitchCutouts
10
168.8580
20
-50.4000
0
VERTEX
8
SwitchCutouts
10
168.9080
20
-50.5206
0
VERTEX
8
SwitchCutouts
10
168.9250
20
-50.6500
0
VERTEX
8
SwitchCutouts
10
168.9250
20
-63.6500
0
VERTEX
8
SwitchCutouts
10
168.9080
20
-63.7794
0
VERTEX
8
SwitchCutouts
10
168.8580
20
-63.9000
0
VERTEX
8
SwitchCutouts
10
168.7786
20
-64.0036
0
VERTEX
8
SwitchCutouts
10
168.6750
20
-64.0830
0
VERTEX
8
SwitchCutouts
10
168.5544
20
-64.1330
0
VERTEX
8
SwitchCutouts
10
168.4250
20
-64.1500
0
SEQEND
0
POLYLINE
8
SwitchCutouts
66
1
70
1
0
VERTEX
8
SwitchCutouts
10
51.7437
20
-83.2000
0
VERTEX
8
SwitchCutouts
10
38.7465
20
-83.1989
0
VERTEX
8
SwitchCutouts
10
38.6171
20
-83.1818
0
VERTEX
8
SwitchCutouts
10
38.4965
20
-83.1319
0
VERTEX
8
SwitchCutouts
10
38.3930
20
-83.0524
0
VERTEX
8
SwitchCutouts
10
38.3135
20
-82.9489
0
VERTEX
8
SwitchCutouts
10
38.2636
20
-82.8283
0
VERTEX
8
SwitchCutouts
10
38.2465
20
-82.6989
0
VERTEX
8
SwitchCutouts
10
38.2437
20
-69.7000
0
VERTEX
8
SwitchCutouts
10
38.2608
20
-69.5706
0
VERTEX
8
SwitchCutouts
10
38.3107
20
-69.4500
0
VERTEX
8
SwitchCutouts
10
38.3902
20
-69.3464
0
VERTEX
8
SwitchCutouts
10
38.4938
20
-69.2670
0
VERTEX
8
SwitchCutouts
10
38.6143
20
-69.2170
0
VERTEX
8
SwitchCutouts
10
38.7437
20
-69.2000
0
VERTEX
8
SwitchCutouts
10
51.7437
20
-69.2000
0
VERTEX
8
SwitchCutouts
10
51.8732
20
-69.2170
0
VERTEX
8
SwitchCutouts
10
51.9938
20
-69.2670
0
VERTEX
8
SwitchCutouts
10
52.0973
20
-69.3464
0
VERTEX
8
SwitchCutouts
10
52.1768
20
-69.4500
0
VERTEX
8
SwitchCutouts
10
52.2267
20
-69.5706
0
VERTEX
8
SwitchCutouts
10
52.2437
20
-69.7000
0
VERTEX
8
SwitchCutouts
10
52.2437
20
-82.7000
0
VERTEX
8
SwitchCutouts
10
52.2267
20
-82.8294
0
VERTEX
8
SwitchCutouts
10
52.1768
20
-82.9500
0
VERTEX
8
SwitchCutouts
10
52.0973
20
-83.0536
0
VERTEX
8
SwitchCutouts
10
51.9938
20
-83.1330
0
VERTEX
8
SwitchCutouts
10
51.8732
20
-83.1830
0
VERTEX
8
SwitchCutouts
10
51.7437
20
-83.2000
0
SEQEND
0
POLYLINE
8
SwitchCutouts
66
1
70
1
0
VERTEX
8
SwitchCutouts
10
77.9375
20
-83.2000
0
VERTEX
8
SwitchCutouts
10
64.9403
20
-83.1989
0
VERTEX
8
SwitchCutouts
10
64.8109
20
-83.1818
0
VERTEX
8
SwitchCutouts
10
64.6903
20
-83.1319
0
VERTEX
8
SwitchCutouts
10
64.5867
20
-83.0524
0
VERTEX
8
SwitchCutouts
10
64.5073
20
-82.9489
0
VERTEX
8
SwitchCutouts
10
64.4573
20
-82.8283
0
VERTEX
8
SwitchCutouts
10
64.4403
20
-82.6989
0
VERTEX
8
SwitchCutouts
10
64.4375
20
-69.7000
0
VERTEX
8
SwitchCutouts
10
64.4545
20
-69.5706
0
VERTEX
8
SwitchCutouts
10
64.5045
20
-69.4500
0
VERTEX
8
SwitchCutouts
10
64.5839
20
-69.3464
0
VERTEX
8
SwitchCutouts
10
64.6875
20
-69.2670
0
VERTEX
8
SwitchCutouts
10
64.8081
20
-69.2170
0
VERTEX
8
SwitchCutouts
10
64.9375
20
-69.2000
0
VERTEX
8
SwitchCutouts
10
77.9375
20
-69.2000
0
VERTEX
8
SwitchCutouts
10
78.0669
20
-69.2170
0
VERTEX
8
SwitchCutouts
10
78.1875
20
-69.2670
0
VERTEX
8
SwitchCutouts
10
78.2911
20
-69.3464
0
VERTEX
8
SwitchCutouts
10
78.3705
20
-69.4500
0
VERTEX
8
SwitchCutouts
10
78.4205
20
-69.5706
0
VERTEX
8
SwitchCutouts
10
78.4375
20
-69.7000
0
VERTEX
8
SwitchCutouts
10
78.4375
20
-82.7000
0
VERTEX
8
SwitchCutouts
10
78.4205
20
-82.8294
0
VERTEX
8
SwitchCutouts
10
78.3705
20
-82.9500
0
VERTEX
8
SwitchCutouts
10
78.2911
20
-83.0536
0
VERTEX
8
SwitchCutouts
10
78.1875
20
-83.1330
0
VERTEX
8
SwitchCutouts
10
78.0669
20
-83.1830
0
VERTEX
8
SwitchCutouts
10
77.9375
20
-83.2000
0
SEQEND
0
POLYLINE
8
SwitchCutouts
66
1
70
1
0
VERTEX
8
SwitchCutouts
10
96.9875
20
-83.2000
0
VERTEX
8
SwitchCutouts
10
83.9903
20
-83.1989
0
VERTEX
8
SwitchCutouts
10
83.8609
20
-83.1818
0
VERTEX
8
SwitchCutouts
10
83.7403
20
-83.1319
0
VERTEX
8
SwitchCutouts
10
83.6367
20
-83.0524
0
VERTEX
8
SwitchCutouts
10
83.5573
20
-82.9489
0
VERTEX
8
SwitchCutouts
10
83.5073
20
-82.8283
0
VERTEX
8
SwitchCutouts
10
83.4903
20
-82.6989
0
VERTEX
8
SwitchCutouts
10
83.4875
20
-69.7000
0
VERTEX
8
SwitchCutouts
10
83.5045
20
-69.5706
0
VERTEX
8
SwitchCutouts
10
83.5545
20
-69.4500
0
VERTEX
8
SwitchCutouts
10
83.6339
20
-69.3464
0
VERTEX
8
SwitchCutouts
10
83.7375
20
-69.2670
0
VERTEX
8
SwitchCutouts
10
83.8581
20
-69.2170
0
VERTEX
8
SwitchCutouts
10
83.9875
20
-69.2000
0
VERTEX
8
SwitchCutouts
10
96.9875
20
-69.2000
0
VERTEX
8
SwitchCutouts
10
97.1169
20
-69.2170
0
VERTEX
8
SwitchCutouts
10
97.2375
20
-69.2670
0
VERTEX
8
SwitchCutouts
10
97.3411
20
-69.3464
0
VERTEX
8
SwitchCutouts
10
97.4205
20
-69.4500
0
VERTEX
8
SwitchCutouts
10
97.4705
20
-69.5706
0
VERTEX
8
SwitchCutouts
10
97.4875
20
-69.7000
0
VERTEX
8
SwitchCutouts
10
97.4875
20
-82.7000
0
VERTEX
8
SwitchCutouts
10
97.4705
20
-82.8294
0
VERTEX
8
SwitchCutouts
10
97.4205
20
-82.9500
0
VERTEX
8
SwitchCutouts
10
97.3411
20
-83.0536
0
VERTEX
8
SwitchCutouts
10
97.2375
20
-83.1330
0
VERTEX
8
SwitchCutouts
10
97.1169
20
-83.1830
0
VERTEX
8
SwitchCutouts
10
96.9875
20
-83.2000
0
SEQEND
0
POLYLINE
8
SwitchCutouts
66
1
70
1
0
VERTEX
8
SwitchCutouts
10
116.0375
20
-83.2000
0
VERTEX
8
SwitchCutouts
10
103.0403
20
-83.1989
0
VERTEX
8
SwitchCutouts
10
102.9109
20
-83.1818
0
VERTEX
8
SwitchCutouts
10
102.7903
20
-83.1319
0
VERTEX
8
SwitchCutouts
10
102.6867
20
-83.0524
0
VERTEX
8
SwitchCutouts
10
102.6073
20
-82.9489
0
VERTEX
8
SwitchCutouts
10
102.5573
20
-82.8283
0
VERTEX
8
SwitchCutouts
10
102.5403
20
-82.6989
0
VERTEX
8
SwitchCutouts
10
102.5375
20
-69.7000
0
VERTEX
8
SwitchCutouts
10
102.5545
20
-69.5706
0
VERTEX
8
SwitchCutouts
10
102.6045
20
-69.4500
0
VERTEX
8
SwitchCutouts
10
102.6839
20
-69.3464
0
VERTEX
8
SwitchCutouts
10
102.7875
20
-69.2670
0
VERTEX
8
SwitchCutouts
10
102.9081
20
-69.2170
0
VERTEX
8
SwitchCutouts
10
103.0375
20
-69.2000
0
VERTEX
8
SwitchCutouts
10
116.0375
20
-69.2000
0
VERTEX
8
SwitchCutouts
10
116.1669
20
-69.2170
0
VERTEX
8
SwitchCutouts
10
116.2875
20
-69.2670
0
VERTEX
8
SwitchCutouts
10
116.3911
20
-69.3464
0
VERTEX
8
SwitchCutouts
10
116.4705
20
-69.4500
0
VERTEX
8
SwitchCutouts
10
116.5205
20
-69.5706
0
VERTEX
8
SwitchCutouts
10
116.5375
20
-69.7000
0
VERTEX
8
SwitchCutouts
10
116.5375
20
-82.7000
0
VERTEX
8
SwitchCutouts
10
116.5205
20
-82.8294
0
VERTEX
8
SwitchCutouts
10
116.4705
20
-82.9500
0
VERTEX
8
SwitchCutouts
10
116.3911
20
-83.0536
0
VERTEX
8
SwitchCutouts
10
116.2875
20
-83.1330
0
VERTEX
8
SwitchCutouts
10
116.1669
20
-83.1830
0
VERTEX
8
SwitchCutouts
10
116.0375
20
-83.2000
0
SEQEND
0
POLYLINE
8
SwitchCutouts
66
1
70
1
0
VERTEX
8
SwitchCutouts
10
135.0875
20
-83.2000
0
VERTEX
8
SwitchCutouts
10
122.0903
20
-83.1989
0
VERTEX
8
SwitchCutouts
10
121.9609
20
-83.1818
0
VERTEX
8
SwitchCutouts
10
121.8403
20
-83.1319
0
VERTEX
8
SwitchCutouts
10
121.7367
20
-83.0524
0
VERTEX
8
SwitchCutouts
10
121.6573
20
-82.9489
0
VERTEX
8
SwitchCutouts
10
121.6073
20
-82.8283
0
VERTEX
8
SwitchCutouts
10
121.5903
20
-82.6989
0
VERTEX
8
SwitchCutouts
10
121.5875
20
-69.7000
0
VERTEX
8
SwitchCutouts
10
121.6045
20
-69.5706
0
VERTEX
8
SwitchCutouts
10
121.6545
20
-69.4500
0
VERTEX
8
SwitchCutouts
10
121.7339
20
-69.3464
0
VERTEX
8
SwitchCutouts
10
121.8375
20
-69.2670
0
VERTEX
8
SwitchCutouts
10
121.9581
20
-69.2170
0
VERTEX
8
SwitchCutouts
10
122.0875
20
-69.2000
0
VERTEX
8
SwitchCutouts
10
135.0875
20
-69.2000
0
VERTEX
8
SwitchCutouts
10
135.2169
20
-69.2170
0
VERTEX
8
SwitchCutouts
10
135.3375
20
-69.2670
0
VERTEX
8
SwitchCutouts
10
135.4411
20
-69.3464
0
VERTEX
8
SwitchCutouts
10
135.5205
20
-69.4500
0
VERTEX
8
SwitchCutouts
10
135.5705
20
-69.5706
0
VERTEX
8
SwitchCutouts
10
135.5875
20
-69.7000
0
VERTEX
8
SwitchCutouts
10
135.5875
20
-82.7000
0
VERTEX
8
SwitchCutouts
10
135.5705
20
-82.8294
0
VERTEX
8
SwitchCutouts
10
135.5205
20
-82.9500
0
VERTEX
8
SwitchCutouts
10
135.4411
20
-83.0536
0
VERTEX
8
SwitchCutouts
10
135.3375
20
-83.1330
0
VERTEX
8
SwitchCutouts
10
135.2169
20
-83.1830
0
VERTEX
8
SwitchCutouts
10
135.0875
20
-83.2000
0
SEQEND
0
POLYLINE
8
SwitchCutouts
66
1
70
1
0
VERTEX
8
SwitchCutouts
10
63.6500
20
-45.1000
0
VERTEX
8
SwitchCutouts
10
50.6528
20
-45.0989
0
VERTEX
8
SwitchCutouts
10
50.5234
20
-45.0818
0
VERTEX
8
SwitchCutouts
10
50.4028
20
-45.0319
0
VERTEX
8
SwitchCutouts
10
50.2992
20
-44.9524
0
VERTEX
8
SwitchCutouts
10
50.2198
20
-44.8489
0
VERTEX
8
SwitchCutouts
10
50.1698
20
-44.7283
0
VERTEX
8
SwitchCutouts
10
50.1528
20
-44.5989
0
VERTEX
8
SwitchCutouts
10
50.1500
20
-31.6000
0
VERTEX
8
SwitchCutouts
10
50.1670
20
-31.4706
0
VERTEX
8
SwitchCutouts
10
50.2170
20
-31.3500
0
VERTEX
8
SwitchCutouts
10
50.2964
20
-31.2464
0
VERTEX
8
SwitchCutouts
10
50.4000
20
-31.1670
0
VERTEX
8
SwitchCutouts
10
50.5206
20
-31.1170
0
VERTEX
8
SwitchCutouts
10
50.6500
20
-31.1000
0
VERTEX
8
SwitchCutouts
10
63.6500
20
-31.1000
0
VERTEX
8
SwitchCutouts
10
63.7794
20
-31.1170
0
VERTEX
8
SwitchCutouts
10
63.9000
20
-31.1670
0
VERTEX
8
SwitchCutouts
10
64.0036
20
-31.2464
0
VERTEX
8
SwitchCutouts
10
64.0830
20
-31.3500
0
VERTEX
8
SwitchCutouts
10
64.1330
20
-31.4706
0
VERTEX
8
SwitchCutouts
10
64.1500
20
-31.6000
0
VERTEX
8
SwitchCutouts
10
64.1500
20
-44.6000
0
VERTEX
8
SwitchCutouts
10
64.1330
20
-44.7294
0
VERTEX
8
SwitchCutouts
10
64.0830
20
-44.8500
0
VERTEX
8
SwitchCutouts
10
64.0036
20
-44.9536
0
VERTEX
8
SwitchCutouts
10
63.9000
20
-45.0330
0
VERTEX
8
SwitchCutouts
10
63.7794
20
-45.0830
0
VERTEX
8
SwitchCutouts
10
63.6500
20
-45.1000
0
SEQEND
0
POLYLINE
8
SwitchCutouts
66
1
70
1
0
VERTEX
8
SwitchCutouts
10
154.1375
20
-83.2000
0
VERTEX
8
SwitchCutouts
10
141.1403
20
-83.1989
0
VERTEX
8
SwitchCutouts
10
141.0109
20
-83.1818
0
VERTEX
8
SwitchCutouts
10
140.8903
20
-83.1319
0
VERTEX
8
SwitchCutouts
10
140.7867
20
-83.0524
0
VERTEX
8
SwitchCutouts
10
140.7073
20
-82.9489
0
VERTEX
8
SwitchCutouts
10
140.6573
20
-82.8283
0
VERTEX
8
SwitchCutouts
10
140.6403
20
-82.6989
0
VERTEX
8
SwitchCutouts
10
140.6375
20
-69.7000
0
VERTEX
8
SwitchCutouts
10
140.6545
20
-69.5706
0
VERTEX
8
SwitchCutouts
10
140.7045
20
-69.4500
0
VERTEX
8
SwitchCutouts
10
140.7839
20
-69.3464
0
VERTEX
8
SwitchCutouts
10
140.8875
20
-69.2670
0
VERTEX
8
SwitchCutouts
10
141.0081
20
-69.2170
0
VERTEX
8
SwitchCutouts
10
141.1375
20
-69.2000
0
VERTEX
8
SwitchCutouts
10
154.1375
20
-69.2000
0
VERTEX
8
SwitchCutouts
10
154.2669
20
-69.2170
0
VERTEX
8
SwitchCutouts
10
154.3875
20
-69.2670
0
VERTEX
8
SwitchCutouts
10
154.4911
20
-69.3464
0
VERTEX
8
SwitchCutouts
10
154.5705
20
-69.4500
0
VERTEX
8
SwitchCutouts
10
154.6205
20
-69.5706
0
VERTEX
8
SwitchCutouts
10
154.6375
20
-69.7000
0
VERTEX
8
SwitchCutouts
10
154.6375
20
-82.7000
0
VERTEX
8
SwitchCutouts
10
154.6205
20
-82.8294
0
VERTEX
8
SwitchCutouts
10
154.5705
20
-82.9500
0
VERTEX
8
SwitchCutouts
10
154.4911
20
-83.0536
0
VERTEX
8
SwitchCutouts
10
154.3875
20
-83.1330
0
VERTEX
8
SwitchCutouts
10
154.2669
20
-83.1830
0
VERTEX
8
SwitchCutouts
10
154.1375
20
-83.2000
0
SEQEND
0
POLYLINE
8
SwitchCutouts
66
1
70
1
0
VERTEX
8
SwitchCutouts
10
40.9750
20
-103.2500
0
VERTEX
8
SwitchCutouts
10
35.2250
20
-103.2500
0
VERTEX
8
SwitchCutouts
10
35.0956
20
-103.2330
0
VERTEX
8
SwitchCutouts
10
34.9750
20
-103.1830
0
VERTEX
8
SwitchCutouts
10
34.8714
20
-103.1036
0
VERTEX
8
SwitchCutouts
10
34.7920
20
-103.0000
0
VERTEX
8
SwitchCutouts
10
34.7420
20
-102.8794
0
VERTEX
8
SwitchCutouts
10
34.7250
20
-102.7500
0
VERTEX
8
SwitchCutouts
10
34.7250
20
-89.7500
0
VERTEX
8
SwitchCutouts
10
34.7420
20
-89.6206
0
VERTEX
8
SwitchCutouts
10
34.7920
20
-89.5000
0
VERTEX
8
SwitchCutouts
10
34.8714
20
-89.3964
0
VERTEX
8
SwitchCutouts
10
34.9750
20
-89.3170
0
VERTEX
8
SwitchCutouts
10
35.0956
20
-89.2670
0
VERTEX
8
SwitchCutouts
10
35.2250
20
-89.2500
0
VERTEX
8
SwitchCutouts
10
40.9750
20
-89.2500
0
VERTEX
8
SwitchCutouts
10
41.1044
20
-89.2670
0
VERTEX
8
SwitchCutouts
10
41.2250
20
-89.3170
0
VERTEX
8
SwitchCutouts
10
41.3286
20
-89.3964
0
VERTEX
8
SwitchCutouts
10
41.4080
20
-89.5000
0
VERTEX
8
SwitchCutouts
10
41.4580
20
-89.6206
0
VERTEX
8
SwitchCutouts
10
41.4750
20
-89.7500
0
VERTEX
8
SwitchCutouts
10
41.4750
20
-102.7500
0
VERTEX
8
SwitchCutouts
10
41.4580
20
-102.8794
0
VERTEX
8
SwitchCutouts
10
41.4080
20
-103.0000
0
VERTEX
8
SwitchCutouts
10
41.3286
20
-103.1036
0
VERTEX
8
SwitchCutouts
10
41.2250
20
-103.1830
0
VERTEX
8
SwitchCutouts
10
41.1044
20
-103.2330
0
VERTEX
8
SwitchCutouts
10
40.9750
20
-103.2500
0
SEQEND
0
POLYLINE
8
SwitchCutouts
66
1
70
1
0
VERTEX
8
SwitchCutouts
10
56.5063
20
-102.2500
0
VERTEX
8
SwitchCutouts
10
43.5090
20
-102.2489
0
VERTEX
8
SwitchCutouts
10
43.3796
20
-102.2318
0
VERTEX
8
SwitchCutouts
10
43.2590
20
-102.1819
0
VERTEX
8
SwitchCutouts
10
43.1555
20
-102.1024
0
VERTEX
8
SwitchCutouts
10
43.0760
20
-101.9989
0
VERTEX
8
SwitchCutouts
10
43.0261
20
-101.8783
0
VERTEX
8
SwitchCutouts
10
43.0090
20
-101.7489
0
VERTEX
8
SwitchCutouts
10
43.0063
20
-88.7500
0
VERTEX
8
SwitchCutouts
10
43.0233
20
-88.6206
0
VERTEX
8
SwitchCutouts
10
43.0732
20
-88.5000
0
VERTEX
8
SwitchCutouts
10
43.1527
20
-88.3964
0
VERTEX
8
SwitchCutouts
10
43.2563
20
-88.3170
0
VERTEX
8
SwitchCutouts
10
43.3768
20
-88.2670
0
VERTEX
8
SwitchCutouts
10
43.5063
20
-88.2500
0
VERTEX
8
SwitchCutouts
10
56.5063
20
-88.2500
0
VERTEX
8
SwitchCutouts
10
56.6357
20
-88.2670
0
VERTEX
8
SwitchCutouts
10
56.7563
20
-88.3170
0
VERTEX
8
SwitchCutouts
10
56.8598
20
-88.3964
0
VERTEX
8
SwitchCutouts
10
56.9393
20
-88.5000
0
VERTEX
8
SwitchCutouts
10
56.9892
20
-88.6206
0
VERTEX
8
SwitchCutouts
10
57.0063
20
-88.7500
0
VERTEX
8
SwitchCutouts
10
57.0063
20
-101.7500
0
VERTEX
8
SwitchCutouts
10
56.9892
20
-101.8794
0
VERTEX
8
SwitchCutouts
10
56.9393
20
-102.0000
0
VERTEX
8
SwitchCutouts
10
56.8598
20
-102.1036
0
VERTEX
8
SwitchCutouts
10
56.7563
20
-102.1830
0
VERTEX
8
SwitchCutouts
10
56.6357
20
-102.2330
0
VERTEX
8
SwitchCutouts
10
56.5063
20
-102.2500
0
SEQEND
0
POLYLINE
8
SwitchCutouts
66
1
70
1
0
VERTEX
8
SwitchCutouts
10
64.7875
20
-103.2500
0
VERTEX
8
SwitchCutouts
10
59.0375
20
-103.2500
0
VERTEX
8
SwitchCutouts
10
58.9081
20
-103.2330
0
VERTEX
8
SwitchCutouts
10
58.7875
20
-103.1830
0
VERTEX
8
SwitchCutouts
10
58.6839
20
-103.1036
0
VERTEX
8
SwitchCutouts
10
58.6045
20
-103.0000
0
VERTEX
8
SwitchCutouts
10
58.5545
20
-102.8794
0
VERTEX
8
SwitchCutouts
10
58.5375
20
-102.7500
0
VERTEX
8
SwitchCutouts
10
58.5375
20
-89.7500
0
VERTEX
8
SwitchCutouts
10
58.5545
20
-89.6206
0
VERTEX
8
SwitchCutouts
10
58.6045
20
-89.5000
0
VERTEX
8
SwitchCutouts
10
58.6839
20
-89.3964
0
VERTEX
8
SwitchCutouts
10
58.7875
20
-89.3170
0
VERTEX
8
SwitchCutouts
10
58.9081
20
-89.2670
0
VERTEX
8
SwitchCutouts
10
59.0375
20
-89.2500
0
VERTEX
8
SwitchCutouts
10
64.7863
20
-89.2500
0
VERTEX
8
SwitchCutouts
10
64.9157
20
-89.2670
0
VERTEX
8
SwitchCutouts
10
65.0363
20
-89.3170
0
VERTEX
8
SwitchCutouts
10
65.1398
20
-89.3964
0
VERTEX
8
SwitchCutouts
10
65.2193
20
-89.5000
0
VERTEX
8
SwitchCutouts
10
65.2693
20
-89.6206
0
VERTEX
8
SwitchCutouts
10
65.2863
20
-89.7500
0
VERTEX
8
SwitchCutouts
10
65.2875
20
-102.7500
0
VERTEX
8
SwitchCutouts
10
65.2705
20
-102.8794
0
VERTEX
8
SwitchCutouts
10
65.2205
20
-103.0000
0
VERTEX
8
SwitchCutouts
10
65.1411
20
-103.1036
0
VERTEX
8
SwitchCutouts
10
65.0375
20
-103.1830
0
VERTEX
8
SwitchCutouts
10
64.9169
20
-103.2330
0
VERTEX
8
SwitchCutouts
10
64.7875
20
-103.2500
0
SEQEND
0
POLYLINE
8
SwitchCutouts
66
1
70
1
0
VERTEX
8
SwitchCutouts
10
87.4625
20
-102.2500
0
VERTEX
8
SwitchCutouts
10
74.4653
20
-102.2489
0
VERTEX
8
SwitchCutouts
10
74.3359
20
-102.2318
0
VERTEX
8
SwitchCutouts
10
74.2153
20
-102.1819
0
VERTEX
8
SwitchCutouts
10
74.1117
20
-102.1024
0
VERTEX
8
SwitchCutouts
10
74.0323
20
-101.9989
0
VERTEX
8
SwitchCutouts
10
73.9823
20
-101.8783
0
VERTEX
8
SwitchCutouts
10
73.9653
20
-101.7489
0
VERTEX
8
SwitchCutouts
10
73.9625
20
-88.7500
0
VERTEX
8
SwitchCutouts
10
73.9795
20
-88.6206
0
VERTEX
8
SwitchCutouts
10
74.0295
20
-88.5000
0
VERTEX
8
SwitchCutouts
10
74.1089
20
-88.3964
0
VERTEX
8
SwitchCutouts
10
74.2125
20
-88.3170
0
VERTEX
8
SwitchCutouts
10
74.3331
20
-88.2670
0
VERTEX
8
SwitchCutouts
10
74.4625
20
-88.2500
0
VERTEX
8
SwitchCutouts
10
87.4625
20
-88.2500
0
VERTEX
8
SwitchCutouts
10
87.5919
20
-88.2670
0
VERTEX
8
SwitchCutouts
10
87.7125
20
-88.3170
0
VERTEX
8
SwitchCutouts
10
87.8161
20
-88.3964
0
VERTEX
8
SwitchCutouts
10
87.8955
20
-88.5000
0
VERTEX
8
SwitchCutouts
10
87.9455
20
-88.6206
0
VERTEX
8
SwitchCutouts
10
87.9625
20
-88.7500
0
VERTEX
8
SwitchCutouts
10
87.9625
20
-101.7500
0
VERTEX
8
SwitchCutouts
10
87.9455
20
-101.8794
0
VERTEX
8
SwitchCutouts
10
87.8955
20
-102.0000
0
VERTEX
8
SwitchCutouts
10
87.8161
20
-102.1036
0
VERTEX
8
SwitchCutouts
10
87.7125
20
-102.1830
0
VERTEX
8
SwitchCutouts
10
87.5919
20
-102.2330
0
VERTEX
8
SwitchCutouts
10
87.4625
20
-102.2500
0
SEQEND
0
POLYLINE
8
SwitchCutouts
66
1
70
1
0
VERTEX
8
SwitchCutouts
10
106.5125
20
-102.2500
0
VERTEX
8
SwitchCutouts
10
93.5153
20
-102.2489
0
VERTEX
8
SwitchCutouts
10
93.3859
20
-102.2318
0
VERTEX
8
SwitchCutouts
10
93.2653
20
-102.1819
0
VERTEX
8
SwitchCutouts
10
93.1617
20
-102.1024
0
VERTEX
8
SwitchCutouts
10
93.0823
20
-101.9989
0
VERTEX
8
SwitchCutouts
10
93.0323
20
-101.8783
0
VERTEX
8
SwitchCutouts
10
93.0153
20
-101.7489
0
VERTEX
8
SwitchCutouts
10
93.0125
20
-88.7500
0
VERTEX
8
SwitchCutouts
10
93.0295
20
-88.6206
0
VERTEX
8
SwitchCutouts
10
93.0795
20
-88.5000
0
VERTEX
8
SwitchCutouts
10
93.1589
20
-88.3964
0
VERTEX
8
SwitchCutouts
10
93.2625
20
-88.3170
0
VERTEX
8
SwitchCutouts
10
93.3831
20
-88.2670
0
VERTEX
8
SwitchCutouts
10
93.5125
20
-88.2500
0
VERTEX
8
SwitchCutouts
10
106.5125
20
-88.2500
0
VERTEX
8
SwitchCutouts
10
106.6419
20
-88.2670
0
VERTEX
8
SwitchCutouts
10
106.7625
20
-88.3170
0
VERTEX
8
SwitchCutouts
10
106.8661
20
-88.3964
0
VERTEX
8
SwitchCutouts
10
106.9455
20
-88.5000
0
VERTEX
8
SwitchCutouts
10
106.9955
20
-88.6206
0
VERTEX
8
SwitchCutouts
10
107.0125
20
-88.7500
0
VERTEX
8
SwitchCutouts
10
107.0125
20
-101.7500
0
VERTEX
8
SwitchCutouts
10
106.9955
20
-101.8794
0
VERTEX
8
SwitchCutouts
10
106.9455
20
-102.0000
0
VERTEX
8
SwitchCutouts
10
106.8661
20
-102.1036
0
VERTEX
8
SwitchCutouts
10
106.7625
20
-102.1830
0
VERTEX
8
SwitchCutouts
10
106.6419
20
-102.2330
0
VERTEX
8
SwitchCutouts
10
106.5125
20
-102.2500
0
SEQEND
0
POLYLINE
8
SwitchCutouts
66
1
70
1
0
VERTEX
8
SwitchCutouts
10
125.5625
20
-102.2500
0
VERTEX
8
SwitchCutouts
10
112.5653
20
-102.2489
0
VERTEX
8
SwitchCutouts
10
112.4359
20
-102.2318
0
VERTEX
8
SwitchCutouts
10
112.3153
20
-102.1819
0
VERTEX
8
SwitchCutouts
10
112.2117
20
-102.1024
0
VERTEX
8
SwitchCutouts
10
112.1323
20
-101.9989
0
VERTEX
8
SwitchCutouts
10
112.0823
20
-101.8783
0
VERTEX
8
SwitchCutouts
10
112.0653
20
-101.7489
0
VERTEX
8
SwitchCutouts
10
112.0625
20
-88.7500
0
VERTEX
8
SwitchCutouts
10
112.0795
20
-88.6206
0
VERTEX
8
SwitchCutouts
10
112.1295
20
-88.5000
0
VERTEX
8
SwitchCutouts
10
112.2089
20
-88.3964
0
VERTEX
8
SwitchCutouts
10
112.3125
20
-88.3170
0
VERTEX
8
SwitchCutouts
10
112.4331
20
-88.2670
0
VERTEX
8
SwitchCutouts
10
112.5625
20
-88.2500
0
VERTEX
8
SwitchCutouts
10
125.5625
20
-88.2500
0
VERTEX
8
SwitchCutouts
10
125.6919
20
-88.2670
0
VERTEX
8
SwitchCutouts
10
125.8125
20
-88.3170
0
VERTEX
8
SwitchCutouts
10
125.9161
20
-88.3964
0
VERTEX
8
SwitchCutouts
10
125.9955
20
-88.5000
0
VERTEX
8
SwitchCutouts
10
126.0455
20
-88.6206
0
VERTEX
8
SwitchCutouts
10
126.0625
20
-88.7500
0
VERTEX
8
SwitchCutouts
10
126.0625
20
-101.7500
0
VERTEX
8
SwitchCutouts
10
126.0455
20
-101.8794
0
VERTEX
8
SwitchCutouts
10
125.9955
20
-102.0000
0
VERTEX
8
SwitchCutouts
10
125.9161
20
-102.1036
0
VERTEX
8
SwitchCutouts
10
125.8125
20
-102.1830
0
VERTEX
8
SwitchCutouts
10
125.6919
20
-102.2330
0
VERTEX
8
SwitchCutouts
10
125.5625
20
-102.2500
0
SEQEND
0
POLYLINE
8
SwitchCutouts
66
1
70
1
0
VERTEX
8
SwitchCutouts
10
144.6125
20
-102.2500
0
VERTEX
8
SwitchCutouts
10
131.6153
20
-102.2489
0
VERTEX
8
SwitchCutouts
10
131.4859
20
-102.2318
0
VERTEX
8
SwitchCutouts
10
131.3653
20
-102.1819
0
VERTEX
8
SwitchCutouts
10
131.2617
20
-102.1024
0
VERTEX
8
SwitchCutouts
10
131.1823
20
-101.9989
0
VERTEX
8
SwitchCutouts
10
131.1323
20
-101.8783
0
VERTEX
8
SwitchCutouts
10
131.1153
20
-101.7489
0
VERTEX
8
SwitchCutouts
10
131.1125
20
-88.7500
0
VERTEX
8
SwitchCutouts
10
131.1295
20
-88.6206
0
VERTEX
8
SwitchCutouts
10
131.1795
20
-88.5000
0
VERTEX
8
SwitchCutouts
10
131.2589
20
-88.3964
0
VERTEX
8
SwitchCutouts
10
131.3625
20
-88.3170
0
VERTEX
8
SwitchCutouts
10
131.4831
20
-88.2670
0
VERTEX
8
SwitchCutouts
10
131.6125
20
-88.2500
0
VERTEX
8
SwitchCutouts
10
144.6125
20
-88.2500
0
VERTEX
8
SwitchCutouts
10
144.7419
20
-88.2670
0
VERTEX
8
SwitchCutouts
10
144.8625
20
-88.3170
0
VERTEX
8
SwitchCutouts
10
144.9661
20
-88.3964
0
VERTEX
8
SwitchCutouts
10
145.0455
20
-88.5000
0
VERTEX
8
SwitchCutouts
10
145.0955
20
-88.6206
0
VERTEX
8
SwitchCutouts
10
145.1125
20
-88.7500
0
VERTEX
8
SwitchCutouts
10
145.1125
20
-101.7500
0
VERTEX
8
SwitchCutouts
10
145.0955
20
-101.8794
0
VERTEX
8
SwitchCutouts
10
145.0455
20
-102.0000
0
VERTEX
8
SwitchCutouts
10
144.9661
20
-102.1036
0
VERTEX
8
SwitchCutouts
10
144.8625
20
-102.1830
0
VERTEX
8
SwitchCutouts
10
144.7419
20
-102.2330
0
VERTEX
8
SwitchCutouts
10
144.6125
20
-102.2500
0
SEQEND
0
POLYLINE
8
SwitchCutouts
66
1
70
1
0
VERTEX
8
SwitchCutouts
10
163.6625
20
-102.2500
0
VERTEX
8
SwitchCutouts
10
150.6653
20
-102.2489
0
VERTEX
8
SwitchCutouts
10
150.5359
20
-102.2318
0
VERTEX
8
SwitchCutouts
10
150.4153
20
-102.1819
0
VERTEX
8
SwitchCutouts
10
150.3117
20
-102.1024
0
VERTEX
8
SwitchCutouts
10
150.2323
20
-101.9989
0
VERTEX
8
SwitchCutouts
10
150.1823
20
-101.8783
0
VERTEX
8
SwitchCutouts
10
150.1653
20
-101.7489
0
VERTEX
8
SwitchCutouts
10
150.1625
20
-88.7500
0
VERTEX
8
SwitchCutouts
10
150.1795
20
-88.6206
0
VERTEX
8
SwitchCutouts
10
150.2295
20
-88.5000
0
VERTEX
8
SwitchCutouts
10
150.3089
20
-88.3964
0
VERTEX
8
SwitchCutouts
10
150.4125
20
-88.3170
0
VERTEX
8
SwitchCutouts
10
150.5331
20
-88.2670
0
VERTEX
8
SwitchCutouts
10
150.6625
20
-88.2500
0
VERTEX
8
SwitchCutouts
10
163.6625
20
-88.2500
0
VERTEX
8
SwitchCutouts
10
163.7919
20
-88.2670
0
VERTEX
8
SwitchCutouts
10
163.9125
20
-88.3170
0
VERTEX
8
SwitchCutouts
10
164.0161
20
-88.3964
0
VERTEX
8
SwitchCutouts
10
164.0955
20
-88.5000
0
VERTEX
8
SwitchCutouts
10
164.1455
20
-88.6206
0
VERTEX
8
SwitchCutouts
10
164.1625
20
-88.7500
0
VERTEX
8
SwitchCutouts
10
164.1625
20
-101.7500
0
VERTEX
8
SwitchCutouts
10
164.1455
20
-101.8794
0
VERTEX
8
SwitchCutouts
10
164.0955
20
-102.0000
0
VERTEX
8
SwitchCutouts
10
164.0161
20
-102.1036
0
VERTEX
8
SwitchCutouts
10
163.9125
20
-102.1830
0
VERTEX
8
SwitchCutouts
10
163.7919
20
-102.2330
0
VERTEX
8
SwitchCutouts
10
163.6625
20
-102.2500
0
SEQEND
0
POLYLINE
8
SwitchCutouts
66
1
70
1
0
VERTEX
8
SwitchCutouts
10
49.3625
20
-121.3000
0
VERTEX
8
SwitchCutouts
10
36.3653
20
-121.2989
0
VERTEX
8
SwitchCutouts
10
36.2359
20
-121.2818
0
VERTEX
8
SwitchCutouts
10
36.1153
20
-121.2319
0
VERTEX
8
SwitchCutouts
10
36.0117
20
-121.1524
0
VERTEX
8
SwitchCutouts
10
35.9323
20
-121.0489
0
VERTEX
8
SwitchCutouts
10
35.8823
20
-120.9283
0
VERTEX
8
SwitchCutouts
10
35.8653
20
-120.7989
0
VERTEX
8
SwitchCutouts
10
35.8625
20
-107.8000
0
VERTEX
8
SwitchCutouts
10
35.8795
20
-107.6706
0
VERTEX
8
SwitchCutouts
10
35.9295
20
-107.5500
0
VERTEX
8
SwitchCutouts
10
36.0089
20
-107.4464
0
VERTEX
8
SwitchCutouts
10
36.1125
20
-107.3670
0
VERTEX
8
SwitchCutouts
10
36.2331
20
-107.3170
0
VERTEX
8
SwitchCutouts
10
36.3625
20
-107.3000
0
VERTEX
8
SwitchCutouts
10
49.3625
20
-107.3000
0
VERTEX
8
SwitchCutouts
10
49.4919
20
-107.3170
0
VERTEX
8
SwitchCutouts
10
49.6125
20
-107.3670
0
VERTEX
8
SwitchCutouts
10
49.7161
20
-107.4464
0
VERTEX
8
SwitchCutouts
10
49.7955
20
-107.5500
0
VERTEX
8
SwitchCutouts
10
49.8455
20
-107.6706
0
VERTEX
8
SwitchCutouts
10
49.8625
20
-107.8000
0
VERTEX
8
SwitchCutouts
10
49.8625
20
-120.8000
0
VERTEX
8
SwitchCutouts
10
49.8455
20
-120.9294
0
VERTEX
8
SwitchCutouts
10
49.7955
20
-121.0500
0
VERTEX
8
SwitchCutouts
10
49.7161
20
-121.1536
0
VERTEX
8
SwitchCutouts
10
49.6125
20
-121.2330
0
VERTEX
8
SwitchCutouts
10
49.4919
20
-121.2830
0
VERTEX
8
SwitchCutouts
10
49.3625
20
-121.3000
0
SEQEND
0
POLYLINE
8
SwitchCutouts
66
1
70
1
0
VERTEX
8
SwitchCutouts
10
68.4125
20
-121.3000
0
VERTEX
8
SwitchCutouts
10
55.4153
20
-121.2989
0
VERTEX
8
SwitchCutouts
10
55.2859
20
-121.2818
0
VERTEX
8
SwitchCutouts
10
55.1653
20
-121.2319
0
VERTEX
8
SwitchCutouts
10
55.0617
20
-121.1524
0
VERTEX
8
SwitchCutouts
10
54.9823
20
-121.0489
0
VERTEX
8
SwitchCutouts
10
54.9323
20
-120.9283
0
VERTEX
8
SwitchCutouts
10
54.9153
20
-120.7989
0
VERTEX
8
SwitchCutouts
10
54.9125
20
-107.8000
0
VERTEX
8
SwitchCutouts
10
54.9295
20
-107.6706
0
VERTEX
8
SwitchCutouts
10
54.9795
20
-107.5500
0
VERTEX
8
SwitchCutouts
10
55.0589
20
-107.4464
0
VERTEX
8
SwitchCutouts
10
55.1625
20
-107.3670
0
VERTEX
8
SwitchCutouts
10
55.2831
20
-107.3170
0
VERTEX
8
SwitchCutouts
10
55.4125
20
-107.3000
0
VERTEX
8
SwitchCutouts
10
68.4125
20
-107.3000
0
VERTEX
8
SwitchCutouts
10
68.5419
20
-107.3170
0
VERTEX
8
SwitchCutouts
10
68.6625
20
-107.3670
0
VERTEX
8
SwitchCutouts
10
68.7661
20
-107.4464
0
VERTEX
8
SwitchCutouts
10
68.8455
20
-107.5500
0
VERTEX
8
SwitchCutouts
10
68.8955
20
-107.6706
0
VERTEX
8
SwitchCutouts
10
68.9125
20
-107.8000
0
VERTEX
8
SwitchCutouts
10
68.9125
20
-120.8000
0
VERTEX
8
SwitchCutouts
10
68.8955
20
-120.9294
0
VERTEX
8
SwitchCutouts
10
68.8455
20
-121.0500
0
VERTEX
8
SwitchCutouts
10
68.7661
20
-121.1536
0
VERTEX
8
SwitchCutouts
10
68.6625
20
-121.2330
0
VERTEX
8
SwitchCutouts
10
68.5419
20
-121.2830
0
VERTEX
8
SwitchCutouts
10
68.4125
20
-121.3000
0
SEQEND
0
POLYLINE
8
SwitchCutouts
66
1
70
1
0
VERTEX
8
SwitchCutouts
10
89.8438
20
-121.3000
0
VERTEX
8
SwitchCutouts
10
76.8465
20
-121.2989
0
VERTEX
8
SwitchCutouts
10
76.7171
20
-121.2818
0
VERTEX
8
SwitchCutouts
10
76.5965
20
-121.2319
0
VERTEX
8
SwitchCutouts
10
76.4930
20
-121.1524
0
VERTEX
8
SwitchCutouts
10
76.4135
20
-121.0489
0
VERTEX
8
SwitchCutouts
10
76.3636
20
-120.9283
0
VERTEX
8
SwitchCutouts
10
76.3465
20
-120.7989
0
VERTEX
8
SwitchCutouts
10
76.3438
20
-107.8000
0
VERTEX
8
SwitchCutouts
10
76.3608
20
-107.6706
0
VERTEX
8
SwitchCutouts
10
76.4107
20
-107.5500
0
VERTEX
8
SwitchCutouts
10
76.4902
20
-107.4464
0
VERTEX
8
SwitchCutouts
10
76.5938
20
-107.3670
0
VERTEX
8
SwitchCutouts
10
76.7143
20
-107.3170
0
VERTEX
8
SwitchCutouts
10
76.8438
20
-107.3000
0
VERTEX
8
SwitchCutouts
10
89.8438
20
-107.3000
0
VERTEX
8
SwitchCutouts
10
89.9732
20
-107.3170
0
VERTEX
8
SwitchCutouts
10
90.0938
20
-107.3670
0
VERTEX
8
SwitchCutouts
10
90.1973
20
-107.4464
0
VERTEX
8
SwitchCutouts
10
90.2768
20
-107.5500
0
VERTEX
8
SwitchCutouts
10
90.3267
20
-107.6706
0
VERTEX
8
SwitchCutouts
10
90.3438
20
-107.8000
0
VERTEX
8
SwitchCutouts
10
90.3438
20
-120.8000
0
VERTEX
8
SwitchCutouts
10
90.3267
20
-120.9294
0
VERTEX
8
SwitchCutouts
10
90.2768
20
-121.0500
0
VERTEX
8
SwitchCutouts
10
90.1973
20
-121.1536
0
VERTEX
8
SwitchCutouts
10
90.0938
20
-121.2330
0
VERTEX
8
SwitchCutouts
10
89.9732
20
-121.2830
0
VERTEX
8
SwitchCutouts
10
89.8438
20
-121.3000
0
SEQEND
0
POLYLINE
8
SwitchCutouts
66
1
70
1
0
VERTEX
8
SwitchCutouts
10
82.7000
20
-45.1000
0
VERTEX
8
SwitchCutouts
10
69.7028
20
-45.0989
0
VERTEX
8
SwitchCutouts
10
69.5734
20
-45.0818
0
VERTEX
8
SwitchCutouts
10
69.4528
20
-45.0319
0
VERTEX
8
SwitchCutouts
10
69.3492
20
-44.9524
0
VERTEX
8
SwitchCutouts
10
69.2698
20
-44.8489
0
VERTEX
8
SwitchCutouts
10
69.2198
20
-44.7283
0
VERTEX
8
SwitchCutouts
10
69.2028
20
-44.5989
0
VERTEX
8
SwitchCutouts
10
69.2000
20
-31.6000
0
VERTEX
8
SwitchCutouts
10
69.2170
20
-31.4706
0
VERTEX
8
SwitchCutouts
10
69.2670
20
-31.3500
0
VERTEX
8
SwitchCutouts
10
69.3464
20
-31.2464
0
VERTEX
8
SwitchCutouts
10
69.4500
20
-31.1670
0
VERTEX
8
SwitchCutouts
10
69.5706
20
-31.1170
0
VERTEX
8
SwitchCutouts
10
69.7000
20
-31.1000
0
VERTEX
8
SwitchCutouts
10
82.7000
20
-31.1000
0
VERTEX
8
SwitchCutouts
10
82.8294
20
-31.1170
0
VERTEX
8
SwitchCutouts
10
82.9500
20
-31.1670
0
VERTEX
8
SwitchCutouts
10
83.0536
20
-31.2464
0
VERTEX
8
SwitchCutouts
10
83.1330
20
-31.3500
0
VERTEX
8
SwitchCutouts
10
83.1830
20
-31.4706
0
VERTEX
8
SwitchCutouts
10
83.2000
20
-31.6000
0
VERTEX
8
SwitchCutouts
10
83.2000
20
-44.6000
0
VERTEX
8
SwitchCutouts
10
83.1830
20
-44.7294
0
VERTEX
8
SwitchCutouts
10
83.1330
20
-44.8500
0
VERTEX
8
SwitchCutouts
10
83.0536
20
-44.9536
0
VERTEX
8
SwitchCutouts
10
82.9500
20
-45.0330
0
VERTEX
8
SwitchCutouts
10
82.8294
20
-45.0830
0
VERTEX
8
SwitchCutouts
10
82.7000
20
-45.1000
0
SEQEND
0
POLYLINE
8
SwitchCutouts
66
1
70
1
0
VERTEX
8
SwitchCutouts
10
113.6562
20
-121.3000
0
VERTEX
8
SwitchCutouts
10
100.6590
20
-121.2989
0
VERTEX
8
SwitchCutouts
10
100.5296
20
-121.2818
0
VERTEX
8
SwitchCutouts
10
100.4090
20
-121.2319
0
VERTEX
8
SwitchCutouts
10
100.3055
20
-121.1524
0
VERTEX
8
SwitchCutouts
10
100.2260
20
-121.0489
0
VERTEX
8
SwitchCutouts
10
100.1761
20
-120.9283
0
VERTEX
8
SwitchCutouts
10
100.1590
20
-120.7989
0
VERTEX
8
SwitchCutouts
10
100.1562
20
-107.8000
0
VERTEX
8
SwitchCutouts
10
100.1733
20
-107.6706
0
VERTEX
8
SwitchCutouts
10
100.2232
20
-107.5500
0
VERTEX
8
SwitchCutouts
10
100.3027
20
-107.4464
0
VERTEX
8
SwitchCutouts
10
100.4063
20
-107.3670
0
VERTEX
8
SwitchCutouts
10
100.5268
20
-107.3170
0
VERTEX
8
SwitchCutouts
10
100.6562
20
-107.3000
0
VERTEX
8
SwitchCutouts
10
113.6562
20
-107.3000
0
VERTEX
8
SwitchCutouts
10
113.7857
20
-107.3170
0
VERTEX
8
SwitchCutouts
10
113.9063
20
-107.3670
0
VERTEX
8
SwitchCutouts
10
114.0098
20
-107.4464
0
VERTEX
8
SwitchCutouts
10
114.0893
20
-107.5500
0
VERTEX
8
SwitchCutouts
10
114.1392
20
-107.6706
0
VERTEX
8
SwitchCutouts
10
114.1562
20
-107.8000
0
VERTEX
8
SwitchCutouts
10
114.1562
20
-120.8000
0
VERTEX
8
SwitchCutouts
10
114.1392
20
-120.9294
0
VERTEX
8
SwitchCutouts
10
114.0893
20
-121.0500
0
VERTEX
8
SwitchCutouts
10
114.0098
20
-121.1536
0
VERTEX
8
SwitchCutouts
10
113.9063
20
-121.2330
0
VERTEX
8
SwitchCutouts
10
113.7857
20
-121.2830
0
VERTEX
8
SwitchCutouts
10
113.6562
20
-121.3000
0
SEQEND
0
POLYLINE
8
SwitchCutouts
66
1
70
1
0
VERTEX
8
SwitchCutouts
10
139.2996
20
-121.3518
0
VERTEX
8
SwitchCutouts
10
126.7449
20
-124.7147
0
VERTEX
8
SwitchCutouts
10
126.6155
20
-124.7317
0
VERTEX
8
SwitchCutouts
10
126.4861
20
-124.7147
0
VERTEX
8
SwitchCutouts
10
126.3655
20
-124.6648
0
VERTEX
8
SwitchCutouts
10
126.2619
20
-124.5853
0
VERTEX
8
SwitchCutouts
10
126.1825
20
-124.4817
0
VERTEX
8
SwitchCutouts
10
126.1325
20
-124.3611
0
VERTEX
8
SwitchCutouts
10
122.7655
20
-111.8059
0
VERTEX
8
SwitchCutouts
10
122.7485
20
-111.6765
0
VERTEX
8
SwitchCutouts
10
122.7655
20
-111.5471
0
VERTEX
8
SwitchCutouts
10
122.8155
20
-111.4265
0
VERTEX
8
SwitchCutouts
10
122.8949
20
-111.3229
0
VERTEX
8
SwitchCutouts
10
122.9985
20
-111.2435
0
VERTEX
8
SwitchCutouts
10
123.1191
20
-111.1935
0
VERTEX
8
SwitchCutouts
10
135.6761
20
-107.8289
0
VERTEX
8
SwitchCutouts
10
135.8055
20
-107.8118
0
VERTEX
8
SwitchCutouts
10
135.9349
20
-107.8289
0
VERTEX
8
SwitchCutouts
10
136.0555
20
-107.8788
0
VERTEX
8
SwitchCutouts
10
136.1591
20
-107.9583
0
VERTEX
8
SwitchCutouts
10
136.2385
20
-108.0619
0
VERTEX
8
SwitchCutouts
10
136.2885
20
-108.1824
0
VERTEX
8
SwitchCutouts
10
139.6531
20
-120.7395
0
VERTEX
8
SwitchCutouts
10
139.6701
20
-120.8689
0
VERTEX
8
SwitchCutouts
10
139.6531
20
-120.9983
0
VERTEX
8
SwitchCutouts
10
139.6032
20
-121.1189
0
VERTEX
8
SwitchCutouts
10
139.5237
20
-121.2224
0
VERTEX
8
SwitchCutouts
10
139.4201
20
-121.3019
0
VERTEX
8
SwitchCutouts
10
139.2996
20
-121.3518
0
SEQEND
0
POLYLINE
8
SwitchCutouts
66
1
70
1
0
VERTEX
8
SwitchCutouts
10
153.4414
20
-135.9214
0
VERTEX
8
SwitchCutouts
10
144.2517
20
-126.7302
0
VERTEX
8
SwitchCutouts
10
144.1722
20
-126.6266
0
VERTEX
8
SwitchCutouts
10
144.1223
20
-126.5061
0
VERTEX
8
SwitchCutouts
10
144.1053
20
-126.3766
0
VERTEX
8
SwitchCutouts
10
144.1223
20
-126.2472
0
VERTEX
8
SwitchCutouts
10
144.1722
20
-126.1266
0
VERTEX
8
SwitchCutouts
10
144.2517
20
-126.0231
0
VERTEX
8
SwitchCutouts
10
153.4414
20
-116.8295
0
VERTEX
8
SwitchCutouts
10
153.5449
20
-116.7501
0
VERTEX
8
SwitchCutouts
10
153.6655
20
-116.7001
0
VERTEX
8
SwitchCutouts
10
153.7949
20
-116.6831
0
VERTEX
8
SwitchCutouts
10
153.9243
20
-116.7001
0
VERTEX
8
SwitchCutouts
10
154.0449
20
-116.7501
0
VERTEX
8
SwitchCutouts
10
154.1485
20
-116.8295
0
VERTEX
8
SwitchCutouts
10
163.3408
20
-126.0219
0
VERTEX
8
SwitchCutouts
10
163.4203
20
-126.1255
0
VERTEX
8
SwitchCutouts
10
163.4703
20
-126.2461
0
VERTEX
8
SwitchCutouts
10
163.4873
20
-126.3755
0
VERTEX
8
SwitchCutouts
10
163.4703
20
-126.5049
0
VERTEX
8
SwitchCutouts
10
163.4203
20
-126.6255
0
VERTEX
8
SwitchCutouts
10
163.3408
20
-126.7290
0
VERTEX
8
SwitchCutouts
10
154.1485
20
-135.9214
0
VERTEX
8
SwitchCutouts
10
154.0449
20
-136.0009
0
VERTEX
8
SwitchCutouts
10
153.9243
20
-136.0508
0
VERTEX
8
SwitchCutouts
10
153.7949
20
-136.0679
0
VERTEX
8
SwitchCutouts
10
153.6655
20
-136.0508
0
VERTEX
8
SwitchCutouts
10
153.5449
20
-136.0009
0
VERTEX
8
SwitchCutouts
10
153.4414
20
-135.9214
0
SEQEND
0
POLYLINE
8
SwitchCutouts
66
1
70
1
0
VERTEX
8
SwitchCutouts
10
101.7500
20
-45.1000
0
VERTEX
8
SwitchCutouts
10
88.7528
20
-45.0989
0
VERTEX
8
SwitchCutouts
10
88.6234
20
-45.0818
0
VERTEX
8
SwitchCutouts
10
88.5028
20
-45.0319
0
VERTEX
8
SwitchCutouts
10
88.3992
20
-44.9524
0
VERTEX
8
SwitchCutouts
10
88.3198
20
-44.8489
0
VERTEX
8
SwitchCutouts
10
88.2698
20
-44.7283
0
VERTEX
8
SwitchCutouts
10
88.2528
20
-44.5989
0
VERTEX
8
SwitchCutouts
10
88.2500
20
-31.6000
0
VERTEX
8
SwitchCutouts
10
88.2670
20
-31.4706
0
VERTEX
8
SwitchCutouts
10
88.3170
20
-31.3500
0
VERTEX
8
SwitchCutouts
10
88.3964
20
-31.2464
0
VERTEX
8
SwitchCutouts
10
88.5000
20
-31.1670
0
VERTEX
8
SwitchCutouts
10
88.6206
20
-31.1170
0
VERTEX
8
SwitchCutouts
10
88.7500
20
-31.1000
0
VERTEX
8
SwitchCutouts
10
101.7500
20
-31.1000
0
VERTEX
8
SwitchCutouts
10
101.8794
20
-31.1170
0
VERTEX
8
SwitchCutouts
10
102.0000
20
-31.1670
0
VERTEX
8
SwitchCutouts
10
102.1036
20
-31.2464
0
VERTEX
8
SwitchCutouts
10
102.1830
20
-31.3500
0
VERTEX
8
SwitchCutouts
10
102.2330
20
-31.4706
0
VERTEX
8
SwitchCutouts
10
102.2500
20
-31.6000
0
VERTEX
8
SwitchCutouts
10
102.2500
20
-44.6000
0
VERTEX
8
SwitchCutouts
10
102.2330
20
-44.7294
0
VERTEX
8
SwitchCutouts
10
102.1830
20
-44.8500
0
VERTEX
8
SwitchCutouts
10
102.1036
20
-44.9536
0
VERTEX
8
SwitchCutouts
10
102.0000
20
-45.0330
0
VERTEX
8
SwitchCutouts
10
101.8794
20
-45.0830
0
VERTEX
8
SwitchCutouts
10
101.7500
20
-45.1000
0
SEQEND
0
POLYLINE
8
SwitchCutouts
66
1
70
1
0
VERTEX
8
SwitchCutouts
10
120.8000
20
-45.1000
0
VERTEX
8
SwitchCutouts
10
107.8028
20
-45.0989
0
VERTEX
8
SwitchCutouts
10
107.6734
20
-45.0818
0
VERTEX
8
SwitchCutouts
10
107.5528
20
-45.0319
0
VERTEX
8
SwitchCutouts
10
107.4492
20
-44.9524
0
VERTEX
8
SwitchCutouts
10
107.3698
20
-44.8489
0
VERTEX
8
SwitchCutouts
10
107.3198
20
-44.7283
0
VERTEX
8
SwitchCutouts
10
107.3028
20
-44.5989
0
VERTEX
8
SwitchCutouts
10
107.3000
20
-31.6000
0
VERTEX
8
SwitchCutouts
10
107.3170
20
-31.4706
0
VERTEX
8
SwitchCutouts
10
107.3670
20
-31.3500
0
VERTEX
8
SwitchCutouts
10
107.4464
20
-31.2464
0
VERTEX
8
SwitchCutouts
10
107.5500
20
-31.1670
0
VERTEX
8
SwitchCutouts
10
107.6706
20
-31.1170
0
VERTEX
8
SwitchCutouts
10
107.8000
20
-31.1000
0
VERTEX
8
SwitchCutouts
10
120.8000
20
-31.1000
0
VERTEX
8
SwitchCutouts
10
120.9294
20
-31.1170
0
VERTEX
8
SwitchCutouts
10
121.0500
20
-31.1670
0
VERTEX
8
SwitchCutouts
10
121.1536
20
-31.2464
0
VERTEX
8
SwitchCutouts
10
121.2330
20
-31.3500
0
VERTEX
8
SwitchCutouts
10
121.2830
20
-31.4706
0
VERTEX
8
SwitchCutouts
10
121.3000
20
-31.6000
0
VERTEX
8
SwitchCutouts
10
121.3000
20
-44.6000
0
VERTEX
8
SwitchCutouts
10
121.2830
20
-44.7294
0
VERTEX
8
SwitchCutouts
10
121.2330
20
-44.8500
0
VERTEX
8
SwitchCutouts
10
121.1536
20
-44.9536
0
VERTEX
8
SwitchCutouts
10
121.0500
20
-45.0330
0
VERTEX
8
SwitchCutouts
10
120.9294
20
-45.0830
0
VERTEX
8
SwitchCutouts
10
120.8000
20
-45.1000
0
SEQEND
0
POLYLINE
8
SwitchCutouts
66
1
70
1
0
VERTEX
8
SwitchCutouts
10
139.8500
20
-45.1000
0
VERTEX
8
SwitchCutouts
10
126.8528
20
-45.0989
0
VERTEX
8
SwitchCutouts
10
126.7234
20
-45.0818
0
VERTEX
8
SwitchCutouts
10
126.6028
20
-45.0319
0
VERTEX
8
SwitchCutouts
10
126.4992
20
-44.9524
0
VERTEX
8
SwitchCutouts
10
126.4198
20
-44.8489
0
VERTEX
8
SwitchCutouts
10
126.3698
20
-44.7283
0
VERTEX
8
SwitchCutouts
10
126.3528
20
-44.5989
0
VERTEX
8
SwitchCutouts
10
126.3500
20
-31.6000
0
VERTEX
8
SwitchCutouts
10
126.3670
20
-31.4706
0
VERTEX
8
SwitchCutouts
10
126.4170
20
-31.3500
0
VERTEX
8
SwitchCutouts
10
126.4964
20
-31.2464
0
VERTEX
8
SwitchCutouts
10
126.6000
20
-31.1670
0
VERTEX
8
SwitchCutouts
10
126.7206
20
-31.1170
0
VERTEX
8
SwitchCutouts
10
126.8500
20
-31.1000
0
VERTEX
8
SwitchCutouts
10
139.8500
20
-31.1000
0
VERTEX
8
SwitchCutouts
10
139.9794
20
-31.1170
0
VERTEX
8
SwitchCutouts
10
140.1000
20
-31.1670
0
VERTEX
8
SwitchCutouts
10
140.2036
20
-31.2464
0
VERTEX
8
SwitchCutouts
10
140.2830
20
-31.3500
0
VERTEX
8
SwitchCutouts
10
140.3330
20
-31.4706
0
VERTEX
8
SwitchCutouts
10
140.3500
20
-31.6000
0
VERTEX
8
SwitchCutouts
10
140.3500
20
-44.6000
0
VERTEX
8
SwitchCutouts
10
140.3330
20
-44.7294
0
VERTEX
8
SwitchCutouts
10
140.2830
20
-44.8500
0
VERTEX
8
SwitchCutouts
10
140.2036
20
-44.9536
0
VERTEX
8
SwitchCutouts
10
140.1000
20
-45.0330
0
VERTEX
8
SwitchCutouts
10
139.9794
20
-45.0830
0
VERTEX
8
SwitchCutouts
10
139.8500
20
-45.1000
0
SEQEND
0
POLYLINE
8
SwitchCutouts
66
1
70
1
0
VERTEX
8
SwitchCutouts
10
158.9000
20
-45.1000
0
VERTEX
8
SwitchCutouts
10
145.9028
20
-45.0989
0
VERTEX
8
SwitchCutouts
10
145.7734
20
-45.0818
0
VERTEX
8
SwitchCutouts
10
145.6528
20
-45.0319
0
VERTEX
8
SwitchCutouts
10
145.5492
20
-44.9524
0
VERTEX
8
SwitchCutouts
10
145.4698
20
-44.8489
0
VERTEX
8
SwitchCutouts
10
145.4198
20
-44.7283
0
VERTEX
8
SwitchCutouts
10
145.4028
20
-44.5989
0
VERTEX
8
SwitchCutouts
10
145.4000
20
-31.6000
0
VERTEX
8
SwitchCutouts
10
145.4170
20
-31.4706
0
VERTEX
8
SwitchCutouts
10
145.4670
20
-31.3500
0
VERTEX
8
SwitchCutouts
10
145.5464
20
-31.2464
0
VERTEX
8
SwitchCutouts
10
145.6500
20
-31.1670
0
VERTEX
8
SwitchCutouts
10
145.7706
20
-31.1170
0
VERTEX
8
SwitchCutouts
10
145.9000
20
-31.1000
0
VERTEX
8
SwitchCutouts
10
158.9000
20
-31.1000
0
VERTEX
8
SwitchCutouts
10
159.0294
20
-31.1170
0
VERTEX
8
SwitchCutouts
10
159.1500
20
-31.1670
0
VERTEX
8
SwitchCutouts
10
159.2536
20
-31.2464
0
VERTEX
8
SwitchCutouts
10
159.3330
20
-31.3500
0
VERTEX
8
SwitchCutouts
10
159.3830
20
-31.4706
0
VERTEX
8
SwitchCutouts
10
159.4000
20
-31.6000
0
VERTEX
8
SwitchCutouts
10
159.4000
20
-44.6000
0
VERTEX
8
SwitchCutouts
10
159.3830
20
-44.7294
0
VERTEX
8
SwitchCutouts
10
159.3330
20
-44.8500
0
VERTEX
8
SwitchCutouts
10
159.2536
20
-44.9536
0
VERTEX
8
SwitchCutouts
10
159.1500
20
-45.0330
0
VERTEX
8
SwitchCutouts
10
159.0294
20
-45.0830
0
VERTEX
8
SwitchCutouts
10
158.9000
20
-45.1000
0
SEQEND
0
POLYLINE
8
SwitchCutouts
66
1
70
1
0
VERTEX
8
SwitchCutouts
10
49.3625
20
-64.1500
0
VERTEX
8
SwitchCutouts
10
36.3653
20
-64.1489
0
VERTEX
8
SwitchCutouts
10
36.2359
20
-64.1318
0
VERTEX
8
SwitchCutouts
10
36.1153
20
-64.0819
0
VERTEX
8
SwitchCutouts
10
36.0117
20
-64.0024
0
VERTEX
8
SwitchCutouts
10
35.9323
20
-63.8989
0
VERTEX
8
SwitchCutouts
10
35.8823
20
-63.7783
0
VERTEX
8
SwitchCutouts
10
35.8653
20
-63.6489
0
VERTEX
8
SwitchCutouts
10
35.8625
20
-50.6500
0
VERTEX
8
SwitchCutouts
10
35.8795
20
-50.5206
0
VERTEX
8
SwitchCutouts
10
35.9295
20
-50.4000
0
VERTEX
8
SwitchCutouts
10
36.0089
20
-50.2964
0
VERTEX
8
SwitchCutouts
10
36.1125
20
-50.2170
0
VERTEX
8
SwitchCutouts
10
36.2331
20
-50.1670
0
VERTEX
8
SwitchCutouts
10
36.3625
20
-50.1500
0
VERTEX
8
SwitchCutouts
10
49.3625
20
-50.1500
0
VERTEX
8
SwitchCutouts
10
49.4919
20
-50.1670
0
VERTEX
8
SwitchCutouts
10
49.6125
20
-50.2170
0
VERTEX
8
SwitchCutouts
10
49.7161
20
-50.2964
0
VERTEX
8
SwitchCutouts
10
49.7955
20
-50.4000
0
VERTEX
8
SwitchCutouts
10
49.8455
20
-50.5206
0
VERTEX
8
SwitchCutouts
10
49.8625
20
-50.6500
0
VERTEX
8
SwitchCutouts
10
49.8625
20
-63.6500
0
VERTEX
8
SwitchCutouts
10
49.8455
20
-63.7794
0
VERTEX
8
SwitchCutouts
10
49.7955
20
-63.9000
0
VERTEX
8
SwitchCutouts
10
49.7161
20
-64.0036
0
VERTEX
8
SwitchCutouts
10
49.6125
20
-64.0830
0
VERTEX
8
SwitchCutouts
10
49.4919
20
-64.1330
0
VERTEX
8
SwitchCutouts
10
49.3625
20
-64.1500
0
SEQEND
0
POLYLINE
8
SwitchCutouts
66
1
70
1
0
VERTEX
8
SwitchCutouts
10
73.1750
20
-64.1500
0
VERTEX
8
SwitchCutouts
10
60.1778
20
-64.1489
0
VERTEX
8
SwitchCutouts
10
60.0484
20
-64.1318
0
VERTEX
8
SwitchCutouts
10
59.9278
20
-64.0819
0
VERTEX
8
SwitchCutouts
10
59.8242
20
-64.0024
0
VERTEX
8
SwitchCutouts
10
59.7448
20
-63.8989
0
VERTEX
8
SwitchCutouts
10
59.6948
20
-63.7783
0
VERTEX
8
SwitchCutouts
10
59.6778
20
-63.6489
0
VERTEX
8
SwitchCutouts
10
59.6750
20
-50.6500
0
VERTEX
8
SwitchCutouts
10
59.6920
20
-50.5206
0
VERTEX
8
SwitchCutouts
10
59.7420
20
-50.4000
0
VERTEX
8
SwitchCutouts
10
59.8214
20
-50.2964
0
VERTEX
8
SwitchCutouts
10
59.9250
20
-50.2170
0
VERTEX
8
SwitchCutouts
10
60.0456
20
-50.1670
0
VERTEX
8
SwitchCutouts
10
60.1750
20
-50.1500
0
VERTEX
8
SwitchCutouts
10
73.1750
20
-50.1500
0
VERTEX
8
SwitchCutouts
10
73.3044
20
-50.1670
0
VERTEX
8
SwitchCutouts
10
73.4250
20
-50.2170
0
VERTEX
8
SwitchCutouts
10
73.5286
20
-50.2964
0
VERTEX
8
SwitchCutouts
10
73.6080
20
-50.4000
0
VERTEX
8
SwitchCutouts
10
73.6580
20
-50.5206
0
VERTEX
8
SwitchCutouts
10
73.6750
20
-50.6500
0
VERTEX
8
SwitchCutouts
10
73.6750
20
-63.6500
0
VERTEX
8
SwitchCutouts
10
73.6580
20
-63.7794
0
VERTEX
8
SwitchCutouts
10
73.6080
20
-63.9000
0
VERTEX
8
SwitchCutouts
10
73.5286
20
-64.0036
0
VERTEX
8
SwitchCutouts
10
73.4250
20
-64.0830
0
VERTEX
8
SwitchCutouts
10
73.3044
20
-64.1330
0
VERTEX
8
SwitchCutouts
10
73.1750
20
-64.1500
0
SEQEND
0
ENDSEC
0
EOF
