0
SECTION
2
ENTITIES
0
POLYLINE
8
PlateOutline
66
1
70
1
0
VERTEX
8
PlateOutline
10
192.2201
20
-25.9817
0
VERTEX
8
PlateOutline
10
193.0933
20
-26.8549
0
VERTEX
8
PlateOutline
10
193.5500
20
-27.9576
0
VERTEX
8
PlateOutline
10
193.5500
20
-104.9797
0
VERTEX
8
PlateOutline
10
193.5050
20
-105.3448
0
VERTEX
8
PlateOutline
10
188.5990
20
-124.9689
0
VERTEX
8
PlateOutline
10
188.1972
20
-125.6787
0
VERTEX
8
PlateOutline
10
187.5351
20
-126.3408
0
VERTEX
8
PlateOutline
10
186.6635
20
-126.7763
0
VERTEX
8
PlateOutline
10
49.9363
20
-146.2485
0
VERTEX
8
PlateOutline
10
49.7245
20
-146.2635
0
VERTEX
8
PlateOutline
10
48.9802
20
-146.2635
0
VERTEX
8
PlateOutline
10
47.8776
20
-145.8067
0
VERTEX
8
PlateOutline
10
26.7988
20
-124.7280
0
VERTEX
8
PlateOutline
10
26.3421
20
-123.6253
0
VERTEX
8
PlateOutline
10
26.3421
20
-122.9081
0
VERTEX
8
PlateOutline
10
26.3505
20
-122.7501
0
VERTEX
8
PlateOutline
10
30.3071
20
-85.3604
0
VERTEX
8
PlateOutline
10
35.1048
20
-46.9791
0
VERTEX
8
PlateOutline
10
35.2526
20
-46.4908
0
VERTEX
8
PlateOutline
10
44.9999
20
-26.9963
0
VERTEX
8
PlateOutline
10
45.2827
20
-26.6040
0
VERTEX
8
PlateOutline
10
45.9049
20
-25.9817
0
VERTEX
8
PlateOutline
10
47.0076
20
-25.5250
0
VERTEX
8
PlateOutline
10
191.1174
20
-25.5250
0
SEQEND
0
POLYLINE
8
SwitchCutouts
66
1
70
1
0
VERTEX
8
SwitchCutouts
10
63.6500
20
-45.1000
0
VERTEX
8
SwitchCutouts
10
50.6528
20
-45.0989
0
VERTEX
8
SwitchCutouts
10
50.5234
20
-45.0818
0
VERTEX
8
SwitchCutouts
10
50.4028
20
-45.0319
0
VERTEX
8
SwitchCutouts
10
50.2992
20
-44.9524
0
VERTEX
8
SwitchCutouts
10
50.2198
20
-44.8489
0
VERTEX
8
SwitchCutouts
10
50.1698
20
-44.7283
0
VERTEX
8
SwitchCutouts
10
50.1528
20
-44.5989
0
VERTEX
8
SwitchCutouts
10
50.1500
20
-31.6000
0
VERTEX
8
SwitchCutouts
10
50.1670
20
-31.4706
0
VERTEX
8
SwitchCutouts
10
50.2170
20
-31.3500
0
VERTEX
8
SwitchCutouts
10
50.2964
20
-31.2464
0
VERTEX
8
SwitchCutouts
10
50.4000
20
-31.1670
0
VERTEX
8
SwitchCutouts
10
50.5206
20
-31.1170
0
VERTEX
8
SwitchCutouts
10
50.6500
20
-31.1000
0
VERTEX
8
SwitchCutouts
10
63.6500
20
-31.1000
0
VERTEX
8
SwitchCutouts
10
63.7794
20
-31.1170
0
VERTEX
8
SwitchCutouts
10
63.9000
20
-31.1670
0
VERTEX
8
SwitchCutouts
10
64.0036
20
-31.2464
0
VERTEX
8
SwitchCutouts
10
64.0830
20
-31.3500
0
VERTEX
8
SwitchCutouts
10
64.1330
20
-31.4706
0
VERTEX
8
SwitchCutouts
10
64.1500
20
-31.6000
0
VERTEX
8
SwitchCutouts
10
64.1500
20
-44.6000
0
VERTEX
8
SwitchCutouts
10
64.1330
20
-44.7294
0
VERTEX
8
SwitchCutouts
10
64.0830
20
-44.8500
0
VERTEX
8
SwitchCutouts
10
64.0036
20
-44.9536
0
VERTEX
8
SwitchCutouts
10
63.9000
20
-45.0330
0
VERTEX
8
SwitchCutouts
10
63.7794
20
-45.0830
0
VERTEX
8
SwitchCutouts
10
63.6500
20
-45.1000
0
SEQEND
0
POLYLINE
8
SwitchCutouts
66
1
70
1
0
VERTEX
8
SwitchCutouts
10
92.2250
20
-64.1500
0
VERTEX
8
SwitchCutouts
10
79.2278
20
-64.1489
0
VERTEX
8
SwitchCutouts
10
79.0984
20
-64.1318
0
VERTEX
8
SwitchCutouts
10
78.9778
20
-64.0819
0
VERTEX
8
SwitchCutouts
10
78.8742
20
-64.0024
0
VERTEX
8
SwitchCutouts
10
78.7948
20
-63.8989
0
VERTEX
8
SwitchCutouts
10
78.7448
20
-63.7783
0
VERTEX
8
SwitchCutouts
10
78.7278
20
-63.6489
0
VERTEX
8
SwitchCutouts
10
78.7250
20
-50.6500
0
VERTEX
8
SwitchCutouts
10
78.7420
20
-50.5206
0
VERTEX
8
SwitchCutouts
10
78.7920
20
-50.4000
0
VERTEX
8
SwitchCutouts
10
78.8714
20
-50.2964
0
VERTEX
8
SwitchCutouts
10
78.9750
20
-50.2170
0
VERTEX
8
SwitchCutouts
10
79.0956
20
-50.1670
0
VERTEX
8
SwitchCutouts
10
79.2250
20
-50.1500
0
VERTEX
8
SwitchCutouts
10
92.2250
20
-50.1500
0
VERTEX
8
SwitchCutouts
10
92.3544
20
-50.1670
0
VERTEX
8
SwitchCutouts
10
92.4750
20
-50.2170
0
VERTEX
8
SwitchCutouts
10
92.5786
20
-50.2964
0
VERTEX
8
SwitchCutouts
10
92.6580
20
-50.4000
0
VERTEX
8
SwitchCutouts
10
92.7080
20
-50.5206
0
VERTEX
8
SwitchCutouts
10
92.7250
20
-50.6500
0
VERTEX
8
SwitchCutouts
10
92.7250
20
-63.6500
0
VERTEX
8
SwitchCutouts
10
92.7080
20
-63.7794
0
VERTEX
8
SwitchCutouts
10
92.6580
20
-63.9000
0
VERTEX
8
SwitchCutouts
10
92.5786
20
-64.0036
0
VERTEX
8
SwitchCutouts
10
92.4750
20
-64.0830
0
VERTEX
8
SwitchCutouts
10
92.3544
20
-64.1330
0
VERTEX
8
SwitchCutouts
10
92.2250
20
-64.1500
0
SEQEND
0
POLYLINE
8
SwitchCutouts
66
1
70
1
0
VERTEX
8
SwitchCutouts
10
111.2750
20
-64.1500
0
VERTEX
8
SwitchCutouts
10
98.2778
20
-64.1489
0
VERTEX
8
SwitchCutouts
10
98.1484
20
-64.1318
0
VERTEX
8
SwitchCutouts
10
98.0278
20
-64.0819
0
VERTEX
8
SwitchCutouts
10
97.9242
20
-64.0024
0
VERTEX
8
SwitchCutouts
10
97.8448
20
-63.8989
0
VERTEX
8
SwitchCutouts
10
97.7948
20
-63.7783
0
VERTEX
8
SwitchCutouts
10
97.7778
20
-63.6489
0
VERTEX
8
SwitchCutouts
10
97.7750
20
-50.6500
0
VERTEX
8
SwitchCutouts
10
97.7920
20
-50.5206
0
VERTEX
8
SwitchCutouts
10
97.8420
20
-50.4000
0
VERTEX
8
SwitchCutouts
10
97.9214
20
-50.2964
0
VERTEX
8
SwitchCutouts
10
98.0250
20
-50.2170
0
VERTEX
8
SwitchCutouts
10
98.1456
20
-50.1670
0
VERTEX
8
SwitchCutouts
10
98.2750
20
-50.1500
0
VERTEX
8
SwitchCutouts
10
111.2750
20
-50.1500
0
VERTEX
8
SwitchCutouts
10
111.4044
20
-50.1670
0
VERTEX
8
SwitchCutouts
10
111.5250
20
-50.2170
0
VERTEX
8
SwitchCutouts
10
111.6286
20
-50.2964
0
VERTEX
8
SwitchCutouts
10
111.7080
20
-50.4000
0
VERTEX
8
SwitchCutouts
10
111.7580
20
-50.5206
0
VERTEX
8
SwitchCutouts
10
111.7750
20
-50.6500
0
VERTEX
8
SwitchCutouts
10
111.7750
20
-63.6500
0
VERTEX
8
SwitchCutouts
10
111.7580
20
-63.7794
0
VERTEX
8
SwitchCutouts
10
111.7080
20
-63.9000
0
VERTEX
8
SwitchCutouts
10
111.6286
20
-64.0036
0
VERTEX
8
SwitchCutouts
10
111.5250
20
-64.0830
0
VERTEX
8
SwitchCutouts
10
111.4044
20
-64.1330
0
VERTEX
8
SwitchCutouts
10
111.2750
20
-64.1500
0
SEQEND
0
POLYLINE
8
SwitchCutouts
66
1
70
1
0
VERTEX
8
SwitchCutouts
10
130.3250
20
-64.1500
0
VERTEX
8
SwitchCutouts
10
117.3278
20
-64.1489
0
VERTEX
8
SwitchCutouts
10
117.1984
20
-64.1318
0
VERTEX
8
SwitchCutouts
10
117.0778
20
-64.0819
0
VERTEX
8
SwitchCutouts
10
116.9742
20
-64.0024
0
VERTEX
8
SwitchCutouts
10
116.8948
20
-63.8989
0
VERTEX
8
SwitchCutouts
10
116.8448
20
-63.7783
0
VERTEX
8
SwitchCutouts
10
116.8278
20
-63.6489
0
VERTEX
8
SwitchCutouts
10
116.8250
20
-50.6500
0
VERTEX
8
SwitchCutouts
10
116.8420
20
-50.5206
0
VERTEX
8
SwitchCutouts
10
116.8920
20
-50.4000
0
VERTEX
8
SwitchCutouts
10
116.9714
20
-50.2964
0
VERTEX
8
SwitchCutouts
10
117.0750
20
-50.2170
0
VERTEX
8
SwitchCutouts
10
117.1956
20
-50.1670
0
VERTEX
8
SwitchCutouts
10
117.3250
20
-50.1500
0
VERTEX
8
SwitchCutouts
10
130.3250
20
-50.1500
0
VERTEX
8
SwitchCutouts
10
130.4544
20
-50.1670
0
VERTEX
8
SwitchCutouts
10
130.5750
20
-50.2170
0
VERTEX
8
SwitchCutouts
10
130.6786
20
-50.2964
0
VERTEX
8
SwitchCutouts
10
130.7580
20
-50.4000
0
VERTEX
8
SwitchCutouts
10
130.8080
20
-50.5206
0
VERTEX
8
SwitchCutouts
10
130.8250
20
-50.6500
0
VERTEX
8
SwitchCutouts
10
130.8250
20
-63.6500
0
VERTEX
8
SwitchCutouts
10
130.8080
20
-63.7794
0
VERTEX
8
SwitchCutouts
10
130.7580
20
-63.9000
0
VERTEX
8
SwitchCutouts
10
130.6786
20
-64.0036
0
VERTEX
8
SwitchCutouts
10
130.5750
20
-64.0830
0
VERTEX
8
SwitchCutouts
10
130.4544
20
-64.1330
0
VERTEX
8
SwitchCutouts
10
130.3250
20
-64.1500
0
SEQEND
0
POLYLINE
8
SwitchCutouts
66
1
70
1
0
VERTEX
8
SwitchCutouts
10
149.3750
20
-64.1500
0
VERTEX
8
SwitchCutouts
10
136.3778
20
-64.1489
0
VERTEX
8
SwitchCutouts
10
136.2484
20
-64.1318
0
VERTEX
8
SwitchCutouts
10
136.1278
20
-64.0819
0
VERTEX
8
SwitchCutouts
10
136.0242
20
-64.0024
0
VERTEX
8
SwitchCutouts
10
135.9448
20
-63.8989
0
VERTEX
8
SwitchCutouts
10
135.8948
20
-63.7783
0
VERTEX
8
SwitchCutouts
10
135.8778
20
-63.6489
0
VERTEX
8
SwitchCutouts
10
135.8750
20
-50.6500
0
VERTEX
8
SwitchCutouts
10
135.8920
20
-50.5206
0
VERTEX
8
SwitchCutouts
10
135.9420
20
-50.4000
0
VERTEX
8
SwitchCutouts
10
136.0214
20
-50.2964
0
VERTEX
8
SwitchCutouts
10
136.1250
20
-50.2170
0
VERTEX
8
SwitchCutouts
10
136.2456
20
-50.1670
0
VERTEX
8
SwitchCutouts
10
136.3750
20
-50.1500
0
VERTEX
8
SwitchCutouts
10
149.3750
20
-50.1500
0
VERTEX
8
SwitchCutouts
10
149.5044
20
-50.1670
0
VERTEX
8
SwitchCutouts
10
149.6250
20
-50.2170
0
VERTEX
8
SwitchCutouts
10
149.7286
20
-50.2964
0
VERTEX
8
SwitchCutouts
10
149.8080
20
-50.4000
0
VERTEX
8
SwitchCutouts
10
149.8580
20
-50.5206
0
VERTEX
8
SwitchCutouts
10
149.8750
20
-50.6500
0
VERTEX
8
SwitchCutouts
10
149.8750
20
-63.6500
0
VERTEX
8
SwitchCutouts
10
149.8580
20
-63.7794
0
VERTEX
8
SwitchCutouts
10
149.8080
20
-63.9000
0
VERTEX
8
SwitchCutouts
10
149.7286
20
-64.0036
0
VERTEX
8
SwitchCutouts
10
149.6250
20
-64.0830
0
VERTEX
8
SwitchCutouts
10
149.5044
20
-64.1330
0
VERTEX
8
SwitchCutouts
10
149.3750
20
-64.1500
0
SEQEND
0
POLYLINE
8
SwitchCutouts
66
1
70
1
0
VERTEX
8
SwitchCutouts
10
168.4250
20
-64.1500
0
VERTEX
8
SwitchCutouts
10
155.4278
20
-64.1489
0
VERTEX
8
SwitchCutouts
10
155.2984
20
-64.1318
0
VERTEX
8
SwitchCutouts
10
155.1778
20
-64.0819
0
VERTEX
8
SwitchCutouts
10
155.0742
20
-64.0024
0
VERTEX
8
SwitchCutouts
10
154.9948
20
-63.8989
0
VERTEX
8
SwitchCutouts
10
154.9448
20
-63.7783
0
VERTEX
8
SwitchCutouts
10
154.9278
20
-63.6489
0
VERTEX
8
SwitchCutouts
10
154.9250
20
-50.6500
0
VERTEX
8
SwitchCutouts
10
154.9420
20
-50.5206
0
VERTEX
8
SwitchCutouts
10
154.9920
20
-50.4000
0
VERTEX
8
SwitchCutouts
10
155.0714
20
-50.2964
0
VERTEX
8
SwitchCutouts
10
155.1750
20
-50.2170
0
VERTEX
8
SwitchCutouts
10
155.2956
20
-50.1670
0
VERTEX
8
SwitchCutouts
10
155.4250
20
-50.1500
0
VERTEX
8
SwitchCutouts
10
168.4250
20
-50.1500
0
VERTEX
8
SwitchCutouts
10
168.5544
20
-50.1670
0
VERTEX
8
SwitchCutouts
10
168.6750
20
-50.2170
0
VERTEX
8
SwitchCutouts
10
168.7786
20
-50.2964
0
VERTEX
8
SwitchCutouts
10
168.8580
20
-50.4000
0
VERTEX
8
SwitchCutouts
10
168.9080
20
-50.5206
0
VERTEX
8
SwitchCutouts
10
168.9250
20
-50.6500
0
VERTEX
8
SwitchCutouts
10
168.9250
20
-63.6500
0
VERTEX
8
SwitchCutouts
10
168.9080
20
-63.7794
0
VERTEX
8
SwitchCutouts
10
168.8580
20
-63.9000
0
VERTEX
8
SwitchCutouts
10
168.7786
20
-64.0036
0
VERTEX
8
SwitchCutouts
10
168.6750
20
-64.0830
0
VERTEX
8
SwitchCutouts
10
168.5544
20
-64.1330
0
VERTEX
8
SwitchCutouts
10
168.4250
20
-64.1500
0
SEQEND
0
POLYLINE
8
SwitchCutouts
66
1
70
1
0
VERTEX
8
SwitchCutouts
10
187.4750
20
-64.1500
0
VERTEX
8
SwitchCutouts
10
174.4778
20
-64.1489
0
VERTEX
8
SwitchCutouts
10
174.3484
20
-64.1318
0
VERTEX
8
SwitchCutouts
10
174.2278
20
-64.0819
0
VERTEX
8
SwitchCutouts
10
174.1242
20
-64.0024
0
VERTEX
8
SwitchCutouts
10
174.0448
20
-63.8989
0
VERTEX
8
SwitchCutouts
10
173.9948
20
-63.7783
0
VERTEX
8
SwitchCutouts
10
173.9778
20
-63.6489
0
VERTEX
8
SwitchCutouts
10
173.9750
20
-50.6500
0
VERTEX
8
SwitchCutouts
10
173.9920
20
-50.5206
0
VERTEX
8
SwitchCutouts
10
174.0420
20
-50.4000
0
VERTEX
8
SwitchCutouts
10
174.1214
20
-50.2964
0
VERTEX
8
SwitchCutouts
10
174.2250
20
-50.2170
0
VERTEX
8
SwitchCutouts
10
174.3456
20
-50.1670
0
VERTEX
8
SwitchCutouts
10
174.4750
20
-50.1500
0
VERTEX
8
SwitchCutouts
10
187.4750
20
-50.1500
0
VERTEX
8
SwitchCutouts
10
187.6044
20
-50.1670
0
VERTEX
8
SwitchCutouts
10
187.7250
20
-50.2170
0
VERTEX
8
SwitchCutouts
10
187.8286
20
-50.2964
0
VERTEX
8
SwitchCutouts
10
187.9080
20
-50.4000
0
VERTEX
8
SwitchCutouts
10
187.9580
20
-50.5206
0
VERTEX
8
SwitchCutouts
10
187.9750
20
-50.6500
0
VERTEX
8
SwitchCutouts
10
187.9750
20
-63.6500
0
VERTEX
8
SwitchCutouts
10
187.9580
20
-63.7794
0
VERTEX
8
SwitchCutouts
10
187.9080
20
-63.9000
0
VERTEX
8
SwitchCutouts
10
187.8286
20
-64.0036
0
VERTEX
8
SwitchCutouts
10
187.7250
20
-64.0830
0
VERTEX
8
SwitchCutouts
10
187.6044
20
-64.1330
0
VERTEX
8
SwitchCutouts
10
187.4750
20
-64.1500
0
SEQEND
0
POLYLINE
8
SwitchCutouts
66
1
70
1
0
VERTEX
8
SwitchCutouts
10
58.8875
20
-83.2000
0
VERTEX
8
SwitchCutouts
10
45.8903
20
-83.1989
0
VERTEX
8
SwitchCutouts
10
45.7609
20
-83.1818
0
VERTEX
8
SwitchCutouts
10
45.6403
20
-83.1319
0
VERTEX
8
SwitchCutouts
10
45.5367
20
-83.0524
0
VERTEX
8
SwitchCutouts
10
45.4573
20
-82.9489
0
VERTEX
8
SwitchCutouts
10
45.4073
20
-82.8283
0
VERTEX
8
SwitchCutouts
10
45.3903
20
-82.6989
0
VERTEX
8
SwitchCutouts
10
45.3875
20
-69.7000
0
VERTEX
8
SwitchCutouts
10
45.4045
20
-69.5706
0
VERTEX
8
SwitchCutouts
10
45.4545
20
-69.4500
0
VERTEX
8
SwitchCutouts
10
45.5339
20
-69.3464
0
VERTEX
8
SwitchCutouts
10
45.6375
20
-69.2670
0
VERTEX
8
SwitchCutouts
10
45.7581
20
-69.2170
0
VERTEX
8
SwitchCutouts
10
45.8875
20
-69.2000
0
VERTEX
8
SwitchCutouts
10
58.8875
20
-69.2000
0
VERTEX
8
SwitchCutouts
10
59.0169
20
-69.2170
0
VERTEX
8
SwitchCutouts
10
59.1375
20
-69.2670
0
VERTEX
8
SwitchCutouts
10
59.2411
20
-69.3464
0
VERTEX
8
SwitchCutouts
10
59.3205
20
-69.4500
0
VERTEX
8
SwitchCutouts
10
59.3705
20
-69.5706
0
VERTEX
8
SwitchCutouts
10
59.3875
20
-69.7000
0
VERTEX
8
SwitchCutouts
10
59.3875
20
-82.7000
0
VERTEX
8
SwitchCutouts
10
59.3705
20
-82.8294
0
VERTEX
8
SwitchCutouts
10
59.3205
20
-82.9500
0
VERTEX
8
SwitchCutouts
10
59.2411
20
-83.0536
0
VERTEX
8
SwitchCutouts
10
59.1375
20
-83.1330
0
VERTEX
8
SwitchCutouts
10
59.0169
20
-83.1830
0
VERTEX
8
SwitchCutouts
10
58.8875
20
-83.2000
0
SEQEND
0
POLYLINE
8
SwitchCutouts
66
1
70
1
0
VERTEX
8
SwitchCutouts
10
77.9375
20
-83.2000
0
VERTEX
8
SwitchCutouts
10
64.9403
20
-83.1989
0
VERTEX
8
SwitchCutouts
10
64.8109
20
-83.1818
0
VERTEX
8
SwitchCutouts
10
64.6903
20
-83.1319
0
VERTEX
8
SwitchCutouts
10
64.5867
20
-83.0524
0
VERTEX
8
SwitchCutouts
10
64.5073
20
-82.9489
0
VERTEX
8
SwitchCutouts
10
64.4573
20
-82.8283
0
VERTEX
8
SwitchCutouts
10
64.4403
20
-82.6989
0
VERTEX
8
SwitchCutouts
10
64.4375
20
-69.7000
0
VERTEX
8
SwitchCutouts
10
64.4545
20
-69.5706
0
VERTEX
8
SwitchCutouts
10
64.5045
20
-69.4500
0
VERTEX
8
SwitchCutouts
10
64.5839
20
-69.3464
0
VERTEX
8
SwitchCutouts
10
64.6875
20
-69.2670
0
VERTEX
8
SwitchCutouts
10
64.8081
20
-69.2170
0
VERTEX
8
SwitchCutouts
10
64.9375
20
-69.2000
0
VERTEX
8
SwitchCutouts
10
77.9375
20
-69.2000
0
VERTEX
8
SwitchCutouts
10
78.0669
20
-69.2170
0
VERTEX
8
SwitchCutouts
10
78.1875
20
-69.2670
0
VERTEX
8
SwitchCutouts
10
78.2911
20
-69.3464
0
VERTEX
8
SwitchCutouts
10
78.3705
20
-69.4500
0
VERTEX
8
SwitchCutouts
10
78.4205
20
-69.5706
0
VERTEX
8
SwitchCutouts
10
78.4375
20
-69.7000
0
VERTEX
8
SwitchCutouts
10
78.4375
20
-82.7000
0
VERTEX
8
SwitchCutouts
10
78.4205
20
-82.8294
0
VERTEX
8
SwitchCutouts
10
78.3705
20
-82.9500
0
VERTEX
8
SwitchCutouts
10
78.2911
20
-83.0536
0
VERTEX
8
SwitchCutouts
10
78.1875
20
-83.1330
0
VERTEX
8
SwitchCutouts
10
78.0669
20
-83.1830
0
VERTEX
8
SwitchCutouts
10
77.9375
20
-83.2000
0
SEQEND
0
POLYLINE
8
SwitchCutouts
66
1
70
1
0
VERTEX
8
SwitchCutouts
10
96.9875
20
-83.2000
0
VERTEX
8
SwitchCutouts
10
83.9903
20
-83.1989
0
VERTEX
8
SwitchCutouts
10
83.8609
20
-83.1818
0
VERTEX
8
SwitchCutouts
10
83.7403
20
-83.1319
0
VERTEX
8
SwitchCutouts
10
83.6367
20
-83.0524
0
VERTEX
8
SwitchCutouts
10
83.5573
20
-82.9489
0
VERTEX
8
SwitchCutouts
10
83.5073
20
-82.8283
0
VERTEX
8
SwitchCutouts
10
83.4903
20
-82.6989
0
VERTEX
8
SwitchCutouts
10
83.4875
20
-69.7000
0
VERTEX
8
SwitchCutouts
10
83.5045
20
-69.5706
0
VERTEX
8
SwitchCutouts
10
83.5545
20
-69.4500
0
VERTEX
8
SwitchCutouts
10
83.6339
20
-69.3464
0
VERTEX
8
SwitchCutouts
10
83.7375
20
-69.2670
0
VERTEX
8
SwitchCutouts
10
83.8581
20
-69.2170
0
VERTEX
8
SwitchCutouts
10
83.9875
20
-69.2000
0
VERTEX
8
SwitchCutouts
10
96.9875
20
-69.2000
0
VERTEX
8
SwitchCutouts
10
97.1169
20
-69.2170
0
VERTEX
8
SwitchCutouts
10
97.2375
20
-69.2670
0
VERTEX
8
SwitchCutouts
10
97.3411
20
-69.3464
0
VERTEX
8
SwitchCutouts
10
97.4205
20
-69.4500
0
VERTEX
8
SwitchCutouts
10
97.4705
20
-69.5706
0
VERTEX
8
SwitchCutouts
10
97.4875
20
-69.7000
0
VERTEX
8
SwitchCutouts
10
97.4875
20
-82.7000
0
VERTEX
8
SwitchCutouts
10
97.4705
20
-82.8294
0
VERTEX
8
SwitchCutouts
10
97.4205
20
-82.9500
0
VERTEX
8
SwitchCutouts
10
97.3411
20
-83.0536
0
VERTEX
8
SwitchCutouts
10
97.2375
20
-83.1330
0
VERTEX
8
SwitchCutouts
10
97.1169
20
-83.1830
0
VERTEX
8
SwitchCutouts
10
96.9875
20
-83.2000
0
SEQEND
0
POLYLINE
8
SwitchCutouts
66
1
70
1
0
VERTEX
8
SwitchCutouts
10
116.0375
20
-83.2000
0
VERTEX
8
SwitchCutouts
10
103.0403
20
-83.1989
0
VERTEX
8
SwitchCutouts
10
102.9109
20
-83.1818
0
VERTEX
8
SwitchCutouts
10
102.7903
20
-83.1319
0
VERTEX
8
SwitchCutouts
10
102.6867
20
-83.0524
0
VERTEX
8
SwitchCutouts
10
102.6073
20
-82.9489
0
VERTEX
8
SwitchCutouts
10
102.5573
20
-82.8283
0
VERTEX
8
SwitchCutouts
10
102.5403
20
-82.6989
0
VERTEX
8
SwitchCutouts
10
102.5375
20
-69.7000
0
VERTEX
8
SwitchCutouts
10
102.5545
20
-69.5706
0
VERTEX
8
SwitchCutouts
10
102.6045
20
-69.4500
0
VERTEX
8
SwitchCutouts
10
102.6839
20
-69.3464
0
VERTEX
8
SwitchCutouts
10
102.7875
20
-69.2670
0
VERTEX
8
SwitchCutouts
10
102.9081
20
-69.2170
0
VERTEX
8
SwitchCutouts
10
103.0375
20
-69.2000
0
VERTEX
8
SwitchCutouts
10
116.0375
20
-69.2000
0
VERTEX
8
SwitchCutouts
10
116.1669
20
-69.2170
0
VERTEX
8
SwitchCutouts
10
116.2875
20
-69.2670
0
VERTEX
8
SwitchCutouts
10
116.3911
20
-69.3464
0
VERTEX
8
SwitchCutouts
10
116.4705
20
-69.4500
0
VERTEX
8
SwitchCutouts
10
116.5205
20
-69.5706
0
VERTEX
8
SwitchCutouts
10
116.5375
20
-69.7000
0
VERTEX
8
SwitchCutouts
10
116.5375
20
-82.7000
0
VERTEX
8
SwitchCutouts
10
116.5205
20
-82.8294
0
VERTEX
8
SwitchCutouts
10
116.4705
20
-82.9500
0
VERTEX
8
SwitchCutouts
10
116.3911
20
-83.0536
0
VERTEX
8
SwitchCutouts
10
116.2875
20
-83.1330
0
VERTEX
8
SwitchCutouts
10
116.1669
20
-83.1830
0
VERTEX
8
SwitchCutouts
10
116.0375
20
-83.2000
0
SEQEND
0
POLYLINE
8
SwitchCutouts
66
1
70
1
0
VERTEX
8
SwitchCutouts
10
82.7000
20
-45.1000
0
VERTEX
8
SwitchCutouts
10
69.7028
20
-45.0989
0
VERTEX
8
SwitchCutouts
10
69.5734
20
-45.0818
0
VERTEX
8
SwitchCutouts
10
69.4528
20
-45.0319
0
VERTEX
8
SwitchCutouts
10
69.3492
20
-44.9524
0
VERTEX
8
SwitchCutouts
10
69.2698
20
-44.8489
0
VERTEX
8
SwitchCutouts
10
69.2198
20
-44.7283
0
VERTEX
8
SwitchCutouts
10
69.2028
20
-44.5989
0
VERTEX
8
SwitchCutouts
10
69.2000
20
-31.6000
0
VERTEX
8
SwitchCutouts
10
69.2170
20
-31.4706
0
VERTEX
8
SwitchCutouts
10
69.2670
20
-31.3500
0
VERTEX
8
SwitchCutouts
10
69.3464
20
-31.2464
0
VERTEX
8
SwitchCutouts
10
69.4500
20
-31.1670
0
VERTEX
8
SwitchCutouts
10
69.5706
20
-31.1170
0
VERTEX
8
SwitchCutouts
10
69.7000
20
-31.1000
0
VERTEX
8
SwitchCutouts
10
82.7000
20
-31.1000
0
VERTEX
8
SwitchCutouts
10
82.8294
20
-31.1170
0
VERTEX
8
SwitchCutouts
10
82.9500
20
-31.1670
0
VERTEX
8
SwitchCutouts
10
83.0536
20
-31.2464
0
VERTEX
8
SwitchCutouts
10
83.1330
20
-31.3500
0
VERTEX
8
SwitchCutouts
10
83.1830
20
-31.4706
0
VERTEX
8
SwitchCutouts
10
83.2000
20
-31.6000
0
VERTEX
8
SwitchCutouts
10
83.2000
20
-44.6000
0
VERTEX
8
SwitchCutouts
10
83.1830
20
-44.7294
0
VERTEX
8
SwitchCutouts
10
83.1330
20
-44.8500
0
VERTEX
8
SwitchCutouts
10
83.0536
20
-44.9536
0
VERTEX
8
SwitchCutouts
10
82.9500
20
-45.0330
0
VERTEX
8
SwitchCutouts
10
82.8294
20
-45.0830
0
VERTEX
8
SwitchCutouts
10
82.7000
20
-45.1000
0
SEQEND
0
POLYLINE
8
SwitchCutouts
66
1
70
1
0
VERTEX
8
SwitchCutouts
10
135.0875
20
-83.2000
0
VERTEX
8
SwitchCutouts
10
122.0903
20
-83.1989
0
VERTEX
8
SwitchCutouts
10
121.9609
20
-83.1818
0
VERTEX
8
SwitchCutouts
10
121.8403
20
-83.1319
0
VERTEX
8
SwitchCutouts
10
121.7367
20
-83.0524
0
VERTEX
8
SwitchCutouts
10
121.6573
20
-82.9489
0
VERTEX
8
SwitchCutouts
10
121.6073
20
-82.8283
0
VERTEX
8
SwitchCutouts
10
121.5903
20
-82.6989
0
VERTEX
8
SwitchCutouts
10
121.5875
20
-69.7000
0
VERTEX
8
SwitchCutouts
10
121.6045
20
-69.5706
0
VERTEX
8
SwitchCutouts
10
121.6545
20
-69.4500
0
VERTEX
8
SwitchCutouts
10
121.7339
20
-69.3464
0
VERTEX
8
SwitchCutouts
10
121.8375
20
-69.2670
0
VERTEX
8
SwitchCutouts
10
121.9581
20
-69.2170
0
VERTEX
8
SwitchCutouts
10
122.0875
20
-69.2000
0
VERTEX
8
SwitchCutouts
10
135.0875
20
-69.2000
0
VERTEX
8
SwitchCutouts
10
135.2169
20
-69.2170
0
VERTEX
8
SwitchCutouts
10
135.3375
20
-69.2670
0
VERTEX
8
SwitchCutouts
10
135.4411
20
-69.3464
0
VERTEX
8
SwitchCutouts
10
135.5205
20
-69.4500
0
VERTEX
8
SwitchCutouts
10
135.5705
20
-69.5706
0
VERTEX
8
SwitchCutouts
10
135.5875
20
-69.7000
0
VERTEX
8
SwitchCutouts
10
135.5875
20
-82.7000
0
VERTEX
8
SwitchCutouts
10
135.5705
20
-82.8294
0
VERTEX
8
SwitchCutouts
10
135.5205
20
-82.9500
0
VERTEX
8
SwitchCutouts
10
135.4411
20
-83.0536
0
VERTEX
8
SwitchCutouts
10
135.3375
20
-83.1330
0
VERTEX
8
SwitchCutouts
10
135.2169
20
-83.1830
0
VERTEX
8
SwitchCutouts
10
135.0875
20
-83.2000
0
SEQEND
0
POLYLINE
8
SwitchCutouts
66
1
70
1
0
VERTEX
8
SwitchCutouts
10
154.1375
20
-83.2000
0
VERTEX
8
SwitchCutouts
10
141.1403
20
-83.1989
0
VERTEX
8
SwitchCutouts
10
141.0109
20
-83.1818
0
VERTEX
8
SwitchCutouts
10
140.8903
20
-83.1319
0
VERTEX
8
SwitchCutouts
10
140.7867
20
-83.0524
0
VERTEX
8
SwitchCutouts
10
140.7073
20
-82.9489
0
VERTEX
8
SwitchCutouts
10
140.6573
20
-82.8283
0
VERTEX
8
SwitchCutouts
10
140.6403
20
-82.6989
0
VERTEX
8
SwitchCutouts
10
140.6375
20
-69.7000
0
VERTEX
8
SwitchCutouts
10
140.6545
20
-69.5706
0
VERTEX
8
SwitchCutouts
10
140.7045
20
-69.4500
0
VERTEX
8
SwitchCutouts
10
140.7839
20
-69.3464
0
VERTEX
8
SwitchCutouts
10
140.8875
20
-69.2670
0
VERTEX
8
SwitchCutouts
10
141.0081
20
-69.2170
0
VERTEX
8
SwitchCutouts
10
141.1375
20
-69.2000
0
VERTEX
8
SwitchCutouts
10
154.1375
20
-69.2000
0
VERTEX
8
SwitchCutouts
10
154.2669
20
-69.2170
0
VERTEX
8
SwitchCutouts
10
154.3875
20
-69.2670
0
VERTEX
8
SwitchCutouts
10
154.4911
20
-69.3464
0
VERTEX
8
SwitchCutouts
10
154.5705
20
-69.4500
0
VERTEX
8
SwitchCutouts
10
154.6205
20
-69.5706
0
VERTEX
8
SwitchCutouts
10
154.6375
20
-69.7000
0
VERTEX
8
SwitchCutouts
10
154.6375
20
-82.7000
0
VERTEX
8
SwitchCutouts
10
154.6205
20
-82.8294
0
VERTEX
8
SwitchCutouts
10
154.5705
20
-82.9500
0
VERTEX
8
SwitchCutouts
10
154.4911
20
-83.0536
0
VERTEX
8
SwitchCutouts
10
154.3875
20
-83.1330
0
VERTEX
8
SwitchCutouts
10
154.2669
20
-83.1830
0
VERTEX
8
SwitchCutouts
10
154.1375
20
-83.2000
0
SEQEND
0
POLYLINE
8
SwitchCutouts
66
1
70
1
0
VERTEX
8
SwitchCutouts
10
180.3313
20
-83.2000
0
VERTEX
8
SwitchCutouts
10
167.3340
20
-83.1989
0
VERTEX
8
SwitchCutouts
10
167.2046
20
-83.1818
0
VERTEX
8
SwitchCutouts
10
167.0840
20
-83.1319
0
VERTEX
8
SwitchCutouts
10
166.9805
20
-83.0524
0
VERTEX
8
SwitchCutouts
10
166.9010
20
-82.9489
0
VERTEX
8
SwitchCutouts
10
166.8511
20
-82.8283
0
VERTEX
8
SwitchCutouts
10
166.8340
20
-82.6989
0
VERTEX
8
SwitchCutouts
10
166.8313
20
-69.7000
0
VERTEX
8
SwitchCutouts
10
166.8483
20
-69.5706
0
VERTEX
8
SwitchCutouts
10
166.8982
20
-69.4500
0
VERTEX
8
SwitchCutouts
10
166.9777
20
-69.3464
0
VERTEX
8
SwitchCutouts
10
167.0813
20
-69.2670
0
VERTEX
8
SwitchCutouts
10
167.2018
20
-69.2170
0
VERTEX
8
SwitchCutouts
10
167.3313
20
-69.2000
0
VERTEX
8
SwitchCutouts
10
180.3313
20
-69.2000
0
VERTEX
8
SwitchCutouts
10
180.4607
20
-69.2170
0
VERTEX
8
SwitchCutouts
10
180.5813
20
-69.2670
0
VERTEX
8
SwitchCutouts
10
180.6848
20
-69.3464
0
VERTEX
8
SwitchCutouts
10
180.7643
20
-69.4500
0
VERTEX
8
SwitchCutouts
10
180.8142
20
-69.5706
0
VERTEX
8
SwitchCutouts
10
180.8313
20
-69.7000
0
VERTEX
8
SwitchCutouts
10
180.8313
20
-82.7000
0
VERTEX
8
SwitchCutouts
10
180.8142
20
-82.8294
0
VERTEX
8
SwitchCutouts
10
180.7643
20
-82.9500
0
VERTEX
8
SwitchCutouts
10
180.6848
20
-83.0536
0
VERTEX
8
SwitchCutouts
10
180.5813
20
-83.1330
0
VERTEX
8
SwitchCutouts
10
180.4607
20
-83.1830
0
VERTEX
8
SwitchCutouts
10
180.3313
20
-83.2000
0
SEQEND
0
POLYLINE
8
SwitchCutouts
66
1
70
1
0
VERTEX
8
SwitchCutouts
10
49.3625
20
-102.2500
0
VERTEX
8
SwitchCutouts
10
36.3653
20
-102.2489
0
VERTEX
8
SwitchCutouts
10
36.2359
20
-102.2318
0
VERTEX
8
SwitchCutouts
10
36.1153
20
-102.1819
0
VERTEX
8
SwitchCutouts
10
36.0117
20
-102.1024
0
VERTEX
8
SwitchCutouts
10
35.9323
20
-101.9989
0
VERTEX
8
SwitchCutouts
10
35.8823
20
-101.8783
0
VERTEX
8
SwitchCutouts
10
35.8653
20
-101.7489
0
VERTEX
8
SwitchCutouts
10
35.8625
20
-88.7500
0
VERTEX
8
SwitchCutouts
10
35.8795
20
-88.6206
0
VERTEX
8
SwitchCutouts
10
35.9295
20
-88.5000
0
VERTEX
8
SwitchCutouts
10
36.0089
20
-88.3964
0
VERTEX
8
SwitchCutouts
10
36.1125
20
-88.3170
0
VERTEX
8
SwitchCutouts
10
36.2331
20
-88.2670
0
VERTEX
8
SwitchCutouts
10
36.3625
20
-88.2500
0
VERTEX
8
SwitchCutouts
10
49.3625
20
-88.2500
0
VERTEX
8
SwitchCutouts
10
49.4919
20
-88.2670
0
VERTEX
8
SwitchCutouts
10
49.6125
20
-88.3170
0
VERTEX
8
SwitchCutouts
10
49.7161
20
-88.3964
0
VERTEX
8
SwitchCutouts
10
49.7955
20
-88.5000
0
VERTEX
8
SwitchCutouts
10
49.8455
20
-88.6206
0
VERTEX
8
SwitchCutouts
10
49.8625
20
-88.7500
0
VERTEX
8
SwitchCutouts
10
49.8625
20
-101.7500
0
VERTEX
8
SwitchCutouts
10
49.8455
20
-101.8794
0
VERTEX
8
SwitchCutouts
10
49.7955
20
-102.0000
0
VERTEX
8
SwitchCutouts
10
49.7161
20
-102.1036
0
VERTEX
8
SwitchCutouts
10
49.6125
20
-102.1830
0
VERTEX
8
SwitchCutouts
10
49.4919
20
-102.2330
0
VERTEX
8
SwitchCutouts
10
49.3625
20
-102.2500
0
SEQEND
0
POLYLINE
8
SwitchCutouts
66
1
70
1
0
VERTEX
8
SwitchCutouts
10
68.4125
20
-102.2500
0
VERTEX
8
SwitchCutouts
10
55.4153
20
-102.2489
0
VERTEX
8
SwitchCutouts
10
55.2859
20
-102.2318
0
VERTEX
8
SwitchCutouts
10
55.1653
20
-102.1819
0
VERTEX
8
SwitchCutouts
10
55.0617
20
-102.1024
0
VERTEX
8
SwitchCutouts
10
54.9823
20
-101.9989
0
VERTEX
8
SwitchCutouts
10
54.9323
20
-101.8783
0
VERTEX
8
SwitchCutouts
10
54.9153
20
-101.7489
0
VERTEX
8
SwitchCutouts
10
54.9125
20
-88.7500
0
VERTEX
8
SwitchCutouts
10
54.9295
20
-88.6206
0
VERTEX
8
SwitchCutouts
10
54.9795
20
-88.5000
0
VERTEX
8
SwitchCutouts
10
55.0589
20
-88.3964
0
VERTEX
8
SwitchCutouts
10
55.1625
20
-88.3170
0
VERTEX
8
SwitchCutouts
10
55.2831
20
-88.2670
0
VERTEX
8
SwitchCutouts
10
55.4125
20
-88.2500
0
VERTEX
8
SwitchCutouts
10
68.4125
20
-88.2500
0
VERTEX
8
SwitchCutouts
10
68.5419
20
-88.2670
0
VERTEX
8
SwitchCutouts
10
68.6625
20
-88.3170
0
VERTEX
8
SwitchCutouts
10
68.7661
20
-88.3964
0
VERTEX
8
SwitchCutouts
10
68.8455
20
-88.5000
0
VERTEX
8
SwitchCutouts
10
68.8955
20
-88.6206
0
VERTEX
8
SwitchCutouts
10
68.9125
20
-88.7500
0
VERTEX
8
SwitchCutouts
10
68.9125
20
-101.7500
0
VERTEX
8
SwitchCutouts
10
68.8955
20
-101.8794
0
VERTEX
8
SwitchCutouts
10
68.8455
20
-102.0000
0
VERTEX
8
SwitchCutouts
10
68.7661
20
-102.1036
0
VERTEX
8
SwitchCutouts
10
68.6625
20
-102.1830
0
VERTEX
8
SwitchCutouts
10
68.5419
20
-102.2330
0
VERTEX
8
SwitchCutouts
10
68.4125
20
-102.2500
0
SEQEND
0
POLYLINE
8
SwitchCutouts
66
1
70
1
0
VERTEX
8
SwitchCutouts
10
87.4625
20
-102.2500
0
VERTEX
8
SwitchCutouts
10
74.4653
20
-102.2489
0
VERTEX
8
SwitchCutouts
10
74.3359
20
-102.2318
0
VERTEX
8
SwitchCutouts
10
74.2153
20
-102.1819
0
VERTEX
8
SwitchCutouts
10
74.1117
20
-102.1024
0
VERTEX
8
SwitchCutouts
10
74.0323
20
-101.9989
0
VERTEX
8
SwitchCutouts
10
73.9823
20
-101.8783
0
VERTEX
8
SwitchCutouts
10
73.9653
20
-101.7489
0
VERTEX
8
SwitchCutouts
10
73.9625
20
-88.7500
0
VERTEX
8
SwitchCutouts
10
73.9795
20
-88.6206
0
VERTEX
8
SwitchCutouts
10
74.0295
20
-88.5000
0
VERTEX
8
SwitchCutouts
10
74.1089
20
-88.3964
0
VERTEX
8
SwitchCutouts
10
74.2125
20
-88.3170
0
VERTEX
8
SwitchCutouts
10
74.3331
20
-88.2670
0
VERTEX
8
SwitchCutouts
10
74.4625
20
-88.2500
0
VERTEX
8
SwitchCutouts
10
87.4625
20
-88.2500
0
VERTEX
8
SwitchCutouts
10
87.5919
20
-88.2670
0
VERTEX
8
SwitchCutouts
10
87.7125
20
-88.3170
0
VERTEX
8
SwitchCutouts
10
87.8161
20
-88.3964
0
VERTEX
8
SwitchCutouts
10
87.8955
20
-88.5000
0
VERTEX
8
SwitchCutouts
10
87.9455
20
-88.6206
0
VERTEX
8
SwitchCutouts
10
87.9625
20
-88.7500
0
VERTEX
8
SwitchCutouts
10
87.9625
20
-101.7500
0
VERTEX
8
SwitchCutouts
10
87.9455
20
-101.8794
0
VERTEX
8
SwitchCutouts
10
87.8955
20
-102.0000
0
VERTEX
8
SwitchCutouts
10
87.8161
20
-102.1036
0
VERTEX
8
SwitchCutouts
10
87.7125
20
-102.1830
0
VERTEX
8
SwitchCutouts
10
87.5919
20
-102.2330
0
VERTEX
8
SwitchCutouts
10
87.4625
20
-102.2500
0
SEQEND
0
POLYLINE
8
SwitchCutouts
66
1
70
1
0
VERTEX
8
SwitchCutouts
10
106.5125
20
-102.2500
0
VERTEX
8
SwitchCutouts
10
93.5153
20
-102.2489
0
VERTEX
8
SwitchCutouts
10
93.3859
20
-102.2318
0
VERTEX
8
SwitchCutouts
10
93.2653
20
-102.1819
0
VERTEX
8
SwitchCutouts
10
93.1617
20
-102.1024
0
VERTEX
8
SwitchCutouts
10
93.0823
20
-101.9989
0
VERTEX
8
SwitchCutouts
10
93.0323
20
-101.8783
0
VERTEX
8
SwitchCutouts
10
93.0153
20
-101.7489
0
VERTEX
8
SwitchCutouts
10
93.0125
20
-88.7500
0
VERTEX
8
SwitchCutouts
10
93.0295
20
-88.6206
0
VERTEX
8
SwitchCutouts
10
93.0795
20
-88.5000
0
VERTEX
8
SwitchCutouts
10
93.1589
20
-88.3964
0
VERTEX
8
SwitchCutouts
10
93.2625
20
-88.3170
0
VERTEX
8
SwitchCutouts
10
93.3831
20
-88.2670
0
VERTEX
8
SwitchCutouts
10
93.5125
20
-88.2500
0
VERTEX
8
SwitchCutouts
10
106.5125
20
-88.2500
0
VERTEX
8
SwitchCutouts
10
106.6419
20
-88.2670
0
VERTEX
8
SwitchCutouts
10
106.7625
20
-88.3170
0
VERTEX
8
SwitchCutouts
10
106.8661
20
-88.3964
0
VERTEX
8
SwitchCutouts
10
106.9455
20
-88.5000
0
VERTEX
8
SwitchCutouts
10
106.9955
20
-88.6206
0
VERTEX
8
SwitchCutouts
10
107.0125
20
-88.7500
0
VERTEX
8
SwitchCutouts
10
107.0125
20
-101.7500
0
VERTEX
8
SwitchCutouts
10
106.9955
20
-101.8794
0
VERTEX
8
SwitchCutouts
10
106.9455
20
-102.0000
0
VERTEX
8
SwitchCutouts
10
106.8661
20
-102.1036
0
VERTEX
8
SwitchCutouts
10
106.7625
20
-102.1830
0
VERTEX
8
SwitchCutouts
10
106.6419
20
-102.2330
0
VERTEX
8
SwitchCutouts
10
106.5125
20
-102.2500
0
SEQEND
0
POLYLINE
8
SwitchCutouts
66
1
70
1
0
VERTEX
8
SwitchCutouts
10
125.5625
20
-102.2500
0
VERTEX
8
SwitchCutouts
10
112.5653
20
-102.2489
0
VERTEX
8
SwitchCutouts
10
112.4359
20
-102.2318
0
VERTEX
8
SwitchCutouts
10
112.3153
20
-102.1819
0
VERTEX
8
SwitchCutouts
10
112.2117
20
-102.1024
0
VERTEX
8
SwitchCutouts
10
112.1323
20
-101.9989
0
VERTEX
8
SwitchCutouts
10
112.0823
20
-101.8783
0
VERTEX
8
SwitchCutouts
10
112.0653
20
-101.7489
0
VERTEX
8
SwitchCutouts
10
112.0625
20
-88.7500
0
VERTEX
8
SwitchCutouts
10
112.0795
20
-88.6206
0
VERTEX
8
SwitchCutouts
10
112.1295
20
-88.5000
0
VERTEX
8
SwitchCutouts
10
112.2089
20
-88.3964
0
VERTEX
8
SwitchCutouts
10
112.3125
20
-88.3170
0
VERTEX
8
SwitchCutouts
10
112.4331
20
-88.2670
0
VERTEX
8
SwitchCutouts
10
112.5625
20
-88.2500
0
VERTEX
8
SwitchCutouts
10
125.5625
20
-88.2500
0
VERTEX
8
SwitchCutouts
10
125.6919
20
-88.2670
0
VERTEX
8
SwitchCutouts
10
125.8125
20
-88.3170
0
VERTEX
8
SwitchCutouts
10
125.9161
20
-88.3964
0
VERTEX
8
SwitchCutouts
10
125.9955
20
-88.5000
0
VERTEX
8
SwitchCutouts
10
126.0455
20
-88.6206
0
VERTEX
8
SwitchCutouts
10
126.0625
20
-88.7500
0
VERTEX
8
SwitchCutouts
10
126.0625
20
-101.7500
0
VERTEX
8
SwitchCutouts
10
126.0455
20
-101.8794
0
VERTEX
8
SwitchCutouts
10
125.9955
20
-102.0000
0
VERTEX
8
SwitchCutouts
10
125.9161
20
-102.1036
0
VERTEX
8
SwitchCutouts
10
125.8125
20
-102.1830
0
VERTEX
8
SwitchCutouts
10
125.6919
20
-102.2330
0
VERTEX
8
SwitchCutouts
10
125.5625
20
-102.2500
0
SEQEND
0
POLYLINE
8
SwitchCutouts
66
1
70
1
0
VERTEX
8
SwitchCutouts
10
144.6125
20
-102.2500
0
VERTEX
8
SwitchCutouts
10
131.6153
20
-102.2489
0
VERTEX
8
SwitchCutouts
10
131.4859
20
-102.2318
0
VERTEX
8
SwitchCutouts
10
131.3653
20
-102.1819
0
VERTEX
8
SwitchCutouts
10
131.2617
20
-102.1024
0
VERTEX
8
SwitchCutouts
10
131.1823
20
-101.9989
0
VERTEX
8
SwitchCutouts
10
131.1323
20
-101.8783
0
VERTEX
8
SwitchCutouts
10
131.1153
20
-101.7489
0
VERTEX
8
SwitchCutouts
10
131.1125
20
-88.7500
0
VERTEX
8
SwitchCutouts
10
131.1295
20
-88.6206
0
VERTEX
8
SwitchCutouts
10
131.1795
20
-88.5000
0
VERTEX
8
SwitchCutouts
10
131.2589
20
-88.3964
0
VERTEX
8
SwitchCutouts
10
131.3625
20
-88.3170
0
VERTEX
8
SwitchCutouts
10
131.4831
20
-88.2670
0
VERTEX
8
SwitchCutouts
10
131.6125
20
-88.2500
0
VERTEX
8
SwitchCutouts
10
144.6125
20
-88.2500
0
VERTEX
8
SwitchCutouts
10
144.7419
20
-88.2670
0
VERTEX
8
SwitchCutouts
10
144.8625
20
-88.3170
0
VERTEX
8
SwitchCutouts
10
144.9661
20
-88.3964
0
VERTEX
8
SwitchCutouts
10
145.0455
20
-88.5000
0
VERTEX
8
SwitchCutouts
10
145.0955
20
-88.6206
0
VERTEX
8
SwitchCutouts
10
145.1125
20
-88.7500
0
VERTEX
8
SwitchCutouts
10
145.1125
20
-101.7500
0
VERTEX
8
SwitchCutouts
10
145.0955
20
-101.8794
0
VERTEX
8
SwitchCutouts
10
145.0455
20
-102.0000
0
VERTEX
8
SwitchCutouts
10
144.9661
20
-102.1036
0
VERTEX
8
SwitchCutouts
10
144.8625
20
-102.1830
0
VERTEX
8
SwitchCutouts
10
144.7419
20
-102.2330
0
VERTEX
8
SwitchCutouts
10
144.6125
20
-102.2500
0
SEQEND
0
POLYLINE
8
SwitchCutouts
66
1
70
1
0
VERTEX
8
SwitchCutouts
10
163.6625
20
-102.2500
0
VERTEX
8
SwitchCutouts
10
150.6653
20
-102.2489
0
VERTEX
8
SwitchCutouts
10
150.5359
20
-102.2318
0
VERTEX
8
SwitchCutouts
10
150.4153
20
-102.1819
0
VERTEX
8
SwitchCutouts
10
150.3117
20
-102.1024
0
VERTEX
8
SwitchCutouts
10
150.2323
20
-101.9989
0
VERTEX
8
SwitchCutouts
10
150.1823
20
-101.8783
0
VERTEX
8
SwitchCutouts
10
150.1653
20
-101.7489
0
VERTEX
8
SwitchCutouts
10
150.1625
20
-88.7500
0
VERTEX
8
SwitchCutouts
10
150.1795
20
-88.6206
0
VERTEX
8
SwitchCutouts
10
150.2295
20
-88.5000
0
VERTEX
8
SwitchCutouts
10
150.3089
20
-88.3964
0
VERTEX
8
SwitchCutouts
10
150.4125
20
-88.3170
0
VERTEX
8
SwitchCutouts
10
150.5331
20
-88.2670
0
VERTEX
8
SwitchCutouts
10
150.6625
20
-88.2500
0
VERTEX
8
SwitchCutouts
10
163.6625
20
-88.2500
0
VERTEX
8
SwitchCutouts
10
163.7919
20
-88.2670
0
VERTEX
8
SwitchCutouts
10
163.9125
20
-88.3170
0
VERTEX
8
SwitchCutouts
10
164.0161
20
-88.3964
0
VERTEX
8
SwitchCutouts
10
164.0955
20
-88.5000
0
VERTEX
8
SwitchCutouts
10
164.1455
20
-88.6206
0
VERTEX
8
SwitchCutouts
10
164.1625
20
-88.7500
0
VERTEX
8
SwitchCutouts
10
164.1625
20
-101.7500
0
VERTEX
8
SwitchCutouts
10
164.1455
20
-101.8794
0
VERTEX
8
SwitchCutouts
10
164.0955
20
-102.0000
0
VERTEX
8
SwitchCutouts
10
164.0161
20
-102.1036
0
VERTEX
8
SwitchCutouts
10
163.9125
20
-102.1830
0
VERTEX
8
SwitchCutouts
10
163.7919
20
-102.2330
0
VERTEX
8
SwitchCutouts
10
163.6625
20
-102.2500
0
SEQEND
0
POLYLINE
8
SwitchCutouts
66
1
70
1
0
VERTEX
8
SwitchCutouts
10
101.7500
20
-45.1000
0
VERTEX
8
SwitchCutouts
10
88.7528
20
-45.0989
0
VERTEX
8
SwitchCutouts
10
88.6234
20
-45.0818
0
VERTEX
8
SwitchCutouts
10
88.5028
20
-45.0319
0
VERTEX
8
SwitchCutouts
10
88.3992
20
-44.9524
0
VERTEX
8
SwitchCutouts
10
88.3198
20
-44.8489
0
VERTEX
8
SwitchCutouts
10
88.2698
20
-44.7283
0
VERTEX
8
SwitchCutouts
10
88.2528
20
-44.5989
0
VERTEX
8
SwitchCutouts
10
88.2500
20
-31.6000
0
VERTEX
8
SwitchCutouts
10
88.2670
20
-31.4706
0
VERTEX
8
SwitchCutouts
10
88.3170
20
-31.3500
0
VERTEX
8
SwitchCutouts
10
88.3964
20
-31.2464
0
VERTEX
8
SwitchCutouts
10
88.5000
20
-31.1670
0
VERTEX
8
SwitchCutouts
10
88.6206
20
-31.1170
0
VERTEX
8
SwitchCutouts
10
88.7500
20
-31.1000
0
VERTEX
8
SwitchCutouts
10
101.7500
20
-31.1000
0
VERTEX
8
SwitchCutouts
10
101.8794
20
-31.1170
0
VERTEX
8
SwitchCutouts
10
102.0000
20
-31.1670
0
VERTEX
8
SwitchCutouts
10
102.1036
20
-31.2464
0
VERTEX
8
SwitchCutouts
10
102.1830
20
-31.3500
0
VERTEX
8
SwitchCutouts
10
102.2330
20
-31.4706
0
VERTEX
8
SwitchCutouts
10
102.2500
20
-31.6000
0
VERTEX
8
SwitchCutouts
10
102.2500
20
-44.6000
0
VERTEX
8
SwitchCutouts
10
102.2330
20
-44.7294
0
VERTEX
8
SwitchCutouts
10
102.1830
20
-44.8500
0
VERTEX
8
SwitchCutouts
10
102.1036
20
-44.9536
0
VERTEX
8
SwitchCutouts
10
102.0000
20
-45.0330
0
VERTEX
8
SwitchCutouts
10
101.8794
20
-45.0830
0
VERTEX
8
SwitchCutouts
10
101.7500
20
-45.1000
0
SEQEND
0
POLYLINE
8
SwitchCutouts
66
1
70
1
0
VERTEX
8
SwitchCutouts
10
185.0938
20
-102.2500
0
VERTEX
8
SwitchCutouts
10
172.0965
20
-102.2489
0
VERTEX
8
SwitchCutouts
10
171.9671
20
-102.2318
0
VERTEX
8
SwitchCutouts
10
171.8465
20
-102.1819
0
VERTEX
8
SwitchCutouts
10
171.7430
20
-102.1024
0
VERTEX
8
SwitchCutouts
10
171.6635
20
-101.9989
0
VERTEX
8
SwitchCutouts
10
171.6136
20
-101.8783
0
VERTEX
8
SwitchCutouts
10
171.5965
20
-101.7489
0
VERTEX
8
SwitchCutouts
10
171.5938
20
-88.7500
0
VERTEX
8
SwitchCutouts
10
171.6108
20
-88.6206
0
VERTEX
8
SwitchCutouts
10
171.6607
20
-88.5000
0
VERTEX
8
SwitchCutouts
10
171.7402
20
-88.3964
0
VERTEX
8
SwitchCutouts
10
171.8438
20
-88.3170
0
VERTEX
8
SwitchCutouts
10
171.9643
20
-88.2670
0
VERTEX
8
SwitchCutouts
10
172.0938
20
-88.2500
0
VERTEX
8
SwitchCutouts
10
185.0938
20
-88.2500
0
VERTEX
8
SwitchCutouts
10
185.2232
20
-88.2670
0
VERTEX
8
SwitchCutouts
10
185.3438
20
-88.3170
0
VERTEX
8
SwitchCutouts
10
185.4473
20
-88.3964
0
VERTEX
8
SwitchCutouts
10
185.5268
20
-88.5000
0
VERTEX
8
SwitchCutouts
10
185.5767
20
-88.6206
0
VERTEX
8
SwitchCutouts
10
185.5938
20
-88.7500
0
VERTEX
8
SwitchCutouts
10
185.5938
20
-101.7500
0
VERTEX
8
SwitchCutouts
10
185.5767
20
-101.8794
0
VERTEX
8
SwitchCutouts
10
185.5268
20
-102.0000
0
VERTEX
8
SwitchCutouts
10
185.4473
20
-102.1036
0
VERTEX
8
SwitchCutouts
10
185.3438
20
-102.1830
0
VERTEX
8
SwitchCutouts
10
185.2232
20
-102.2330
0
VERTEX
8
SwitchCutouts
10
185.0938
20
-102.2500
0
SEQEND
0
POLYLINE
8
SwitchCutouts
66
1
70
1
0
VERTEX
8
SwitchCutouts
10
99.3688
20
-121.3000
0
VERTEX
8
SwitchCutouts
10
86.3715
20
-121.2989
0
VERTEX
8
SwitchCutouts
10
86.2421
20
-121.2818
0
VERTEX
8
SwitchCutouts
10
86.1215
20
-121.2319
0
VERTEX
8
SwitchCutouts
10
86.0180
20
-121.1524
0
VERTEX
8
SwitchCutouts
10
85.9385
20
-121.0489
0
VERTEX
8
SwitchCutouts
10
85.8886
20
-120.9283
0
VERTEX
8
SwitchCutouts
10
85.8715
20
-120.7989
0
VERTEX
8
SwitchCutouts
10
85.8688
20
-107.8000
0
VERTEX
8
SwitchCutouts
10
85.8858
20
-107.6706
0
VERTEX
8
SwitchCutouts
10
85.9357
20
-107.5500
0
VERTEX
8
SwitchCutouts
10
86.0152
20
-107.4464
0
VERTEX
8
SwitchCutouts
10
86.1188
20
-107.3670
0
VERTEX
8
SwitchCutouts
10
86.2393
20
-107.3170
0
VERTEX
8
SwitchCutouts
10
86.3688
20
-107.3000
0
VERTEX
8
SwitchCutouts
10
99.3688
20
-107.3000
0
VERTEX
8
SwitchCutouts
10
99.4982
20
-107.3170
0
VERTEX
8
SwitchCutouts
10
99.6188
20
-107.3670
0
VERTEX
8
SwitchCutouts
10
99.7223
20
-107.4464
0
VERTEX
8
SwitchCutouts
10
99.8018
20
-107.5500
0
VERTEX
8
SwitchCutouts
10
99.8517
20
-107.6706
0
VERTEX
8
SwitchCutouts
10
99.8688
20
-107.8000
0
VERTEX
8
SwitchCutouts
10
99.8688
20
-120.8000
0
VERTEX
8
SwitchCutouts
10
99.8517
20
-120.9294
0
VERTEX
8
SwitchCutouts
10
99.8018
20
-121.0500
0
VERTEX
8
SwitchCutouts
10
99.7223
20
-121.1536
0
VERTEX
8
SwitchCutouts
10
99.6188
20
-121.2330
0
VERTEX
8
SwitchCutouts
10
99.4982
20
-121.2830
0
VERTEX
8
SwitchCutouts
10
99.3688
20
-121.3000
0
SEQEND
0
POLYLINE
8
SwitchCutouts
66
1
70
1
0
VERTEX
8
SwitchCutouts
10
123.1813
20
-121.3000
0
VERTEX
8
SwitchCutouts
10
110.1840
20
-121.2989
0
VERTEX
8
SwitchCutouts
10
110.0546
20
-121.2818
0
VERTEX
8
SwitchCutouts
10
109.9340
20
-121.2319
0
VERTEX
8
SwitchCutouts
10
109.8305
20
-121.1524
0
VERTEX
8
SwitchCutouts
10
109.7510
20
-121.0489
0
VERTEX
8
SwitchCutouts
10
109.7011
20
-120.9283
0
VERTEX
8
SwitchCutouts
10
109.6840
20
-120.7989
0
VERTEX
8
SwitchCutouts
10
109.6813
20
-107.8000
0
VERTEX
8
SwitchCutouts
10
109.6983
20
-107.6706
0
VERTEX
8
SwitchCutouts
10
109.7482
20
-107.5500
0
VERTEX
8
SwitchCutouts
10
109.8277
20
-107.4464
0
VERTEX
8
SwitchCutouts
10
109.9313
20
-107.3670
0
VERTEX
8
SwitchCutouts
10
110.0518
20
-107.3170
0
VERTEX
8
SwitchCutouts
10
110.1813
20
-107.3000
0
VERTEX
8
SwitchCutouts
10
123.1813
20
-107.3000
0
VERTEX
8
SwitchCutouts
10
123.3107
20
-107.3170
0
VERTEX
8
SwitchCutouts
10
123.4313
20
-107.3670
0
VERTEX
8
SwitchCutouts
10
123.5348
20
-107.4464
0
VERTEX
8
SwitchCutouts
10
123.6143
20
-107.5500
0
VERTEX
8
SwitchCutouts
10
123.6642
20
-107.6706
0
VERTEX
8
SwitchCutouts
10
123.6813
20
-107.8000
0
VERTEX
8
SwitchCutouts
10
123.6813
20
-120.8000
0
VERTEX
8
SwitchCutouts
10
123.6642
20
-120.9294
0
VERTEX
8
SwitchCutouts
10
123.6143
20
-121.0500
0
VERTEX
8
SwitchCutouts
10
123.5348
20
-121.1536
0
VERTEX
8
SwitchCutouts
10
123.4313
20
-121.2330
0
VERTEX
8
SwitchCutouts
10
123.3107
20
-121.2830
0
VERTEX
8
SwitchCutouts
10
123.1813
20
-121.3000
0
SEQEND
0
POLYLINE
8
SwitchCutouts
66
1
70
1
0
VERTEX
8
SwitchCutouts
10
144.6125
20
-121.3000
0
VERTEX
8
SwitchCutouts
10
131.6153
20
-121.2989
0
VERTEX
8
SwitchCutouts
10
131.4859
20
-121.2818
0
VERTEX
8
SwitchCutouts
10
131.3653
20
-121.2319
0
VERTEX
8
SwitchCutouts
10
131.2617
20
-121.1524
0
VERTEX
8
SwitchCutouts
10
131.1823
20
-121.0489
0
VERTEX
8
SwitchCutouts
10
131.1323
20
-120.9283
0
VERTEX
8
SwitchCutouts
10
131.1153
20
-120.7989
0
VERTEX
8
SwitchCutouts
10
131.1125
20
-107.8000
0
VERTEX
8
SwitchCutouts
10
131.1295
20
-107.6706
0
VERTEX
8
SwitchCutouts
10
131.1795
20
-107.5500
0
VERTEX
8
SwitchCutouts
10
131.2589
20
-107.4464
0
VERTEX
8
SwitchCutouts
10
131.3625
20
-107.3670
0
VERTEX
8
SwitchCutouts
10
131.4831
20
-107.3170
0
VERTEX
8
SwitchCutouts
10
131.6125
20
-107.3000
0
VERTEX
8
SwitchCutouts
10
144.6125
20
-107.3000
0
VERTEX
8
SwitchCutouts
10
144.7419
20
-107.3170
0
VERTEX
8
SwitchCutouts
10
144.8625
20
-107.3670
0
VERTEX
8
SwitchCutouts
10
144.9661
20
-107.4464
0
VERTEX
8
SwitchCutouts
10
145.0455
20
-107.5500
0
VERTEX
8
SwitchCutouts
10
145.0955
20
-107.6706
0
VERTEX
8
SwitchCutouts
10
145.1125
20
-107.8000
0
VERTEX
8
SwitchCutouts
10
145.1125
20
-120.8000
0
VERTEX
8
SwitchCutouts
10
145.0955
20
-120.9294
0
VERTEX
8
SwitchCutouts
10
145.0455
20
-121.0500
0
VERTEX
8
SwitchCutouts
10
144.9661
20
-121.1536
0
VERTEX
8
SwitchCutouts
10
144.8625
20
-121.2330
0
VERTEX
8
SwitchCutouts
10
144.7419
20
-121.2830
0
VERTEX
8
SwitchCutouts
10
144.6125
20
-121.3000
0
SEQEND
0
POLYLINE
8
SwitchCutouts
66
1
70
1
0
VERTEX
8
SwitchCutouts
10
163.6625
20
-121.3000
0
VERTEX
8
SwitchCutouts
10
150.6653
20
-121.2989
0
VERTEX
8
SwitchCutouts
10
150.5359
20
-121.2818
0
VERTEX
8
SwitchCutouts
10
150.4153
20
-121.2319
0
VERTEX
8
SwitchCutouts
10
150.3117
20
-121.1524
0
VERTEX
8
SwitchCutouts
10
150.2323
20
-121.0489
0
VERTEX
8
SwitchCutouts
10
150.1823
20
-120.9283
0
VERTEX
8
SwitchCutouts
10
150.1653
20
-120.7989
0
VERTEX
8
SwitchCutouts
10
150.1625
20
-107.8000
0
VERTEX
8
SwitchCutouts
10
150.1795
20
-107.6706
0
VERTEX
8
SwitchCutouts
10
150.2295
20
-107.5500
0
VERTEX
8
SwitchCutouts
10
150.3089
20
-107.4464
0
VERTEX
8
SwitchCutouts
10
150.4125
20
-107.3670
0
VERTEX
8
SwitchCutouts
10
150.5331
20
-107.3170
0
VERTEX
8
SwitchCutouts
10
150.6625
20
-107.3000
0
VERTEX
8
SwitchCutouts
10
163.6625
20
-107.3000
0
VERTEX
8
SwitchCutouts
10
163.7919
20
-107.3170
0
VERTEX
8
SwitchCutouts
10
163.9125
20
-107.3670
0
VERTEX
8
SwitchCutouts
10
164.0161
20
-107.4464
0
VERTEX
8
SwitchCutouts
10
164.0955
20
-107.5500
0
VERTEX
8
SwitchCutouts
10
164.1455
20
-107.6706
0
VERTEX
8
SwitchCutouts
10
164.1625
20
-107.8000
0
VERTEX
8
SwitchCutouts
10
164.1625
20
-120.8000
0
VERTEX
8
SwitchCutouts
10
164.1455
20
-120.9294
0
VERTEX
8
SwitchCutouts
10
164.0955
20
-121.0500
0
VERTEX
8
SwitchCutouts
10
164.0161
20
-121.1536
0
VERTEX
8
SwitchCutouts
10
163.9125
20
-121.2330
0
VERTEX
8
SwitchCutouts
10
163.7919
20
-121.2830
0
VERTEX
8
SwitchCutouts
10
163.6625
20
-121.3000
0
SEQEND
0
POLYLINE
8
SwitchCutouts
66
1
70
1
0
VERTEX
8
SwitchCutouts
10
182.7125
20
-121.3000
0
VERTEX
8
SwitchCutouts
10
169.7153
20
-121.2989
0
VERTEX
8
SwitchCutouts
10
169.5859
20
-121.2818
0
VERTEX
8
SwitchCutouts
10
169.4653
20
-121.2319
0
VERTEX
8
SwitchCutouts
10
169.3617
20
-121.1524
0
VERTEX
8
SwitchCutouts
10
169.2823
20
-121.0489
0
VERTEX
8
SwitchCutouts
10
169.2323
20
-120.9283
0
VERTEX
8
SwitchCutouts
10
169.2153
20
-120.7989
0
VERTEX
8
SwitchCutouts
10
169.2125
20
-107.8000
0
VERTEX
8
SwitchCutouts
10
169.2295
20
-107.6706
0
VERTEX
8
SwitchCutouts
10
169.2795
20
-107.5500
0
VERTEX
8
SwitchCutouts
10
169.3589
20
-107.4464
0
VERTEX
8
SwitchCutouts
10
169.4625
20
-107.3670
0
VERTEX
8
SwitchCutouts
10
169.5831
20
-107.3170
0
VERTEX
8
SwitchCutouts
10
169.7125
20
-107.3000
0
VERTEX
8
SwitchCutouts
10
182.7125
20
-107.3000
0
VERTEX
8
SwitchCutouts
10
182.8419
20
-107.3170
0
VERTEX
8
SwitchCutouts
10
182.9625
20
-107.3670
0
VERTEX
8
SwitchCutouts
10
183.0661
20
-107.4464
0
VERTEX
8
SwitchCutouts
10
183.1455
20
-107.5500
0
VERTEX
8
SwitchCutouts
10
183.1955
20
-107.6706
0
VERTEX
8
SwitchCutouts
10
183.2125
20
-107.8000
0
VERTEX
8
SwitchCutouts
10
183.2125
20
-120.8000
0
VERTEX
8
SwitchCutouts
10
183.1955
20
-120.9294
0
VERTEX
8
SwitchCutouts
10
183.1455
20
-121.0500
0
VERTEX
8
SwitchCutouts
10
183.0661
20
-121.1536
0
VERTEX
8
SwitchCutouts
10
182.9625
20
-121.2330
0
VERTEX
8
SwitchCutouts
10
182.8419
20
-121.2830
0
VERTEX
8
SwitchCutouts
10
182.7125
20
-121.3000
0
SEQEND
0
POLYLINE
8
SwitchCutouts
66
1
70
1
0
VERTEX
8
SwitchCutouts
10
55.7760
20
-126.7290
0
VERTEX
8
SwitchCutouts
10
46.5848
20
-135.9187
0
VERTEX
8
SwitchCutouts
10
46.4813
20
-135.9981
0
VERTEX
8
SwitchCutouts
10
46.3607
20
-136.0481
0
VERTEX
8
SwitchCutouts
10
46.2313
20
-136.0651
0
VERTEX
8
SwitchCutouts
10
46.1019
20
-136.0481
0
VERTEX
8
SwitchCutouts
10
45.9813
20
-135.9981
0
VERTEX
8
SwitchCutouts
10
45.8777
20
-135.9187
0
VERTEX
8
SwitchCutouts
10
36.6842
20
-126.7290
0
VERTEX
8
SwitchCutouts
10
36.6047
20
-126.6255
0
VERTEX
8
SwitchCutouts
10
36.5547
20
-126.5049
0
VERTEX
8
SwitchCutouts
10
36.5377
20
-126.3755
0
VERTEX
8
SwitchCutouts
10
36.5547
20
-126.2461
0
VERTEX
8
SwitchCutouts
10
36.6047
20
-126.1255
0
VERTEX
8
SwitchCutouts
10
36.6842
20
-126.0219
0
VERTEX
8
SwitchCutouts
10
45.8765
20
-116.8295
0
VERTEX
8
SwitchCutouts
10
45.9801
20
-116.7501
0
VERTEX
8
SwitchCutouts
10
46.1007
20
-116.7001
0
VERTEX
8
SwitchCutouts
10
46.2301
20
-116.6831
0
VERTEX
8
SwitchCutouts
10
46.3595
20
-116.7001
0
VERTEX
8
SwitchCutouts
10
46.4801
20
-116.7501
0
VERTEX
8
SwitchCutouts
10
46.5836
20
-116.8295
0
VERTEX
8
SwitchCutouts
10
55.7760
20
-126.0219
0
VERTEX
8
SwitchCutouts
10
55.8555
20
-126.1255
0
VERTEX
8
SwitchCutouts
10
55.9054
20
-126.2461
0
VERTEX
8
SwitchCutouts
10
55.9225
20
-126.3755
0
VERTEX
8
SwitchCutouts
10
55.9054
20
-126.5049
0
VERTEX
8
SwitchCutouts
10
55.8555
20
-126.6255
0
VERTEX
8
SwitchCutouts
10
55.7760
20
-126.7290
0
SEQEND
0
POLYLINE
8
SwitchCutouts
66
1
70
1
0
VERTEX
8
SwitchCutouts
10
73.4448
20
-125.9491
0
VERTEX
8
SwitchCutouts
10
60.8907
20
-122.5841
0
VERTEX
8
SwitchCutouts
10
60.7701
20
-122.5342
0
VERTEX
8
SwitchCutouts
10
60.6665
20
-122.4547
0
VERTEX
8
SwitchCutouts
10
60.5871
20
-122.3511
0
VERTEX
8
SwitchCutouts
10
60.5371
20
-122.2306
0
VERTEX
8
SwitchCutouts
10
60.5201
20
-122.1011
0
VERTEX
8
SwitchCutouts
10
60.5371
20
-121.9717
0
VERTEX
8
SwitchCutouts
10
63.8988
20
-109.4151
0
VERTEX
8
SwitchCutouts
10
63.9488
20
-109.2945
0
VERTEX
8
SwitchCutouts
10
64.0282
20
-109.1909
0
VERTEX
8
SwitchCutouts
10
64.1318
20
-109.1115
0
VERTEX
8
SwitchCutouts
10
64.2524
20
-109.0615
0
VERTEX
8
SwitchCutouts
10
64.3818
20
-109.0445
0
VERTEX
8
SwitchCutouts
10
64.5112
20
-109.0615
0
VERTEX
8
SwitchCutouts
10
77.0682
20
-112.4262
0
VERTEX
8
SwitchCutouts
10
77.1888
20
-112.4761
0
VERTEX
8
SwitchCutouts
10
77.2924
20
-112.5556
0
VERTEX
8
SwitchCutouts
10
77.3718
20
-112.6591
0
VERTEX
8
SwitchCutouts
10
77.4218
20
-112.7797
0
VERTEX
8
SwitchCutouts
10
77.4388
20
-112.9091
0
VERTEX
8
SwitchCutouts
10
77.4218
20
-113.0385
0
VERTEX
8
SwitchCutouts
10
74.0571
20
-125.5956
0
VERTEX
8
SwitchCutouts
10
74.0072
20
-125.7162
0
VERTEX
8
SwitchCutouts
10
73.9277
20
-125.8197
0
VERTEX
8
SwitchCutouts
10
73.8242
20
-125.8992
0
VERTEX
8
SwitchCutouts
10
73.7036
20
-125.9491
0
VERTEX
8
SwitchCutouts
10
73.5742
20
-125.9662
0
VERTEX
8
SwitchCutouts
10
73.4448
20
-125.9491
0
SEQEND
0
POLYLINE
8
SwitchCutouts
66
1
70
1
0
VERTEX
8
SwitchCutouts
10
120.8000
20
-45.1000
0
VERTEX
8
SwitchCutouts
10
107.8028
20
-45.0989
0
VERTEX
8
SwitchCutouts
10
107.6734
20
-45.0818
0
VERTEX
8
SwitchCutouts
10
107.5528
20
-45.0319
0
VERTEX
8
SwitchCutouts
10
107.4492
20
-44.9524
0
VERTEX
8
SwitchCutouts
10
107.3698
20
-44.8489
0
VERTEX
8
SwitchCutouts
10
107.3198
20
-44.7283
0
VERTEX
8
SwitchCutouts
10
107.3028
20
-44.5989
0
VERTEX
8
SwitchCutouts
10
107.3000
20
-31.6000
0
VERTEX
8
SwitchCutouts
10
107.3170
20
-31.4706
0
VERTEX
8
SwitchCutouts
10
107.3670
20
-31.3500
0
VERTEX
8
SwitchCutouts
10
107.4464
20
-31.2464
0
VERTEX
8
SwitchCutouts
10
107.5500
20
-31.1670
0
VERTEX
8
SwitchCutouts
10
107.6706
20
-31.1170
0
VERTEX
8
SwitchCutouts
10
107.8000
20
-31.1000
0
VERTEX
8
SwitchCutouts
10
120.8000
20
-31.1000
0
VERTEX
8
SwitchCutouts
10
120.9294
20
-31.1170
0
VERTEX
8
SwitchCutouts
10
121.0500
20
-31.1670
0
VERTEX
8
SwitchCutouts
10
121.1536
20
-31.2464
0
VERTEX
8
SwitchCutouts
10
121.2330
20
-31.3500
0
VERTEX
8
SwitchCutouts
10
121.2830
20
-31.4706
0
VERTEX
8
SwitchCutouts
10
121.3000
20
-31.6000
0
VERTEX
8
SwitchCutouts
10
121.3000
20
-44.6000
0
VERTEX
8
SwitchCutouts
10
121.2830
20
-44.7294
0
VERTEX
8
SwitchCutouts
10
121.2330
20
-44.8500
0
VERTEX
8
SwitchCutouts
10
121.1536
20
-44.9536
0
VERTEX
8
SwitchCutouts
10
121.0500
20
-45.0330
0
VERTEX
8
SwitchCutouts
10
120.9294
20
-45.0830
0
VERTEX
8
SwitchCutouts
10
120.8000
20
-45.1000
0
SEQEND
0
POLYLINE
8
SwitchCutouts
66
1
70
1
0
VERTEX
8
SwitchCutouts
10
139.8500
20
-45.1000
0
VERTEX
8
SwitchCutouts
10
126.8528
20
-45.0989
0
VERTEX
8
SwitchCutouts
10
126.7234
20
-45.0818
0
VERTEX
8
SwitchCutouts
10
126.6028
20
-45.0319
0
VERTEX
8
SwitchCutouts
10
126.4992
20
-44.9524
0
VERTEX
8
SwitchCutouts
10
126.4198
20
-44.8489
0
VERTEX
8
SwitchCutouts
10
126.3698
20
-44.7283
0
VERTEX
8
SwitchCutouts
10
126.3528
20
-44.5989
0
VERTEX
8
SwitchCutouts
10
126.3500
20
-31.6000
0
VERTEX
8
SwitchCutouts
10
126.3670
20
-31.4706
0
VERTEX
8
SwitchCutouts
10
126.4170
20
-31.3500
0
VERTEX
8
SwitchCutouts
10
126.4964
20
-31.2464
0
VERTEX
8
SwitchCutouts
10
126.6000
20
-31.1670
0
VERTEX
8
SwitchCutouts
10
126.7206
20
-31.1170
0
VERTEX
8
SwitchCutouts
10
126.8500
20
-31.1000
0
VERTEX
8
SwitchCutouts
10
139.8500
20
-31.1000
0
VERTEX
8
SwitchCutouts
10
139.9794
20
-31.1170
0
VERTEX
8
SwitchCutouts
10
140.1000
20
-31.1670
0
VERTEX
8
SwitchCutouts
10
140.2036
20
-31.2464
0
VERTEX
8
SwitchCutouts
10
140.2830
20
-31.3500
0
VERTEX
8
SwitchCutouts
10
140.3330
20
-31.4706
0
VERTEX
8
SwitchCutouts
10
140.3500
20
-31.6000
0
VERTEX
8
SwitchCutouts
10
140.3500
20
-44.6000
0
VERTEX
8
SwitchCutouts
10
140.3330
20
-44.7294
0
VERTEX
8
SwitchCutouts
10
140.2830
20
-44.8500
0
VERTEX
8
SwitchCutouts
10
140.2036
20
-44.9536
0
VERTEX
8
SwitchCutouts
10
140.1000
20
-45.0330
0
VERTEX
8
SwitchCutouts
10
139.9794
20
-45.0830
0
VERTEX
8
SwitchCutouts
10
139.8500
20
-45.1000
0
SEQEND
0
POLYLINE
8
SwitchCutouts
66
1
70
1
0
VERTEX
8
SwitchCutouts
10
158.9000
20
-45.1000
0
VERTEX
8
SwitchCutouts
10
145.9028
20
-45.0989
0
VERTEX
8
SwitchCutouts
10
145.7734
20
-45.0818
0
VERTEX
8
SwitchCutouts
10
145.6528
20
-45.0319
0
VERTEX
8
SwitchCutouts
10
145.5492
20
-44.9524
0
VERTEX
8
SwitchCutouts
10
145.4698
20
-44.8489
0
VERTEX
8
SwitchCutouts
10
145.4198
20
-44.7283
0
VERTEX
8
SwitchCutouts
10
145.4028
20
-44.5989
0
VERTEX
8
SwitchCutouts
10
145.4000
20
-31.6000
0
VERTEX
8
SwitchCutouts
10
145.4170
20
-31.4706
0
VERTEX
8
SwitchCutouts
10
145.4670
20
-31.3500
0
VERTEX
8
SwitchCutouts
10
145.5464
20
-31.2464
0
VERTEX
8
SwitchCutouts
10
145.6500
20
-31.1670
0
VERTEX
8
SwitchCutouts
10
145.7706
20
-31.1170
0
VERTEX
8
SwitchCutouts
10
145.9000
20
-31.1000
0
VERTEX
8
SwitchCutouts
10
158.9000
20
-31.1000
0
VERTEX
8
SwitchCutouts
10
159.0294
20
-31.1170
0
VERTEX
8
SwitchCutouts
10
159.1500
20
-31.1670
0
VERTEX
8
SwitchCutouts
10
159.2536
20
-31.2464
0
VERTEX
8
SwitchCutouts
10
159.3330
20
-31.3500
0
VERTEX
8
SwitchCutouts
10
159.3830
20
-31.4706
0
VERTEX
8
SwitchCutouts
10
159.4000
20
-31.6000
0
VERTEX
8
SwitchCutouts
10
159.4000
20
-44.6000
0
VERTEX
8
SwitchCutouts
10
159.3830
20
-44.7294
0
VERTEX
8
SwitchCutouts
10
159.3330
20
-44.8500
0
VERTEX
8
SwitchCutouts
10
159.2536
20
-44.9536
0
VERTEX
8
SwitchCutouts
10
159.1500
20
-45.0330
0
VERTEX
8
SwitchCutouts
10
159.0294
20
-45.0830
0
VERTEX
8
SwitchCutouts
10
158.9000
20
-45.1000
0
SEQEND
0
POLYLINE
8
SwitchCutouts
66
1
70
1
0
VERTEX
8
SwitchCutouts
10
182.7125
20
-45.1000
0
VERTEX
8
SwitchCutouts
10
169.7153
20
-45.0989
0
VERTEX
8
SwitchCutouts
10
169.5859
20
-45.0818
0
VERTEX
8
SwitchCutouts
10
169.4653
20
-45.0319
0
VERTEX
8
SwitchCutouts
10
169.3617
20
-44.9524
0
VERTEX
8
SwitchCutouts
10
169.2823
20
-44.8489
0
VERTEX
8
SwitchCutouts
10
169.2323
20
-44.7283
0
VERTEX
8
SwitchCutouts
10
169.2153
20
-44.5989
0
VERTEX
8
SwitchCutouts
10
169.2125
20
-31.6000
0
VERTEX
8
SwitchCutouts
10
169.2295
20
-31.4706
0
VERTEX
8
SwitchCutouts
10
169.2795
20
-31.3500
0
VERTEX
8
SwitchCutouts
10
169.3589
20
-31.2464
0
VERTEX
8
SwitchCutouts
10
169.4625
20
-31.1670
0
VERTEX
8
SwitchCutouts
10
169.5831
20
-31.1170
0
VERTEX
8
SwitchCutouts
10
169.7125
20
-31.1000
0
VERTEX
8
SwitchCutouts
10
182.7125
20
-31.1000
0
VERTEX
8
SwitchCutouts
10
182.8419
20
-31.1170
0
VERTEX
8
SwitchCutouts
10
182.9625
20
-31.1670
0
VERTEX
8
SwitchCutouts
10
183.0661
20
-31.2464
0
VERTEX
8
SwitchCutouts
10
183.1455
20
-31.3500
0
VERTEX
8
SwitchCutouts
10
183.1955
20
-31.4706
0
VERTEX
8
SwitchCutouts
10
183.2125
20
-31.6000
0
VERTEX
8
SwitchCutouts
10
183.2125
20
-44.6000
0
VERTEX
8
SwitchCutouts
10
183.1955
20
-44.7294
0
VERTEX
8
SwitchCutouts
10
183.1455
20
-44.8500
0
VERTEX
8
SwitchCutouts
10
183.0661
20
-44.9536
0
VERTEX
8
SwitchCutouts
10
182.9625
20
-45.0330
0
VERTEX
8
SwitchCutouts
10
182.8419
20
-45.0830
0
VERTEX
8
SwitchCutouts
10
182.7125
20
-45.1000
0
SEQEND
0
POLYLINE
8
SwitchCutouts
66
1
70
1
0
VERTEX
8
SwitchCutouts
10
54.1250
20
-64.1500
0
VERTEX
8
SwitchCutouts
10
41.1278
20
-64.1489
0
VERTEX
8
SwitchCutouts
10
40.9984
20
-64.1318
0
VERTEX
8
SwitchCutouts
10
40.8778
20
-64.0819
0
VERTEX
8
SwitchCutouts
10
40.7742
20
-64.0024
0
VERTEX
8
SwitchCutouts
10
40.6948
20
-63.8989
0
VERTEX
8
SwitchCutouts
10
40.6448
20
-63.7783
0
VERTEX
8
SwitchCutouts
10
40.6278
20
-63.6489
0
VERTEX
8
SwitchCutouts
10
40.6250
20
-50.6500
0
VERTEX
8
SwitchCutouts
10
40.6420
20
-50.5206
0
VERTEX
8
SwitchCutouts
10
40.6920
20
-50.4000
0
VERTEX
8
SwitchCutouts
10
40.7714
20
-50.2964
0
VERTEX
8
SwitchCutouts
10
40.8750
20
-50.2170
0
VERTEX
8
SwitchCutouts
10
40.9956
20
-50.1670
0
VERTEX
8
SwitchCutouts
10
41.1250
20
-50.1500
0
VERTEX
8
SwitchCutouts
10
54.1250
20
-50.1500
0
VERTEX
8
SwitchCutouts
10
54.2544
20
-50.1670
0
VERTEX
8
SwitchCutouts
10
54.3750
20
-50.2170
0
VERTEX
8
SwitchCutouts
10
54.4786
20
-50.2964
0
VERTEX
8
SwitchCutouts
10
54.5580
20
-50.4000
0
VERTEX
8
SwitchCutouts
10
54.6080
20
-50.5206
0
VERTEX
8
SwitchCutouts
10
54.6250
20
-50.6500
0
VERTEX
8
SwitchCutouts
10
54.6250
20
-63.6500
0
VERTEX
8
SwitchCutouts
10
54.6080
20
-63.7794
0
VERTEX
8
SwitchCutouts
10
54.5580
20
-63.9000
0
VERTEX
8
SwitchCutouts
10
54.4786
20
-64.0036
0
VERTEX
8
SwitchCutouts
10
54.3750
20
-64.0830
0
VERTEX
8
SwitchCutouts
10
54.2544
20
-64.1330
0
VERTEX
8
SwitchCutouts
10
54.1250
20
-64.1500
0
SEQEND
0
POLYLINE
8
SwitchCutouts
66
1
70
1
0
VERTEX
8
SwitchCutouts
10
73.1750
20
-64.1500
0
VERTEX
8
SwitchCutouts
10
60.1778
20
-64.1489
0
VERTEX
8
SwitchCutouts
10
60.0484
20
-64.1318
0
VERTEX
8
SwitchCutouts
10
59.9278
20
-64.0819
0
VERTEX
8
SwitchCutouts
10
59.8242
20
-64.0024
0
VERTEX
8
SwitchCutouts
10
59.7448
20
-63.8989
0
VERTEX
8
SwitchCutouts
10
59.6948
20
-63.7783
0
VERTEX
8
SwitchCutouts
10
59.6778
20
-63.6489
0
VERTEX
8
SwitchCutouts
10
59.6750
20
-50.6500
0
VERTEX
8
SwitchCutouts
10
59.6920
20
-50.5206
0
VERTEX
8
SwitchCutouts
10
59.7420
20
-50.4000
0
VERTEX
8
SwitchCutouts
10
59.8214
20
-50.2964
0
VERTEX
8
SwitchCutouts
10
59.9250
20
-50.2170
0
VERTEX
8
SwitchCutouts
10
60.0456
20
-50.1670
0
VERTEX
8
SwitchCutouts
10
60.1750
20
-50.1500
0
VERTEX
8
SwitchCutouts
10
73.1750
20
-50.1500
0
VERTEX
8
SwitchCutouts
10
73.3044
20
-50.1670
0
VERTEX
8
SwitchCutouts
10
73.4250
20
-50.2170
0
VERTEX
8
SwitchCutouts
10
73.5286
20
-50.2964
0
VERTEX
8
SwitchCutouts
10
73.6080
20
-50.4000
0
VERTEX
8
SwitchCutouts
10
73.6580
20
-50.5206
0
VERTEX
8
SwitchCutouts
10
73.6750
20
-50.6500
0
VERTEX
8
SwitchCutouts
10
73.6750
20
-63.6500
0
VERTEX
8
SwitchCutouts
10
73.6580
20
-63.7794
0
VERTEX
8
SwitchCutouts
10
73.6080
20
-63.9000
0
VERTEX
8
SwitchCutouts
10
73.5286
20
-64.0036
0
VERTEX
8
SwitchCutouts
10
73.4250
20
-64.0830
0
VERTEX
8
SwitchCutouts
10
73.3044
20
-64.1330
0
VERTEX
8
SwitchCutouts
10
73.1750
20
-64.1500
0
SEQEND
0
ENDSEC
0
EOF
