0
SECTION
2
ENTITIES
0
POLYLINE
8
EdgeCuts
66
1
70
1
0
VERTEX
8
EdgeCuts
10
47.8571
20
-0.0025
0
VERTEX
8
EdgeCuts
10
47.5743
20
-0.0432
0
VERTEX
8
EdgeCuts
10
47.3002
20
-0.1237
0
VERTEX
8
EdgeCuts
10
47.0403
20
-0.2424
0
VERTEX
8
EdgeCuts
10
46.7999
20
-0.3969
0
VERTEX
8
EdgeCuts
10
46.5840
20
-0.5840
0
VERTEX
8
EdgeCuts
10
46.3969
20
-0.7999
0
VERTEX
8
EdgeCuts
10
46.2424
20
-1.0403
0
VERTEX
8
EdgeCuts
10
46.1237
20
-1.3002
0
VERTEX
8
EdgeCuts
10
46.0432
20
-1.5743
0
VERTEX
8
EdgeCuts
10
46.0025
20
-1.8571
0
VERTEX
8
EdgeCuts
10
46.0025
20
-2.1429
0
VERTEX
8
EdgeCuts
10
46.0432
20
-2.4257
0
VERTEX
8
EdgeCuts
10
46.1237
20
-2.6998
0
VERTEX
8
EdgeCuts
10
46.2424
20
-2.9597
0
VERTEX
8
EdgeCuts
10
46.3969
20
-3.2001
0
VERTEX
8
EdgeCuts
10
46.5840
20
-3.4160
0
VERTEX
8
EdgeCuts
10
46.7999
20
-3.6031
0
VERTEX
8
EdgeCuts
10
47.0403
20
-3.7576
0
VERTEX
8
EdgeCuts
10
47.3002
20
-3.8763
0
VERTEX
8
EdgeCuts
10
47.5743
20
-3.9568
0
VERTEX
8
EdgeCuts
10
47.8571
20
-3.9975
0
VERTEX
8
EdgeCuts
10
48.1429
20
-3.9975
0
VERTEX
8
EdgeCuts
10
48.4257
20
-3.9568
0
VERTEX
8
EdgeCuts
10
48.6998
20
-3.8763
0
VERTEX
8
EdgeCuts
10
48.9597
20
-3.7576
0
VERTEX
8
EdgeCuts
10
49.2001
20
-3.6031
0
VERTEX
8
EdgeCuts
10
49.4160
20
-3.4160
0
VERTEX
8
EdgeCuts
10
49.6031
20
-3.2001
0
VERTEX
8
EdgeCuts
10
49.7576
20
-2.9597
0
VERTEX
8
EdgeCuts
10
49.8763
20
-2.6998
0
VERTEX
8
EdgeCuts
10
49.9568
20
-2.4257
0
VERTEX
8
EdgeCuts
10
49.9975
20
-2.1429
0
VERTEX
8
EdgeCuts
10
50.0000
20
-2.0000
0
VERTEX
8
EdgeCuts
10
50.0000
20
-33.0000
0
VERTEX
8
EdgeCuts
10
49.9975
20
-32.8571
0
VERTEX
8
EdgeCuts
10
49.9568
20
-32.5743
0
VERTEX
8
EdgeCuts
10
49.8763
20
-32.3002
0
VERTEX
8
EdgeCuts
10
49.7576
20
-32.0403
0
VERTEX
8
EdgeCuts
10
49.6031
20
-31.7999
0
VERTEX
8
EdgeCuts
10
49.4160
20
-31.5840
0
VERTEX
8
EdgeCuts
10
49.2001
20
-31.3969
0
VERTEX
8
EdgeCuts
10
48.9597
20
-31.2424
0
VERTEX
8
EdgeCuts
10
48.6998
20
-31.1237
0
VERTEX
8
EdgeCuts
10
48.4257
20
-31.0432
0
VERTEX
8
EdgeCuts
10
48.1429
20
-31.0025
0
VERTEX
8
EdgeCuts
10
47.8571
20
-31.0025
0
VERTEX
8
EdgeCuts
10
47.5743
20
-31.0432
0
VERTEX
8
EdgeCuts
10
47.3002
20
-31.1237
0
VERTEX
8
EdgeCuts
10
47.0403
20
-31.2424
0
VERTEX
8
EdgeCuts
10
46.7999
20
-31.3969
0
VERTEX
8
EdgeCuts
10
46.5840
20
-31.5840
0
VERTEX
8
EdgeCuts
10
46.3969
20
-31.7999
0
VERTEX
8
EdgeCuts
10
46.2424
20
-32.0403
0
VERTEX
8
EdgeCuts
10
46.1237
20
-32.3002
0
VERTEX
8
EdgeCuts
10
46.0432
20
-32.5743
0
VERTEX
8
EdgeCuts
10
46.0025
20
-32.8571
0
VERTEX
8
EdgeCuts
10
46.0025
20
-33.1429
0
VERTEX
8
EdgeCuts
10
46.0432
20
-33.4257
0
VERTEX
8
EdgeCuts
10
46.1237
20
-33.6998
0
VERTEX
8
EdgeCuts
10
46.2424
20
-33.9597
0
VERTEX
8
EdgeCuts
10
46.3969
20
-34.2001
0
VERTEX
8
EdgeCuts
10
46.5840
20
-34.4160
0
VERTEX
8
EdgeCuts
10
46.7999
20
-34.6031
0
VERTEX
8
EdgeCuts
10
47.0403
20
-34.7576
0
VERTEX
8
EdgeCuts
10
47.3002
20
-34.8763
0
VERTEX
8
EdgeCuts
10
47.5743
20
-34.9568
0
VERTEX
8
EdgeCuts
10
47.8571
20
-34.9975
0
VERTEX
8
EdgeCuts
10
48.0000
20
-35.0000
0
VERTEX
8
EdgeCuts
10
2.0000
20
-35.0000
0
VERTEX
8
EdgeCuts
10
2.1429
20
-34.9975
0
VERTEX
8
EdgeCuts
10
2.4257
20
-34.9568
0
VERTEX
8
EdgeCuts
10
2.6998
20
-34.8763
0
VERTEX
8
EdgeCuts
10
2.9597
20
-34.7576
0
VERTEX
8
EdgeCuts
10
3.2001
20
-34.6031
0
VERTEX
8
EdgeCuts
10
3.4160
20
-34.4160
0
VERTEX
8
EdgeCuts
10
3.6031
20
-34.2001
0
VERTEX
8
EdgeCuts
10
3.7576
20
-33.9597
0
VERTEX
8
EdgeCuts
10
3.8763
20
-33.6998
0
VERTEX
8
EdgeCuts
10
3.9568
20
-33.4257
0
VERTEX
8
EdgeCuts
10
3.9975
20
-33.1429
0
VERTEX
8
EdgeCuts
10
3.9975
20
-32.8571
0
VERTEX
8
EdgeCuts
10
3.9568
20
-32.5743
0
VERTEX
8
EdgeCuts
10
3.8763
20
-32.3002
0
VERTEX
8
EdgeCuts
10
3.7576
20
-32.0403
0
VERTEX
8
EdgeCuts
10
3.6031
20
-31.7999
0
VERTEX
8
EdgeCuts
10
3.4160
20
-31.5840
0
VERTEX
8
EdgeCuts
10
3.2001
20
-31.3969
0
VERTEX
8
EdgeCuts
10
2.9597
20
-31.2424
0
VERTEX
8
EdgeCuts
10
2.6998
20
-31.1237
0
VERTEX
8
EdgeCuts
10
2.4257
20
-31.0432
0
VERTEX
8
EdgeCuts
10
2.1429
20
-31.0025
0
VERTEX
8
EdgeCuts
10
1.8571
20
-31.0025
0
VERTEX
8
EdgeCuts
10
1.5743
20
-31.0432
0
VERTEX
8
EdgeCuts
10
1.3002
20
-31.1237
0
VERTEX
8
EdgeCuts
10
1.0403
20
-31.2424
0
VERTEX
8
EdgeCuts
10
0.7999
20
-31.3969
0
VERTEX
8
EdgeCuts
10
0.5840
20
-31.5840
0
VERTEX
8
EdgeCuts
10
0.3969
20
-31.7999
0
VERTEX
8
EdgeCuts
10
0.2424
20
-32.0403
0
VERTEX
8
EdgeCuts
10
0.1237
20
-32.3002
0
VERTEX
8
EdgeCuts
10
0.0432
20
-32.5743
0
VERTEX
8
EdgeCuts
10
0.0025
20
-32.8571
0
VERTEX
8
EdgeCuts
10
0.0000
20
-33.0000
0
VERTEX
8
EdgeCuts
10
0.0000
20
-2.0000
0
VERTEX
8
EdgeCuts
10
0.0025
20
-2.1429
0
VERTEX
8
EdgeCuts
10
0.0432
20
-2.4257
0
VERTEX
8
EdgeCuts
10
0.1237
20
-2.6998
0
VERTEX
8
EdgeCuts
10
0.2424
20
-2.9597
0
VERTEX
8
EdgeCuts
10
0.3969
20
-3.2001
0
VERTEX
8
EdgeCuts
10
0.5840
20
-3.4160
0
VERTEX
8
EdgeCuts
10
0.7999
20
-3.6031
0
VERTEX
8
EdgeCuts
10
1.0403
20
-3.7576
0
VERTEX
8
EdgeCuts
10
1.3002
20
-3.8763
0
VERTEX
8
EdgeCuts
10
1.5743
20
-3.9568
0
VERTEX
8
EdgeCuts
10
1.8571
20
-3.9975
0
VERTEX
8
EdgeCuts
10
2.1429
20
-3.9975
0
VERTEX
8
EdgeCuts
10
2.4257
20
-3.9568
0
VERTEX
8
EdgeCuts
10
2.6998
20
-3.8763
0
VERTEX
8
EdgeCuts
10
2.9597
20
-3.7576
0
VERTEX
8
EdgeCuts
10
3.2001
20
-3.6031
0
VERTEX
8
EdgeCuts
10
3.4160
20
-3.4160
0
VERTEX
8
EdgeCuts
10
3.6031
20
-3.2001
0
VERTEX
8
EdgeCuts
10
3.7576
20
-2.9597
0
VERTEX
8
EdgeCuts
10
3.8763
20
-2.6998
0
VERTEX
8
EdgeCuts
10
3.9568
20
-2.4257
0
VERTEX
8
EdgeCuts
10
3.9975
20
-2.1429
0
VERTEX
8
EdgeCuts
10
3.9975
20
-1.8571
0
VERTEX
8
EdgeCuts
10
3.9568
20
-1.5743
0
VERTEX
8
EdgeCuts
10
3.8763
20
-1.3002
0
VERTEX
8
EdgeCuts
10
3.7576
20
-1.0403
0
VERTEX
8
EdgeCuts
10
3.6031
20
-0.7999
0
VERTEX
8
EdgeCuts
10
3.4160
20
-0.5840
0
VERTEX
8
EdgeCuts
10
3.2001
20
-0.3969
0
VERTEX
8
EdgeCuts
10
2.9597
20
-0.2424
0
VERTEX
8
EdgeCuts
10
2.6998
20
-0.1237
0
VERTEX
8
EdgeCuts
10
2.4257
20
-0.0432
0
VERTEX
8
EdgeCuts
10
2.1429
20
-0.0025
0
VERTEX
8
EdgeCuts
10
2.0000
20
-0.0000
0
VERTEX
8
EdgeCuts
10
48.0000
20
-0.0000
0
SEQEND
0
ENDSEC
0
EOF
