0
SECTION
2
ENTITIES
0
POLYLINE
8
EdgeCuts
66
1
70
1
0
VERTEX
8
EdgeCuts
10
33.1429
20
-0.0025
0
VERTEX
8
EdgeCuts
10
33.4257
20
-0.0432
0
VERTEX
8
EdgeCuts
10
33.6998
20
-0.1237
0
VERTEX
8
EdgeCuts
10
33.9597
20
-0.2424
0
VERTEX
8
EdgeCuts
10
34.2001
20
-0.3969
0
VERTEX
8
EdgeCuts
10
34.4160
20
-0.5840
0
VERTEX
8
EdgeCuts
10
34.6031
20
-0.7999
0
VERTEX
8
EdgeCuts
10
34.7576
20
-1.0403
0
VERTEX
8
EdgeCuts
10
34.8763
20
-1.3002
0
VERTEX
8
EdgeCuts
10
34.9568
20
-1.5743
0
VERTEX
8
EdgeCuts
10
34.9975
20
-1.8571
0
VERTEX
8
EdgeCuts
10
35.0000
20
-2.0000
0
VERTEX
8
EdgeCuts
10
35.0000
20
-55.0000
0
VERTEX
8
EdgeCuts
10
34.9975
20
-55.1429
0
VERTEX
8
EdgeCuts
10
34.9568
20
-55.4257
0
VERTEX
8
EdgeCuts
10
34.8763
20
-55.6998
0
VERTEX
8
EdgeCuts
10
34.7576
20
-55.9597
0
VERTEX
8
EdgeCuts
10
34.6031
20
-56.2001
0
VERTEX
8
EdgeCuts
10
34.4160
20
-56.4160
0
VERTEX
8
EdgeCuts
10
34.2001
20
-56.6031
0
VERTEX
8
EdgeCuts
10
33.9597
20
-56.7576
0
VERTEX
8
EdgeCuts
10
33.6998
20
-56.8763
0
VERTEX
8
EdgeCuts
10
33.4257
20
-56.9568
0
VERTEX
8
EdgeCuts
10
33.1429
20
-56.9975
0
VERTEX
8
EdgeCuts
10
33.0000
20
-57.0000
0
VERTEX
8
EdgeCuts
10
2.0000
20
-57.0000
0
VERTEX
8
EdgeCuts
10
1.8571
20
-56.9975
0
VERTEX
8
EdgeCuts
10
1.5743
20
-56.9568
0
VERTEX
8
EdgeCuts
10
1.3002
20
-56.8763
0
VERTEX
8
EdgeCuts
10
1.0403
20
-56.7576
0
VERTEX
8
EdgeCuts
10
0.7999
20
-56.6031
0
VERTEX
8
EdgeCuts
10
0.5840
20
-56.4160
0
VERTEX
8
EdgeCuts
10
0.3969
20
-56.2001
0
VERTEX
8
EdgeCuts
10
0.2424
20
-55.9597
0
VERTEX
8
EdgeCuts
10
0.1237
20
-55.6998
0
VERTEX
8
EdgeCuts
10
0.0432
20
-55.4257
0
VERTEX
8
EdgeCuts
10
0.0025
20
-55.1429
0
VERTEX
8
EdgeCuts
10
0.0000
20
-55.0000
0
VERTEX
8
EdgeCuts
10
0.0000
20
-2.0000
0
VERTEX
8
EdgeCuts
10
0.0025
20
-1.8571
0
VERTEX
8
EdgeCuts
10
0.0432
20
-1.5743
0
VERTEX
8
EdgeCuts
10
0.1237
20
-1.3002
0
VERTEX
8
EdgeCuts
10
0.2424
20
-1.0403
0
VERTEX
8
EdgeCuts
10
0.3969
20
-0.7999
0
VERTEX
8
EdgeCuts
10
0.5840
20
-0.5840
0
VERTEX
8
EdgeCuts
10
0.7999
20
-0.3969
0
VERTEX
8
EdgeCuts
10
1.0403
20
-0.2424
0
VERTEX
8
EdgeCuts
10
1.3002
20
-0.1237
0
VERTEX
8
EdgeCuts
10
1.5743
20
-0.0432
0
VERTEX
8
EdgeCuts
10
1.8571
20
-0.0025
0
VERTEX
8
EdgeCuts
10
2.0000
20
-0.0000
0
VERTEX
8
EdgeCuts
10
33.0000
20
-0.0000
0
SEQEND
0
ENDSEC
0
EOF
