M48
; DRILL file KiCad 10.0.6 date 2026-10-09T14:17:45
; FORMAT={-:-/ absolute / metric / decimal}
; #@! TF.CreationDate,2026-10-09T14:17:45+02:00
; #@! TF.GenerationSoftware,Kicad,Pcbnew,10.0.6
; #@! TF.FileFunction,Plated,1,2,PTH
FMAT,2
METRIC
; #@! TA.AperFunction,Plated,PTH,ViaDrill
T1C0.300
; #@! TA.AperFunction,Plated,PTH,ComponentDrill
T2C0.350
; #@! TA.AperFunction,Plated,PTH,ComponentDrill
T3C0.600
; #@! TA.AperFunction,Plated,PTH,ComponentDrill
T4C2.200
%
G90
G05
T1
X184.95Y-49.95
X184.95Y-52.95
X184.95Y-54.95
X184.95Y-56.95
X184.95Y-62.95
X184.95Y-66.95
X184.95Y-94.45
X186.45Y-51.45
X186.45Y-68.45
X186.45Y-95.95
X186.95Y-53.95
X186.95Y-55.95
X186.95Y-62.95
X188.3Y-58.125
X188.45Y-50.45
X188.45Y-52.45
X188.45Y-95.95
X188.95Y-45.95
X188.95Y-54.45
X188.95Y-56.45
X188.95Y-62.95
X188.95Y-67.45
X189.298Y-75.927
X189.45Y-100.45
X189.496Y-80.277
X189.821Y-46.346
X189.821Y-64.779
X189.95Y-79.45
X189.95Y-98.45
X190.45Y-95.95
X190.95Y-48.95
X190.95Y-50.95
X190.95Y-52.95
X190.95Y-54.95
X190.95Y-56.95
X190.95Y-62.95
X190.95Y-64.95
X190.95Y-67.45
X191.687Y-91.416
X191.95Y-69.95
X191.95Y-71.95
X192.45Y-59.45
X192.45Y-73.95
X192.45Y-93.95
X192.514Y-89.782
X192.95Y-53.45
X192.95Y-55.45
X192.95Y-57.45
X192.95Y-61.95
X192.95Y-63.95
X192.95Y-65.95
X193.137Y-84.765
X193.137Y-93.066
X193.748Y-94.865
X193.879Y-75.823
X194.108Y-50.09
X194.386Y-94.185
X194.45Y-67.45
X194.731Y-75.78
X194.949Y-94.86
X194.95Y-45.95
X194.95Y-50.45
X194.95Y-52.95
X194.95Y-55.45
X194.95Y-57.45
X194.95Y-60.45
X194.95Y-63.45
X194.95Y-65.45
X195.352Y-97.319
X195.573Y-94.218
X195.583Y-75.722
X195.715Y-54.675
X196.163Y-67.679
X196.171Y-94.827
X196.45Y-58.95
X196.45Y-61.95
X196.785Y-97.376
X196.838Y-82.448
X196.95Y-55.95
X196.95Y-64.45
X197.535Y-77.256
X198.021Y-97.318
X198.089Y-94.876
X198.108Y-93.716
X198.136Y-80.713
X198.45Y-57.45
X198.45Y-59.45
X198.45Y-62.95
X198.45Y-65.95
X198.622Y-78.905
X198.742Y-69.334
X198.814Y-75.003
X198.828Y-73.854
X198.98Y-61.045
X199.174Y-94.567
X199.301Y-72.461
X199.474Y-78.705
X199.546Y-79.777
X200.053Y-67.308
X200.421Y-92.6
X200.45Y-58.45
X200.871Y-95.351
X201.065Y-93.8
X201.322Y-86.9
X201.362Y-68.943
X201.45Y-96.45
X201.704Y-91.573
X201.804Y-52.664
X201.937Y-82.743
X201.937Y-94.4
X202.0Y-76.12
X202.45Y-56.45
X202.45Y-58.45
X202.45Y-62.45
X202.45Y-100.45
X202.474Y-71.649
X202.95Y-52.95
X203.203Y-76.588
X203.45Y-96.45
X203.45Y-98.45
X203.539Y-54.292
X203.562Y-78.538
X203.891Y-74.135
X204.036Y-81.971
X204.24Y-79.412
X204.359Y-68.067
X204.45Y-54.95
X204.45Y-56.95
X204.45Y-58.95
X204.45Y-100.45
X204.607Y-68.936
X204.749Y-77.218
X204.802Y-70.265
X204.879Y-87.357
X205.139Y-80.339
X205.139Y-91.66
X205.367Y-77.839
X205.45Y-96.45
X205.45Y-98.45
X205.466Y-79.031
X205.766Y-75.704
X205.773Y-71.357
X205.786Y-88.019
X205.95Y-45.95
X205.95Y-50.45
X205.95Y-52.95
X205.95Y-68.45
X205.956Y-66.754
X206.45Y-54.95
X206.45Y-56.95
X206.45Y-58.95
X206.633Y-87.97
X206.661Y-73.571
X206.874Y-48.258
X206.938Y-76.751
X207.11Y-92.249
X207.129Y-79.476
X207.135Y-86.865
X207.2Y-94.4
X207.321Y-66.222
X207.364Y-70.854
X207.45Y-97.45
X207.45Y-99.45
X207.642Y-74.197
X207.95Y-48.95
X207.95Y-51.95
X207.95Y-68.45
X208.106Y-78.812
X208.167Y-75.302
X208.328Y-70.34
X208.355Y-79.973
X208.45Y-54.95
X208.45Y-56.95
X208.45Y-58.95
X208.95Y-95.95
X209.45Y-92.95
X209.45Y-99.45
X209.5Y-60.89
X209.648Y-87.106
X209.655Y-74.64
X209.95Y-48.95
X209.95Y-52.45
X209.95Y-68.45
X209.97Y-82.946
X210.408Y-79.69
X210.45Y-54.95
X210.45Y-56.95
X210.45Y-58.95
X210.45Y-97.45
X210.64Y-73.159
X210.644Y-74.367
X210.95Y-91.45
X210.95Y-94.45
X210.96Y-80.584
X210.967Y-89.337
X211.424Y-83.909
X211.43Y-82.437
X211.45Y-50.45
X211.45Y-99.95
X211.775Y-85.526
X211.88Y-87.303
X211.95Y-60.95
X211.989Y-81.482
X212.17Y-66.052
X212.45Y-54.95
X212.45Y-56.95
X212.45Y-58.95
X212.45Y-64.45
X212.45Y-92.95
X212.45Y-95.95
X212.45Y-97.95
X212.95Y-48.95
X212.95Y-51.95
X213.45Y-62.45
X213.45Y-67.45
X213.45Y-100.45
X213.95Y-45.95
X213.95Y-94.45
X214.055Y-75.914
X214.312Y-87.147
X214.315Y-88.469
X214.325Y-84.514
X214.328Y-85.395
X214.414Y-90.05
X214.45Y-50.45
X214.899Y-75.546
X214.95Y-60.95
X214.95Y-65.95
X215.45Y-95.95
X215.453Y-77.332
X215.466Y-84.257
X215.621Y-86.775
X215.834Y-81.802
X215.95Y-51.95
X216.012Y-62.898
X216.95Y-61.45
X216.95Y-63.45
X216.95Y-65.45
X216.95Y-67.45
X217.45Y-50.45
X217.45Y-79.45
X217.45Y-94.45
X217.45Y-96.45
X217.95Y-52.45
T2
X200.087Y-72.781
X200.087Y-74.056
X200.087Y-75.331
X201.362Y-72.781
X201.362Y-74.056
X201.362Y-75.331
X202.637Y-72.781
X202.637Y-74.056
X202.637Y-75.331
T4
X187.0Y-48.0
X187.0Y-99.0
X216.0Y-48.0
X216.0Y-99.0
T3
X185.08Y-78.32G85X185.68Y-78.32
G05
X185.08Y-69.68G85X185.68Y-69.68
G05
X189.01Y-78.32G85X190.11Y-78.32
G05
X189.01Y-69.68G85X190.11Y-69.68
G05
X196.18Y-46.08G85X196.18Y-46.68
G05
X196.18Y-50.01G85X196.18Y-51.11
G05
X204.82Y-46.08G85X204.82Y-46.68
G05
X204.82Y-50.01G85X204.82Y-51.11
G05
X213.99Y-78.32G85X212.89Y-78.32
G05
X213.99Y-69.68G85X212.89Y-69.68
G05
X217.92Y-78.32G85X217.32Y-78.32
G05
X217.92Y-69.68G85X217.32Y-69.68
G05
M30
