%TF.GenerationSoftware,KiCad,Pcbnew,10.0.6*%
%TF.CreationDate,2026-10-09T14:17:44+02:00*%
%TF.ProjectId,dyad-controller,64796164-2d63-46f6-9e74-726f6c6c6572,rev?*%
%TF.SameCoordinates,Original*%
%TF.FileFunction,Copper,L1,Top*%
%TF.FilePolarity,Positive*%
%FSLAX46Y46*%
G04 Gerber Fmt 4.6, Leading zero omitted, Abs format (unit mm)*
G04 Created by KiCad (PCBNEW 10.0.6) date 2026-10-09 14:17:44*
%MOMM*%
%LPD*%
G01*
G04 APERTURE LIST*
%TA.AperFunction,ComponentPad*%
%ADD10C,4.400000*%
%TD*%
%TA.AperFunction,ComponentPad*%
%ADD11O,1.600000X1.000000*%
%TD*%
%TA.AperFunction,ComponentPad*%
%ADD12O,2.100000X1.000000*%
%TD*%
%TA.AperFunction,ComponentPad*%
%ADD13C,0.600000*%
%TD*%
%TA.AperFunction,ComponentPad*%
%ADD14O,1.000000X1.600000*%
%TD*%
%TA.AperFunction,ComponentPad*%
%ADD15O,1.000000X2.100000*%
%TD*%
%TA.AperFunction,ViaPad*%
%ADD16C,0.600000*%
%TD*%
%TA.AperFunction,Conductor*%
%ADD17C,0.200000*%
%TD*%
%TA.AperFunction,Conductor*%
%ADD18C,0.400000*%
%TD*%
G04 APERTURE END LIST*
D10*
%TO.P,H4,1*%
%TO.N,GND*%
X216000000Y-99000000D03*
%TD*%
%TO.P,H2,1*%
%TO.N,GND*%
X216000000Y-48000000D03*
%TD*%
%TO.P,H3,1*%
%TO.N,GND*%
X187000000Y-99000000D03*
%TD*%
%TO.P,H1,1*%
%TO.N,GND*%
X187000000Y-48000000D03*
%TD*%
D11*
%TO.P,J10,S1*%
%TO.N,GND*%
X185380000Y-78320000D03*
D12*
X189559999Y-78320000D03*
D11*
X185380001Y-69680000D03*
D12*
X189560000Y-69680000D03*
%TD*%
D13*
%TO.P,U3,57,GND*%
%TO.N,GND*%
X202637000Y-75331100D03*
X202637000Y-74056100D03*
X202637000Y-72781100D03*
X201362000Y-75331100D03*
X201362000Y-74056100D03*
X201362000Y-72781100D03*
X200087000Y-75331100D03*
X200087000Y-74056100D03*
X200087000Y-72781100D03*
%TD*%
D14*
%TO.P,J1,S1,SHIELD*%
%TO.N,GND*%
X196180000Y-46380000D03*
D15*
X196180000Y-50560000D03*
D14*
X204820000Y-46380000D03*
D15*
X204820000Y-50560000D03*
%TD*%
D11*
%TO.P,J9,S1*%
%TO.N,GND*%
X217620000Y-69680000D03*
D12*
X213440001Y-69680000D03*
X213440000Y-78319999D03*
D11*
X217619999Y-78320000D03*
%TD*%
D16*
%TO.N,GND*%
X211950000Y-60950000D03*
X206450000Y-54950000D03*
X198450000Y-57450000D03*
X202950000Y-52950000D03*
X212450000Y-58950000D03*
X205950000Y-68450000D03*
X204450000Y-58950000D03*
X191950000Y-71950000D03*
X205950000Y-50450000D03*
X205450000Y-98450000D03*
X194950000Y-65450000D03*
X212170200Y-66052100D03*
X215450000Y-95950000D03*
X208450000Y-58950000D03*
X194950000Y-57450000D03*
X216950000Y-67450000D03*
X192950000Y-63950000D03*
X203450000Y-98450000D03*
X192950000Y-53450000D03*
X188950000Y-56450000D03*
X205450000Y-96450000D03*
X201450000Y-96450000D03*
X212950000Y-51950000D03*
X198450000Y-62950000D03*
X211450000Y-50450000D03*
X198450000Y-65950000D03*
X196950000Y-64450000D03*
X184950000Y-54950000D03*
X209450000Y-99450000D03*
X194950000Y-50450000D03*
X217450000Y-96450000D03*
X213450000Y-62450000D03*
X212950000Y-48950000D03*
X192450000Y-93950000D03*
X188950000Y-62950000D03*
X212450000Y-64450000D03*
X212450000Y-97950000D03*
X190950000Y-67450000D03*
X186950000Y-53950000D03*
X205950000Y-45950000D03*
X202450000Y-58450000D03*
X189950000Y-98450000D03*
X211450000Y-99950000D03*
X214950000Y-60950000D03*
X207950000Y-48950000D03*
X217950000Y-52450000D03*
X184950000Y-52950000D03*
X213450000Y-67450000D03*
X207950000Y-68450000D03*
X212450000Y-56950000D03*
X194950000Y-60450000D03*
X216950000Y-61450000D03*
X191950000Y-69950000D03*
X190950000Y-64950000D03*
X214950000Y-65950000D03*
X188300100Y-58125000D03*
X190450000Y-95950000D03*
X210950000Y-91450000D03*
X210450000Y-58950000D03*
X188950000Y-45950000D03*
X204450000Y-100450000D03*
X206450000Y-56950000D03*
X212450000Y-92950000D03*
X207200000Y-94400000D03*
X203450000Y-96450000D03*
X213950000Y-45950000D03*
X196950000Y-55950000D03*
X186450000Y-51450000D03*
X215950000Y-51950000D03*
X186450000Y-68450000D03*
X184950000Y-66950000D03*
X217450000Y-79450000D03*
X188450000Y-50450000D03*
X190950000Y-62950000D03*
X208450000Y-54950000D03*
X188950000Y-67450000D03*
X184950000Y-49950000D03*
X210450000Y-97450000D03*
X207450000Y-99450000D03*
X184950000Y-62950000D03*
X186950000Y-62950000D03*
X207450000Y-97450000D03*
X216950000Y-63450000D03*
X204450000Y-54950000D03*
X196450000Y-58950000D03*
X209950000Y-68450000D03*
X186450000Y-95950000D03*
X202450000Y-100450000D03*
X190950000Y-48950000D03*
X198136200Y-80712900D03*
X200450000Y-58450000D03*
X192450000Y-73950000D03*
X189950000Y-79450000D03*
X208450000Y-56950000D03*
X210450000Y-54950000D03*
X190950000Y-52950000D03*
X198450000Y-59450000D03*
X188950000Y-54450000D03*
X213450000Y-100450000D03*
X194950000Y-45950000D03*
X192950000Y-55450000D03*
X196450000Y-61950000D03*
X205367400Y-77838900D03*
X208950000Y-95950000D03*
X214450000Y-50450000D03*
X205950000Y-52950000D03*
X217450000Y-94450000D03*
X184950000Y-56950000D03*
X204450000Y-56950000D03*
X190950000Y-54950000D03*
X209450000Y-92950000D03*
X186950000Y-55950000D03*
X188450000Y-52450000D03*
X202450000Y-62450000D03*
X202450000Y-56450000D03*
X192950000Y-57450000D03*
X206450000Y-58950000D03*
X210950000Y-94450000D03*
X192950000Y-65950000D03*
X209950000Y-52450000D03*
X194950000Y-52950000D03*
X210450000Y-56950000D03*
X213950000Y-94450000D03*
X212450000Y-54950000D03*
X209950000Y-48950000D03*
X194950000Y-63450000D03*
X216950000Y-65450000D03*
X192450000Y-59450000D03*
X212450000Y-95950000D03*
X192950000Y-61950000D03*
X217450000Y-50450000D03*
X190950000Y-56950000D03*
X184950000Y-94450000D03*
X194950000Y-55450000D03*
X188450000Y-95950000D03*
X189450000Y-100450000D03*
X190950000Y-50950000D03*
X207950000Y-51950000D03*
X194450000Y-67450000D03*
%TO.N,+1V1*%
X198742400Y-69334400D03*
X200052800Y-67307700D03*
%TO.N,/VBUS_SPLIT*%
X207364500Y-70853700D03*
X189297600Y-75927500D03*
%TO.N,/GPIO15*%
X214899200Y-75545700D03*
X207135150Y-86864850D03*
%TO.N,+3V3*%
X201362000Y-68942900D03*
X196162600Y-67679500D03*
X215834300Y-81802300D03*
X216012300Y-62897800D03*
X201936700Y-94400000D03*
X201936700Y-82743000D03*
X201322300Y-86900000D03*
X204239800Y-79412400D03*
X194108200Y-50090500D03*
X201703600Y-91572600D03*
X204802400Y-70265400D03*
%TO.N,+5V*%
X189820700Y-64779300D03*
X189495600Y-80277300D03*
X206874100Y-48257800D03*
X200870900Y-95350900D03*
X203539400Y-54292300D03*
X189820700Y-46345800D03*
%TO.N,/GPIO0*%
X211988600Y-81481700D03*
X210640400Y-73159100D03*
X205773500Y-71357200D03*
X191687300Y-91415700D03*
%TO.N,/GPIO1*%
X210643700Y-74367000D03*
X211430000Y-82437300D03*
%TO.N,/GPIO2*%
X205138900Y-80338900D03*
X209655300Y-74640300D03*
X205138900Y-91659800D03*
X207128600Y-79476000D03*
%TO.N,/GPIO3*%
X202473900Y-71649000D03*
X192514400Y-89782500D03*
%TO.N,/GPIO4*%
X206660800Y-73570800D03*
X211775400Y-85526400D03*
X209970000Y-82946100D03*
%TO.N,/GPIO5*%
X214324600Y-84514400D03*
X210959900Y-80584400D03*
X207641800Y-74196600D03*
%TO.N,/GPIO6*%
X215466200Y-84256700D03*
X203891500Y-74135300D03*
X214328200Y-85394700D03*
X209648300Y-87106000D03*
X215453200Y-77331800D03*
X214055000Y-75913600D03*
%TO.N,/GPIO7*%
X208167200Y-75301900D03*
X211423700Y-83909500D03*
X210408200Y-79689900D03*
%TO.N,/GPIO8*%
X207109900Y-92249200D03*
X200420600Y-92600000D03*
X215620800Y-86774700D03*
X203203100Y-76588000D03*
%TO.N,/GPIO9*%
X214312100Y-87147500D03*
X205765600Y-75704300D03*
X208355300Y-79973400D03*
%TO.N,/GPIO10*%
X208106300Y-78812300D03*
X211880400Y-87303400D03*
X206938400Y-76751500D03*
%TO.N,/GPIO11*%
X204748600Y-77217600D03*
X210967300Y-89336800D03*
%TO.N,/GPIO12*%
X205466200Y-79031400D03*
X206632900Y-87970400D03*
X214314900Y-88469400D03*
%TO.N,/GPIO13*%
X203562000Y-78537900D03*
X193136700Y-84765200D03*
X193136700Y-93066500D03*
X201065375Y-93800000D03*
%TO.N,/GPIO14*%
X205786000Y-88019500D03*
X214413800Y-90050000D03*
%TO.N,/CC2*%
X195715100Y-54674900D03*
X201804300Y-52664100D03*
%TO.N,~{RESET}*%
X201999600Y-76119800D03*
X208327900Y-70340400D03*
%TO.N,/~{USB_BOOT}*%
X209500000Y-60890000D03*
X198980500Y-61044900D03*
%TO.N,/GPIO16*%
X199474200Y-78704900D03*
X199174100Y-94566700D03*
%TO.N,/GPIO17*%
X198088700Y-94876300D03*
X198622400Y-78905300D03*
%TO.N,/GPIO18*%
X197535300Y-77256200D03*
X198021000Y-97317700D03*
%TO.N,/GPIO19*%
X199301000Y-72460800D03*
X198108400Y-93715900D03*
%TO.N,/GPIO20*%
X199545800Y-79776700D03*
X196785500Y-97375600D03*
%TO.N,/GPIO21*%
X196170800Y-94827200D03*
X196838200Y-82447800D03*
%TO.N,/GPIO22*%
X195352200Y-97319300D03*
X198814000Y-75002700D03*
%TO.N,/GPIO23*%
X198828500Y-73854200D03*
X195572900Y-94217600D03*
%TO.N,/GPIO24*%
X194949300Y-94859600D03*
X195583000Y-75722400D03*
%TO.N,/GPIO25*%
X194731200Y-75780200D03*
X194385700Y-94184900D03*
%TO.N,/GPIO26*%
X193748100Y-94864600D03*
X193879400Y-75823200D03*
%TO.N,XTAL_IN*%
X204036200Y-81971200D03*
X204878654Y-87357368D03*
%TO.N,SD2*%
X204359200Y-68067300D03*
X205956500Y-66754200D03*
%TO.N,SD1*%
X204606600Y-68936100D03*
X207320700Y-66222000D03*
%TD*%
%TO.N,GND*%
D17*
X202637000Y-75331100D02*
X203692600Y-75331100D01*
X198070500Y-80647200D02*
X198136200Y-80712900D01*
X212138300Y-69680000D02*
X212138300Y-66084000D01*
X188300100Y-58125000D02*
X187555500Y-58869600D01*
X202637000Y-72781100D02*
X202637000Y-74056100D01*
X187555500Y-68556200D02*
X186431700Y-69680000D01*
X185380000Y-69680000D02*
X186431700Y-69680000D01*
X212138300Y-66084000D02*
X212170200Y-66052100D01*
X216568300Y-78320000D02*
X216568300Y-69680000D01*
X217620000Y-69680000D02*
X216568300Y-69680000D01*
X200087000Y-75331100D02*
X200087000Y-76536700D01*
X205367400Y-77005900D02*
X205367400Y-77838900D01*
X198070500Y-78553200D02*
X198070500Y-80647200D01*
X185380000Y-78320000D02*
X186431700Y-78320000D01*
X200087000Y-74056100D02*
X200087000Y-75331100D01*
X187555500Y-58869600D02*
X187555500Y-68556200D01*
X186431700Y-69680000D02*
X186431700Y-78320000D01*
X203692600Y-75331100D02*
X205367400Y-77005900D01*
X196180000Y-46380000D02*
X196180000Y-50560000D01*
X187000000Y-78888300D02*
X186431700Y-78320000D01*
X187000000Y-99000000D02*
X187000000Y-78888300D01*
X217620000Y-78320000D02*
X216568300Y-78320000D01*
X200087000Y-76536700D02*
X198070500Y-78553200D01*
X213440000Y-69680000D02*
X212138300Y-69680000D01*
X202637000Y-74056100D02*
X202637000Y-75331100D01*
X204820000Y-50560000D02*
X204820000Y-46380000D01*
%TO.N,+1V1*%
X200052800Y-67307700D02*
X200052800Y-68024000D01*
X200052800Y-68024000D02*
X198742400Y-69334400D01*
%TO.N,/VBUS_SPLIT*%
D18*
X194619900Y-70605200D02*
X189297600Y-75927500D01*
X203160900Y-70917100D02*
X202849000Y-70605200D01*
X202849000Y-70605200D02*
X194619900Y-70605200D01*
X205292100Y-70917100D02*
X203160900Y-70917100D01*
X205555000Y-70654200D02*
X205292100Y-70917100D01*
X207364500Y-70853700D02*
X207165000Y-70654200D01*
X207165000Y-70654200D02*
X205555000Y-70654200D01*
%TO.N,/GPIO15*%
D17*
X214899200Y-88691900D02*
X214899200Y-75545700D01*
X210510500Y-90240200D02*
X213350900Y-90240200D01*
X213350900Y-90240200D02*
X214899200Y-88691900D01*
X207135150Y-86864850D02*
X210510500Y-90240200D01*
%TO.N,+3V3*%
X201936700Y-81715500D02*
X204239800Y-79412400D01*
X194108200Y-65625100D02*
X196162600Y-67679500D01*
X216012300Y-81624300D02*
X216012300Y-62897800D01*
X215834300Y-81802300D02*
X216012300Y-81624300D01*
X201936700Y-82743000D02*
X201122300Y-83557400D01*
X201122300Y-83557400D02*
X201122300Y-86700000D01*
X201072600Y-69889800D02*
X201362000Y-69600400D01*
X201936700Y-82743000D02*
X201936700Y-81715500D01*
X201362000Y-68942900D02*
X201362000Y-69600400D01*
X204137400Y-69600400D02*
X204802400Y-70265400D01*
X201936700Y-91572600D02*
X201936700Y-94400000D01*
X196162600Y-67679500D02*
X198372900Y-69889800D01*
X201936700Y-91572600D02*
X201703600Y-91572600D01*
X198372900Y-69889800D02*
X201072600Y-69889800D01*
X194108200Y-50090500D02*
X194108200Y-65625100D01*
X201362000Y-69600400D02*
X204137400Y-69600400D01*
X201322300Y-86900000D02*
X201322300Y-90958200D01*
X201322300Y-90958200D02*
X201936700Y-91572600D01*
X201122300Y-86700000D02*
X201322300Y-86900000D01*
%TO.N,+5V*%
D18*
X189495600Y-80277300D02*
X189495600Y-92409500D01*
X206874100Y-50957600D02*
X206874100Y-48257800D01*
X188141400Y-66458600D02*
X188141400Y-78923100D01*
X189820700Y-64779300D02*
X189820700Y-46345800D01*
X198450300Y-98343400D02*
X200870900Y-95922800D01*
X189495600Y-92409500D02*
X195429500Y-98343400D01*
X195429500Y-98343400D02*
X198450300Y-98343400D01*
X200870900Y-95922800D02*
X200870900Y-95350900D01*
X188141400Y-78923100D02*
X189495600Y-80277300D01*
X189820700Y-64779300D02*
X188141400Y-66458600D01*
X203539400Y-54292300D02*
X206874100Y-50957600D01*
%TO.N,/GPIO0*%
D17*
X205722100Y-71408600D02*
X203013700Y-71408600D01*
X210640400Y-73159100D02*
X211636900Y-74155600D01*
X211988600Y-79496600D02*
X211988600Y-81481700D01*
X202702400Y-71097300D02*
X197273000Y-71097300D01*
X203013700Y-71408600D02*
X202702400Y-71097300D01*
X211636900Y-79144900D02*
X211988600Y-79496600D01*
X191687300Y-76683000D02*
X191687300Y-91415700D01*
X211636900Y-74155600D02*
X211636900Y-79144900D01*
X197273000Y-71097300D02*
X191687300Y-76683000D01*
X205773500Y-71357200D02*
X205722100Y-71408600D01*
%TO.N,/GPIO1*%
X211430000Y-80923700D02*
X211430000Y-82437300D01*
X211545900Y-79551200D02*
X211545900Y-80807800D01*
X211285200Y-79290500D02*
X211545900Y-79551200D01*
X211545900Y-80807800D02*
X211430000Y-80923700D01*
X210643700Y-74367000D02*
X211285200Y-75008500D01*
X211285200Y-75008500D02*
X211285200Y-79290500D01*
%TO.N,/GPIO2*%
X205765600Y-77383700D02*
X206384700Y-78002800D01*
X206399200Y-73018000D02*
X205179200Y-74238000D01*
X207355800Y-74749800D02*
X207089800Y-74483800D01*
X206888800Y-73018000D02*
X206399200Y-73018000D01*
X207265000Y-73793300D02*
X207265000Y-73394200D01*
X206150000Y-86863841D02*
X205236000Y-87777841D01*
X205765600Y-76647300D02*
X205765600Y-77383700D01*
X205179200Y-76060900D02*
X205765600Y-76647300D01*
X209545800Y-74749800D02*
X207355800Y-74749800D01*
X207089800Y-74483800D02*
X207089800Y-73968500D01*
X206384700Y-78498100D02*
X207128600Y-79242000D01*
X205236000Y-87777841D02*
X205236000Y-91562700D01*
X207128600Y-79242000D02*
X207128600Y-79476000D01*
X207089800Y-73968500D02*
X207265000Y-73793300D01*
X207265000Y-73394200D02*
X206888800Y-73018000D01*
X205236000Y-91562700D02*
X205138900Y-91659800D01*
X206150000Y-81350000D02*
X206150000Y-86863841D01*
X205138900Y-80338900D02*
X206150000Y-81350000D01*
X205179200Y-74238000D02*
X205179200Y-76060900D01*
X206384700Y-78002800D02*
X206384700Y-78498100D01*
X209655300Y-74640300D02*
X209545800Y-74749800D01*
%TO.N,/GPIO3*%
X197218600Y-71649000D02*
X192514400Y-76353200D01*
X202473900Y-71649000D02*
X197218600Y-71649000D01*
X192514400Y-76353200D02*
X192514400Y-89782500D01*
%TO.N,/GPIO4*%
X211142200Y-84499200D02*
X212025700Y-84499200D01*
X206660800Y-75633600D02*
X206660800Y-73570800D01*
X212152300Y-87871100D02*
X211623300Y-87871100D01*
X209970000Y-80059600D02*
X208658000Y-78747600D01*
X209970000Y-82946100D02*
X209970000Y-83327000D01*
X212678800Y-87344600D02*
X212152300Y-87871100D01*
X211623300Y-87871100D02*
X211253300Y-87501100D01*
X212025700Y-84499200D02*
X212678800Y-85152300D01*
X212678800Y-85152300D02*
X212678800Y-87344600D01*
X208658000Y-78747600D02*
X208658000Y-77630800D01*
X209970000Y-82946100D02*
X209970000Y-80059600D01*
X209970000Y-83327000D02*
X211142200Y-84499200D01*
X211253300Y-86048500D02*
X211775400Y-85526400D01*
X211253300Y-87501100D02*
X211253300Y-86048500D01*
X208658000Y-77630800D02*
X206660800Y-75633600D01*
%TO.N,/GPIO5*%
X209563700Y-72605600D02*
X207972700Y-74196600D01*
X207972700Y-74196600D02*
X207641800Y-74196600D01*
X212076200Y-73768400D02*
X210913400Y-72605600D01*
X210873400Y-80670900D02*
X210959900Y-80584400D01*
X212076200Y-78911700D02*
X212076200Y-73768400D01*
X212548900Y-83011600D02*
X214051700Y-84514400D01*
X212548900Y-83011600D02*
X212548900Y-79384400D01*
X214051700Y-84514400D02*
X214324600Y-84514400D01*
X211219500Y-83011600D02*
X210873400Y-82665500D01*
X212548900Y-83011600D02*
X211219500Y-83011600D01*
X210913400Y-72605600D02*
X209563700Y-72605600D01*
X210873400Y-82665500D02*
X210873400Y-80670900D01*
X212548900Y-79384400D02*
X212076200Y-78911700D01*
%TO.N,/GPIO6*%
X214328200Y-86192500D02*
X212245000Y-88275700D01*
X210818000Y-88275700D02*
X209648300Y-87106000D01*
X209246400Y-72250800D02*
X208997700Y-72499500D01*
X215453200Y-77331800D02*
X215250900Y-77534100D01*
X214328200Y-85394700D02*
X214328200Y-86192500D01*
X214055000Y-75249900D02*
X211055900Y-72250800D01*
X208997700Y-72499500D02*
X205527300Y-72499500D01*
X211055900Y-72250800D02*
X209246400Y-72250800D01*
X212245000Y-88275700D02*
X210818000Y-88275700D01*
X215250900Y-84041400D02*
X215466200Y-84256700D01*
X214055000Y-75913600D02*
X214055000Y-75249900D01*
X205527300Y-72499500D02*
X203891500Y-74135300D01*
X215250900Y-77534100D02*
X215250900Y-84041400D01*
%TO.N,/GPIO7*%
X210408200Y-77542900D02*
X210408200Y-79689900D01*
X210408200Y-82604100D02*
X210521700Y-82717600D01*
X208167200Y-75301900D02*
X210408200Y-77542900D01*
X210408200Y-79689900D02*
X210408200Y-82604100D01*
X210521700Y-83007500D02*
X211423700Y-83909500D01*
X210521700Y-82717600D02*
X210521700Y-83007500D01*
%TO.N,/GPIO8*%
X213008100Y-92249200D02*
X215620800Y-89636500D01*
X215620800Y-89636500D02*
X215620800Y-86774700D01*
X200420600Y-79370500D02*
X200420600Y-92600000D01*
X207109900Y-92249200D02*
X213008100Y-92249200D01*
X203203100Y-76588000D02*
X200420600Y-79370500D01*
%TO.N,/GPIO9*%
X209066600Y-87304400D02*
X210389600Y-88627400D01*
X206117300Y-77238100D02*
X206117300Y-76056000D01*
X210389600Y-88627400D02*
X212832200Y-88627400D01*
X208355300Y-79973400D02*
X208355300Y-79922500D01*
X212832200Y-88627400D02*
X214312100Y-87147500D01*
X208355300Y-79973400D02*
X209066600Y-80684700D01*
X208355300Y-79922500D02*
X206860300Y-78427500D01*
X206117300Y-76056000D02*
X205765600Y-75704300D01*
X206860300Y-77981100D02*
X206117300Y-77238100D01*
X206860300Y-78427500D02*
X206860300Y-77981100D01*
X209066600Y-80684700D02*
X209066600Y-87304400D01*
%TO.N,/GPIO10*%
X211038200Y-84973000D02*
X209418300Y-83353100D01*
X212002200Y-84973000D02*
X211038200Y-84973000D01*
X209418300Y-80124300D02*
X208106300Y-78812300D01*
X208106300Y-77919400D02*
X206938400Y-76751500D01*
X209418300Y-83353100D02*
X209418300Y-80124300D01*
X211880400Y-87303400D02*
X212327100Y-86856700D01*
X212327100Y-85297900D02*
X212002200Y-84973000D01*
X212327100Y-86856700D02*
X212327100Y-85297900D01*
X208106300Y-78812300D02*
X208106300Y-77919400D01*
%TO.N,/GPIO11*%
X204748600Y-78000200D02*
X204748600Y-77217600D01*
X210601700Y-89336800D02*
X208714900Y-87450000D01*
X205678900Y-78446000D02*
X205194400Y-78446000D01*
X206576900Y-79344000D02*
X205678900Y-78446000D01*
X208714900Y-87450000D02*
X208714900Y-81842400D01*
X206576900Y-79704400D02*
X206576900Y-79344000D01*
X208714900Y-81842400D02*
X206576900Y-79704400D01*
X205194400Y-78446000D02*
X204748600Y-78000200D01*
X210967300Y-89336800D02*
X210601700Y-89336800D01*
%TO.N,/GPIO12*%
X206585150Y-86267250D02*
X206983100Y-85869300D01*
X206983100Y-85869300D02*
X207870300Y-86756600D01*
X211266600Y-89817700D02*
X212966600Y-89817700D01*
X205680400Y-80102582D02*
X205680400Y-79245600D01*
X206500000Y-85386200D02*
X206500000Y-80922182D01*
X207870300Y-87102700D02*
X210585300Y-89817700D01*
X206500000Y-80922182D02*
X205680400Y-80102582D01*
X210738900Y-89888500D02*
X211195800Y-89888500D01*
X206983100Y-85869300D02*
X206500000Y-85386200D01*
X212966600Y-89817700D02*
X214314900Y-88469400D01*
X210668100Y-89817700D02*
X210738900Y-89888500D01*
X210585300Y-89817700D02*
X210668100Y-89817700D01*
X206632900Y-87970400D02*
X206585150Y-87922650D01*
X205680400Y-79245600D02*
X205466200Y-79031400D01*
X207870300Y-86756600D02*
X207870300Y-87102700D01*
X211195800Y-89888500D02*
X211266600Y-89817700D01*
X206585150Y-87922650D02*
X206585150Y-86267250D01*
%TO.N,/GPIO13*%
X201000000Y-93734625D02*
X201065375Y-93800000D01*
X200772300Y-81327600D02*
X200772300Y-90903175D01*
X201000000Y-91130875D02*
X201000000Y-93734625D01*
X193136700Y-84765200D02*
X193136700Y-93066500D01*
X200772300Y-90903175D02*
X201000000Y-91130875D01*
X203562000Y-78537900D02*
X200772300Y-81327600D01*
%TO.N,/GPIO14*%
X205786000Y-88019500D02*
X208358400Y-90591900D01*
X213871900Y-90591900D02*
X214413800Y-90050000D01*
X208358400Y-90591900D02*
X213871900Y-90591900D01*
%TO.N,/CC2*%
X201804300Y-52664100D02*
X197725900Y-52664100D01*
X197725900Y-52664100D02*
X195715100Y-54674900D01*
%TO.N,~{RESET}*%
X201999600Y-76119800D02*
X201999600Y-72588300D01*
X202702400Y-72200700D02*
X202985900Y-71917200D01*
X202985900Y-71917200D02*
X207143700Y-71917200D01*
X202387200Y-72200700D02*
X202702400Y-72200700D01*
X207143700Y-71917200D02*
X208327900Y-70733000D01*
X201999600Y-72588300D02*
X202387200Y-72200700D01*
X208327900Y-70733000D02*
X208327900Y-70340400D01*
%TO.N,/~{USB_BOOT}*%
X198980500Y-61044900D02*
X209345100Y-61044900D01*
X209345100Y-61044900D02*
X209500000Y-60890000D01*
%TO.N,/GPIO16*%
X198974100Y-79333800D02*
X198974100Y-79985300D01*
X198974100Y-79985300D02*
X199174100Y-80185300D01*
X199174100Y-80185300D02*
X199174100Y-94566700D01*
X199474200Y-78833700D02*
X198974100Y-79333800D01*
X199474200Y-78704900D02*
X199474200Y-78833700D01*
%TO.N,/GPIO17*%
X198731400Y-80239900D02*
X198622400Y-80130900D01*
X198731400Y-93874700D02*
X198731400Y-80239900D01*
X198088700Y-94517400D02*
X198731400Y-93874700D01*
X198622400Y-80130900D02*
X198622400Y-78905300D01*
X198088700Y-94876300D02*
X198088700Y-94517400D01*
%TO.N,/GPIO18*%
X197145400Y-77646100D02*
X197145400Y-81099500D01*
X197535300Y-77256200D02*
X197145400Y-77646100D01*
X197756700Y-90869000D02*
X197536900Y-91088800D01*
X197536900Y-96833600D02*
X198021000Y-97317700D01*
X197536900Y-91088800D02*
X197536900Y-96833600D01*
X197756700Y-81710800D02*
X197756700Y-90869000D01*
X197145400Y-81099500D02*
X197756700Y-81710800D01*
%TO.N,/GPIO19*%
X199450500Y-72610300D02*
X199450500Y-76384500D01*
X197552500Y-78282500D02*
X197552500Y-80926900D01*
X199301000Y-72460800D02*
X199450500Y-72610300D01*
X199450500Y-76384500D02*
X197552500Y-78282500D01*
X197552500Y-80926900D02*
X198108400Y-81482800D01*
X198108400Y-81482800D02*
X198108400Y-93715900D01*
%TO.N,/GPIO20*%
X199740500Y-96383800D02*
X198254800Y-97869500D01*
X198254800Y-97869500D02*
X197279400Y-97869500D01*
X197279400Y-97869500D02*
X196785500Y-97375600D01*
X199545800Y-79776700D02*
X199740500Y-79971400D01*
X199740500Y-79971400D02*
X199740500Y-96383800D01*
%TO.N,/GPIO21*%
X196170800Y-94827200D02*
X196170800Y-83115200D01*
X196170800Y-83115200D02*
X196838200Y-82447800D01*
%TO.N,/GPIO22*%
X198814000Y-75002700D02*
X196715200Y-77101500D01*
X196715200Y-81259100D02*
X197405000Y-81948900D01*
X196835000Y-91293400D02*
X196835000Y-95836500D01*
X196715200Y-77101500D02*
X196715200Y-81259100D01*
X197405000Y-81948900D02*
X197405000Y-90723400D01*
X197405000Y-90723400D02*
X196835000Y-91293400D01*
X196835000Y-95836500D02*
X195352200Y-97319300D01*
%TO.N,/GPIO23*%
X198828500Y-73854200D02*
X195572900Y-77109800D01*
X195572900Y-77109800D02*
X195572900Y-94217600D01*
%TO.N,/GPIO24*%
X194949300Y-76356100D02*
X195583000Y-75722400D01*
X194949300Y-94859600D02*
X194949300Y-76356100D01*
%TO.N,/GPIO25*%
X194385700Y-76125700D02*
X194731200Y-75780200D01*
X194385700Y-94184900D02*
X194385700Y-76125700D01*
%TO.N,/GPIO26*%
X193748100Y-94864600D02*
X193748100Y-75954500D01*
X193748100Y-75954500D02*
X193879400Y-75823200D01*
%TO.N,XTAL_IN*%
X204878654Y-87357368D02*
X205800000Y-86436023D01*
X205800000Y-86436023D02*
X205800000Y-83735000D01*
X205800000Y-83735000D02*
X204036200Y-81971200D01*
%TO.N,SD2*%
X205956500Y-66754200D02*
X205672300Y-66754200D01*
X205672300Y-66754200D02*
X204359200Y-68067300D01*
%TO.N,SD1*%
X207320700Y-66222000D02*
X204606600Y-68936100D01*
%TD*%
%TA.AperFunction,Conductor*%
%TO.N,GND*%
G36*
X196758812Y-71024607D02*
G01*
X196794776Y-71074107D01*
X196794776Y-71135293D01*
X196770625Y-71174704D01*
X191502789Y-76442540D01*
X191502788Y-76442539D01*
X191446839Y-76498489D01*
X191407280Y-76567007D01*
X191407278Y-76567011D01*
X191386800Y-76643435D01*
X191386800Y-90967379D01*
X191367893Y-91025570D01*
X191357809Y-91037376D01*
X191313855Y-91081331D01*
X191286797Y-91108389D01*
X191286796Y-91108390D01*
X191220909Y-91222509D01*
X191220908Y-91222514D01*
X191186800Y-91349808D01*
X191186800Y-91481592D01*
X191200584Y-91533035D01*
X191220909Y-91608890D01*
X191286796Y-91723009D01*
X191286798Y-91723011D01*
X191286800Y-91723014D01*
X191379986Y-91816200D01*
X191379988Y-91816201D01*
X191379990Y-91816203D01*
X191494110Y-91882090D01*
X191494108Y-91882090D01*
X191494112Y-91882091D01*
X191494114Y-91882092D01*
X191621408Y-91916200D01*
X191621410Y-91916200D01*
X191753190Y-91916200D01*
X191753192Y-91916200D01*
X191880486Y-91882092D01*
X191880488Y-91882090D01*
X191880490Y-91882090D01*
X191994609Y-91816203D01*
X191994609Y-91816202D01*
X191994614Y-91816200D01*
X192087800Y-91723014D01*
X192153692Y-91608886D01*
X192187800Y-91481592D01*
X192187800Y-91349808D01*
X192153692Y-91222514D01*
X192153690Y-91222511D01*
X192153690Y-91222509D01*
X192087803Y-91108390D01*
X192087801Y-91108388D01*
X192087800Y-91108386D01*
X192016794Y-91037380D01*
X191989019Y-90982866D01*
X191987800Y-90967379D01*
X191987800Y-90202721D01*
X192006707Y-90144530D01*
X192056207Y-90108566D01*
X192117393Y-90108566D01*
X192156801Y-90132715D01*
X192207086Y-90183000D01*
X192207088Y-90183001D01*
X192207090Y-90183003D01*
X192321210Y-90248890D01*
X192321208Y-90248890D01*
X192321212Y-90248891D01*
X192321214Y-90248892D01*
X192448508Y-90283000D01*
X192448510Y-90283000D01*
X192580290Y-90283000D01*
X192580292Y-90283000D01*
X192707586Y-90248892D01*
X192707588Y-90248890D01*
X192711577Y-90247822D01*
X192772679Y-90251025D01*
X192820228Y-90289530D01*
X192836200Y-90343449D01*
X192836200Y-92618179D01*
X192817293Y-92676370D01*
X192807209Y-92688176D01*
X192745686Y-92749700D01*
X192736197Y-92759189D01*
X192736196Y-92759190D01*
X192670309Y-92873309D01*
X192670308Y-92873314D01*
X192636200Y-93000608D01*
X192636200Y-93132392D01*
X192646932Y-93172444D01*
X192670309Y-93259690D01*
X192736196Y-93373809D01*
X192736198Y-93373811D01*
X192736200Y-93373814D01*
X192829386Y-93467000D01*
X192829388Y-93467001D01*
X192829390Y-93467003D01*
X192943510Y-93532890D01*
X192943508Y-93532890D01*
X192943512Y-93532891D01*
X192943514Y-93532892D01*
X193070808Y-93567000D01*
X193070810Y-93567000D01*
X193202590Y-93567000D01*
X193202592Y-93567000D01*
X193322980Y-93534742D01*
X193384078Y-93537944D01*
X193431628Y-93576449D01*
X193447600Y-93630369D01*
X193447600Y-94416279D01*
X193428693Y-94474470D01*
X193418609Y-94486276D01*
X193349458Y-94555428D01*
X193347597Y-94557289D01*
X193347596Y-94557290D01*
X193281709Y-94671409D01*
X193281708Y-94671414D01*
X193247600Y-94798708D01*
X193247600Y-94930492D01*
X193271687Y-95020386D01*
X193281709Y-95057790D01*
X193347596Y-95171909D01*
X193347598Y-95171911D01*
X193347600Y-95171914D01*
X193440786Y-95265100D01*
X193440788Y-95265101D01*
X193440790Y-95265103D01*
X193554910Y-95330990D01*
X193554908Y-95330990D01*
X193554912Y-95330991D01*
X193554914Y-95330992D01*
X193682208Y-95365100D01*
X193682210Y-95365100D01*
X193813990Y-95365100D01*
X193813992Y-95365100D01*
X193941286Y-95330992D01*
X193941288Y-95330990D01*
X193941290Y-95330990D01*
X194055409Y-95265103D01*
X194055409Y-95265102D01*
X194055414Y-95265100D01*
X194148600Y-95171914D01*
X194148603Y-95171909D01*
X194214490Y-95057790D01*
X194214490Y-95057788D01*
X194214492Y-95057786D01*
X194248600Y-94930492D01*
X194248600Y-94798708D01*
X194248600Y-94798707D01*
X194248417Y-94797317D01*
X194248600Y-94796329D01*
X194248600Y-94792219D01*
X194249362Y-94792219D01*
X194259570Y-94737157D01*
X194303955Y-94695042D01*
X194346571Y-94685400D01*
X194350171Y-94685400D01*
X194408362Y-94704307D01*
X194444326Y-94753807D01*
X194447397Y-94787219D01*
X194448800Y-94787219D01*
X194448800Y-94793708D01*
X194448800Y-94925492D01*
X194466382Y-94991110D01*
X194482909Y-95052790D01*
X194548796Y-95166909D01*
X194548798Y-95166911D01*
X194548800Y-95166914D01*
X194641986Y-95260100D01*
X194641988Y-95260101D01*
X194641990Y-95260103D01*
X194756110Y-95325990D01*
X194756108Y-95325990D01*
X194756112Y-95325991D01*
X194756114Y-95325992D01*
X194883408Y-95360100D01*
X194883410Y-95360100D01*
X195015190Y-95360100D01*
X195015192Y-95360100D01*
X195142486Y-95325992D01*
X195142488Y-95325990D01*
X195142490Y-95325990D01*
X195256609Y-95260103D01*
X195256609Y-95260102D01*
X195256614Y-95260100D01*
X195349800Y-95166914D01*
X195368509Y-95134509D01*
X195415690Y-95052790D01*
X195415690Y-95052788D01*
X195415692Y-95052786D01*
X195449800Y-94925492D01*
X195449800Y-94817100D01*
X195468707Y-94758909D01*
X195518207Y-94722945D01*
X195548800Y-94718100D01*
X195571300Y-94718100D01*
X195629491Y-94737007D01*
X195665455Y-94786507D01*
X195670300Y-94817100D01*
X195670300Y-94893092D01*
X195690157Y-94967200D01*
X195704409Y-95020390D01*
X195770296Y-95134509D01*
X195770298Y-95134511D01*
X195770300Y-95134514D01*
X195863486Y-95227700D01*
X195863488Y-95227701D01*
X195863490Y-95227703D01*
X195977610Y-95293590D01*
X195977608Y-95293590D01*
X195977612Y-95293591D01*
X195977614Y-95293592D01*
X196104908Y-95327700D01*
X196104910Y-95327700D01*
X196236690Y-95327700D01*
X196236692Y-95327700D01*
X196363986Y-95293592D01*
X196363988Y-95293590D01*
X196363990Y-95293590D01*
X196386000Y-95280883D01*
X196445848Y-95268161D01*
X196501744Y-95293048D01*
X196532337Y-95346036D01*
X196534500Y-95366619D01*
X196534500Y-95671020D01*
X196515593Y-95729211D01*
X196505504Y-95741024D01*
X195456724Y-96789804D01*
X195402207Y-96817581D01*
X195386720Y-96818800D01*
X195286308Y-96818800D01*
X195208400Y-96839675D01*
X195159009Y-96852909D01*
X195044890Y-96918796D01*
X194951696Y-97011990D01*
X194911079Y-97082342D01*
X194865610Y-97123283D01*
X194804760Y-97129679D01*
X194755339Y-97102846D01*
X189925096Y-92272603D01*
X189897319Y-92218086D01*
X189896100Y-92202599D01*
X189896100Y-80611140D01*
X189909363Y-80561641D01*
X189961992Y-80470486D01*
X189996100Y-80343192D01*
X189996100Y-80211408D01*
X189961992Y-80084114D01*
X189961990Y-80084111D01*
X189961990Y-80084109D01*
X189896103Y-79969990D01*
X189896101Y-79969988D01*
X189896100Y-79969986D01*
X189802914Y-79876800D01*
X189802911Y-79876798D01*
X189802909Y-79876796D01*
X189688789Y-79810909D01*
X189688790Y-79810909D01*
X189587117Y-79783666D01*
X189542736Y-79758043D01*
X188570896Y-78786203D01*
X188543119Y-78731686D01*
X188541900Y-78716199D01*
X188541900Y-77065060D01*
X188560807Y-77006869D01*
X188610307Y-76970905D01*
X188671493Y-76970905D01*
X188720993Y-77006869D01*
X188726637Y-77015560D01*
X188726680Y-77015634D01*
X188726681Y-77015638D01*
X188769534Y-77089862D01*
X188830137Y-77150465D01*
X188904361Y-77193318D01*
X188987146Y-77215500D01*
X188987148Y-77215500D01*
X189072850Y-77215500D01*
X189072852Y-77215500D01*
X189155637Y-77193318D01*
X189229861Y-77150465D01*
X189290464Y-77089862D01*
X189333317Y-77015638D01*
X189355499Y-76932853D01*
X189355499Y-76847147D01*
X189333317Y-76764362D01*
X189290464Y-76690138D01*
X189229861Y-76629535D01*
X189200764Y-76612735D01*
X189159823Y-76567267D01*
X189153427Y-76506417D01*
X189184020Y-76453429D01*
X189239915Y-76428542D01*
X189250264Y-76428000D01*
X189363490Y-76428000D01*
X189363492Y-76428000D01*
X189490786Y-76393892D01*
X189490788Y-76393890D01*
X189490790Y-76393890D01*
X189604909Y-76328003D01*
X189604909Y-76328002D01*
X189604914Y-76328000D01*
X189698100Y-76234814D01*
X189763992Y-76120686D01*
X189791233Y-76019014D01*
X189816853Y-75974638D01*
X194756797Y-71034696D01*
X194811314Y-71006919D01*
X194826801Y-71005700D01*
X196700621Y-71005700D01*
X196758812Y-71024607D01*
G37*
%TD.AperFunction*%
%TA.AperFunction,Conductor*%
G36*
X212545704Y-74165575D02*
G01*
X213725504Y-75345375D01*
X213753281Y-75399892D01*
X213754500Y-75415379D01*
X213754500Y-75465279D01*
X213735593Y-75523470D01*
X213725509Y-75535276D01*
X213654500Y-75606286D01*
X213654497Y-75606289D01*
X213654496Y-75606290D01*
X213588609Y-75720409D01*
X213575780Y-75768290D01*
X213554500Y-75847708D01*
X213554500Y-75979492D01*
X213567957Y-76029714D01*
X213588609Y-76106790D01*
X213654496Y-76220909D01*
X213654498Y-76220911D01*
X213654500Y-76220914D01*
X213747686Y-76314100D01*
X213747688Y-76314101D01*
X213747690Y-76314103D01*
X213861810Y-76379990D01*
X213861811Y-76379990D01*
X213861814Y-76379992D01*
X213881892Y-76385371D01*
X213933206Y-76418694D01*
X213955133Y-76475815D01*
X213939298Y-76534916D01*
X213891749Y-76573422D01*
X213881893Y-76576624D01*
X213844365Y-76586679D01*
X213844362Y-76586681D01*
X213770138Y-76629534D01*
X213709535Y-76690137D01*
X213666682Y-76764361D01*
X213644500Y-76847146D01*
X213644500Y-76932852D01*
X213666682Y-77015637D01*
X213709535Y-77089861D01*
X213770138Y-77150464D01*
X213844362Y-77193317D01*
X213927147Y-77215499D01*
X213927149Y-77215499D01*
X214012851Y-77215499D01*
X214012853Y-77215499D01*
X214095638Y-77193317D01*
X214169862Y-77150464D01*
X214230465Y-77089861D01*
X214273318Y-77015637D01*
X214295500Y-76932852D01*
X214295500Y-76847146D01*
X214273318Y-76764361D01*
X214230465Y-76690137D01*
X214169862Y-76629534D01*
X214164060Y-76626184D01*
X214106463Y-76592930D01*
X214065522Y-76547460D01*
X214059126Y-76486610D01*
X214089719Y-76433622D01*
X214130336Y-76411569D01*
X214248186Y-76379992D01*
X214338239Y-76328000D01*
X214362309Y-76314103D01*
X214362309Y-76314102D01*
X214362314Y-76314100D01*
X214429698Y-76246715D01*
X214484213Y-76218940D01*
X214544645Y-76228511D01*
X214587910Y-76271776D01*
X214598700Y-76316721D01*
X214598700Y-83940669D01*
X214579793Y-83998860D01*
X214530293Y-84034824D01*
X214474078Y-84036296D01*
X214416653Y-84020909D01*
X214390492Y-84013900D01*
X214258708Y-84013900D01*
X214180800Y-84034775D01*
X214131409Y-84048009D01*
X214131407Y-84048010D01*
X214120398Y-84054366D01*
X214060549Y-84067083D01*
X214004655Y-84042192D01*
X214000901Y-84038630D01*
X212878396Y-82916125D01*
X212850619Y-82861608D01*
X212849400Y-82846121D01*
X212849400Y-79344839D01*
X212849400Y-79344838D01*
X212847760Y-79338717D01*
X212847760Y-79338713D01*
X212847759Y-79338714D01*
X212828922Y-79268412D01*
X212828920Y-79268409D01*
X212828920Y-79268407D01*
X212789363Y-79199893D01*
X212789359Y-79199888D01*
X212405696Y-78816224D01*
X212377919Y-78761708D01*
X212376700Y-78746221D01*
X212376700Y-74235579D01*
X212395607Y-74177388D01*
X212445107Y-74141424D01*
X212506293Y-74141424D01*
X212545704Y-74165575D01*
G37*
%TD.AperFunction*%
%TA.AperFunction,Conductor*%
G36*
X195647312Y-45319407D02*
G01*
X195683276Y-45368907D01*
X195683276Y-45430093D01*
X195659125Y-45469504D01*
X195558602Y-45570026D01*
X195558599Y-45570030D01*
X195471052Y-45701050D01*
X195471048Y-45701059D01*
X195410742Y-45846650D01*
X195380000Y-46001204D01*
X195380000Y-46229999D01*
X195380001Y-46230000D01*
X195880000Y-46230000D01*
X195880000Y-46530000D01*
X195380001Y-46530000D01*
X195380000Y-46530001D01*
X195380000Y-46758795D01*
X195410742Y-46913349D01*
X195471048Y-47058940D01*
X195471052Y-47058949D01*
X195558599Y-47189969D01*
X195558602Y-47189973D01*
X195670026Y-47301397D01*
X195670030Y-47301400D01*
X195801050Y-47388947D01*
X195801059Y-47388951D01*
X195946651Y-47449257D01*
X195946650Y-47449257D01*
X196029999Y-47465835D01*
X196030000Y-47465835D01*
X196030000Y-46939808D01*
X196064204Y-46959556D01*
X196140504Y-46980000D01*
X196219496Y-46980000D01*
X196295796Y-46959556D01*
X196330000Y-46939808D01*
X196330000Y-47465835D01*
X196413348Y-47449257D01*
X196558940Y-47388951D01*
X196558949Y-47388947D01*
X196689969Y-47301400D01*
X196689973Y-47301397D01*
X196801397Y-47189973D01*
X196801400Y-47189969D01*
X196888947Y-47058949D01*
X196888951Y-47058940D01*
X196949257Y-46913349D01*
X196979999Y-46758795D01*
X196980000Y-46758792D01*
X196980000Y-46530001D01*
X196979999Y-46530000D01*
X196480000Y-46530000D01*
X196480000Y-46230000D01*
X196979999Y-46230000D01*
X196980000Y-46229999D01*
X196980000Y-46001207D01*
X196979999Y-46001204D01*
X196949257Y-45846650D01*
X196888951Y-45701059D01*
X196888947Y-45701050D01*
X196801400Y-45570030D01*
X196801397Y-45570026D01*
X196700875Y-45469504D01*
X196673098Y-45414987D01*
X196682669Y-45354555D01*
X196725934Y-45311290D01*
X196770879Y-45300500D01*
X204229121Y-45300500D01*
X204287312Y-45319407D01*
X204323276Y-45368907D01*
X204323276Y-45430093D01*
X204299125Y-45469504D01*
X204198602Y-45570026D01*
X204198599Y-45570030D01*
X204111052Y-45701050D01*
X204111048Y-45701059D01*
X204050742Y-45846650D01*
X204020000Y-46001204D01*
X204020000Y-46229999D01*
X204020001Y-46230000D01*
X204520000Y-46230000D01*
X204520000Y-46530000D01*
X204020001Y-46530000D01*
X204020000Y-46530001D01*
X204020000Y-46758795D01*
X204050742Y-46913349D01*
X204111048Y-47058940D01*
X204111052Y-47058949D01*
X204198599Y-47189969D01*
X204198602Y-47189973D01*
X204310026Y-47301397D01*
X204310030Y-47301400D01*
X204441050Y-47388947D01*
X204441059Y-47388951D01*
X204586651Y-47449257D01*
X204586650Y-47449257D01*
X204669999Y-47465835D01*
X204670000Y-47465835D01*
X204670000Y-46939808D01*
X204704204Y-46959556D01*
X204780504Y-46980000D01*
X204859496Y-46980000D01*
X204935796Y-46959556D01*
X204970000Y-46939808D01*
X204970000Y-47465835D01*
X205053348Y-47449257D01*
X205198940Y-47388951D01*
X205198949Y-47388947D01*
X205329969Y-47301400D01*
X205329973Y-47301397D01*
X205441397Y-47189973D01*
X205441400Y-47189969D01*
X205528947Y-47058949D01*
X205528951Y-47058940D01*
X205589257Y-46913349D01*
X205619999Y-46758795D01*
X205620000Y-46758792D01*
X205620000Y-46530001D01*
X205619999Y-46530000D01*
X205120000Y-46530000D01*
X205120000Y-46230000D01*
X205619999Y-46230000D01*
X205620000Y-46229999D01*
X205620000Y-46001207D01*
X205619999Y-46001204D01*
X205589257Y-45846650D01*
X205528951Y-45701059D01*
X205528947Y-45701050D01*
X205441400Y-45570030D01*
X205441397Y-45570026D01*
X205340875Y-45469504D01*
X205313098Y-45414987D01*
X205322669Y-45354555D01*
X205365934Y-45311290D01*
X205410879Y-45300500D01*
X216952405Y-45300500D01*
X216996462Y-45300500D01*
X217003523Y-45300751D01*
X217234806Y-45317293D01*
X217248787Y-45319304D01*
X217471881Y-45367836D01*
X217485433Y-45371815D01*
X217601184Y-45414987D01*
X217699366Y-45451606D01*
X217712205Y-45457469D01*
X217912607Y-45566898D01*
X217924483Y-45574530D01*
X218107263Y-45711357D01*
X218117939Y-45720607D01*
X218279392Y-45882060D01*
X218288642Y-45892736D01*
X218425467Y-46075513D01*
X218433103Y-46087395D01*
X218454692Y-46126931D01*
X218510971Y-46229999D01*
X218542526Y-46287786D01*
X218548394Y-46300636D01*
X218628184Y-46514566D01*
X218632163Y-46528118D01*
X218680695Y-46751212D01*
X218682706Y-46765193D01*
X218699248Y-46996475D01*
X218699500Y-47003538D01*
X218699500Y-99996460D01*
X218699248Y-100003523D01*
X218682706Y-100234800D01*
X218680696Y-100248781D01*
X218632162Y-100471888D01*
X218628182Y-100485441D01*
X218548392Y-100699366D01*
X218542524Y-100712215D01*
X218433104Y-100912602D01*
X218425468Y-100924484D01*
X218288643Y-101107261D01*
X218279393Y-101117937D01*
X218117937Y-101279393D01*
X218107261Y-101288643D01*
X217924484Y-101425468D01*
X217912602Y-101433104D01*
X217712215Y-101542524D01*
X217699366Y-101548392D01*
X217485441Y-101628182D01*
X217471888Y-101632162D01*
X217248781Y-101680696D01*
X217234800Y-101682706D01*
X217003523Y-101699248D01*
X216996460Y-101699500D01*
X186003538Y-101699500D01*
X185996477Y-101699248D01*
X185966467Y-101697101D01*
X185765193Y-101682706D01*
X185751212Y-101680695D01*
X185528118Y-101632163D01*
X185514566Y-101628184D01*
X185300636Y-101548394D01*
X185287786Y-101542526D01*
X185287782Y-101542524D01*
X185087395Y-101433103D01*
X185075513Y-101425467D01*
X184892736Y-101288642D01*
X184882060Y-101279392D01*
X184720607Y-101117939D01*
X184711357Y-101107263D01*
X184662587Y-101042114D01*
X184574530Y-100924483D01*
X184566896Y-100912604D01*
X184550094Y-100881834D01*
X184545307Y-100873067D01*
X184457469Y-100712205D01*
X184451605Y-100699363D01*
X184371815Y-100485433D01*
X184367836Y-100471881D01*
X184319304Y-100248787D01*
X184317293Y-100234805D01*
X184300752Y-100003523D01*
X184300500Y-99996461D01*
X184300500Y-98859601D01*
X184500000Y-98859601D01*
X184500000Y-99140398D01*
X184531438Y-99419423D01*
X184593922Y-99693182D01*
X184686661Y-99958214D01*
X184686662Y-99958217D01*
X184808492Y-100211201D01*
X184957885Y-100448958D01*
X185126931Y-100660934D01*
X186123219Y-99664645D01*
X186160967Y-99716602D01*
X186283398Y-99839033D01*
X186335351Y-99876779D01*
X185339064Y-100873067D01*
X185551041Y-101042114D01*
X185788798Y-101191507D01*
X186041782Y-101313337D01*
X186041785Y-101313338D01*
X186306817Y-101406077D01*
X186580576Y-101468561D01*
X186859601Y-101499999D01*
X186859604Y-101500000D01*
X187140396Y-101500000D01*
X187140398Y-101499999D01*
X187419423Y-101468561D01*
X187693182Y-101406077D01*
X187958214Y-101313338D01*
X187958217Y-101313337D01*
X188211201Y-101191507D01*
X188448958Y-101042114D01*
X188660934Y-100873067D01*
X187664647Y-99876780D01*
X187716602Y-99839033D01*
X187839033Y-99716602D01*
X187876780Y-99664647D01*
X188873067Y-100660934D01*
X189042114Y-100448958D01*
X189191507Y-100211201D01*
X189313337Y-99958217D01*
X189313338Y-99958214D01*
X189406077Y-99693182D01*
X189468561Y-99419423D01*
X189499999Y-99140398D01*
X189500000Y-99140396D01*
X189500000Y-98859603D01*
X189499999Y-98859601D01*
X213500000Y-98859601D01*
X213500000Y-99140398D01*
X213531438Y-99419423D01*
X213593922Y-99693182D01*
X213686661Y-99958214D01*
X213686662Y-99958217D01*
X213808492Y-100211201D01*
X213957885Y-100448958D01*
X214126931Y-100660934D01*
X215123219Y-99664645D01*
X215160967Y-99716602D01*
X215283398Y-99839033D01*
X215335351Y-99876779D01*
X214339064Y-100873067D01*
X214551041Y-101042114D01*
X214788798Y-101191507D01*
X215041782Y-101313337D01*
X215041785Y-101313338D01*
X215306817Y-101406077D01*
X215580576Y-101468561D01*
X215859601Y-101499999D01*
X215859604Y-101500000D01*
X216140396Y-101500000D01*
X216140398Y-101499999D01*
X216419423Y-101468561D01*
X216693182Y-101406077D01*
X216958214Y-101313338D01*
X216958217Y-101313337D01*
X217211201Y-101191507D01*
X217448958Y-101042114D01*
X217660934Y-100873067D01*
X216664647Y-99876780D01*
X216716602Y-99839033D01*
X216839033Y-99716602D01*
X216876780Y-99664647D01*
X217873067Y-100660934D01*
X218042114Y-100448958D01*
X218191507Y-100211201D01*
X218313337Y-99958217D01*
X218313338Y-99958214D01*
X218406077Y-99693182D01*
X218468561Y-99419423D01*
X218499999Y-99140398D01*
X218500000Y-99140396D01*
X218500000Y-98859603D01*
X218499999Y-98859601D01*
X218468561Y-98580576D01*
X218406077Y-98306817D01*
X218313338Y-98041785D01*
X218313337Y-98041782D01*
X218191507Y-97788798D01*
X218042114Y-97551041D01*
X217873067Y-97339064D01*
X216876779Y-98335351D01*
X216839033Y-98283398D01*
X216716602Y-98160967D01*
X216664645Y-98123219D01*
X217660934Y-97126931D01*
X217448958Y-96957885D01*
X217211201Y-96808492D01*
X216958217Y-96686662D01*
X216958214Y-96686661D01*
X216693182Y-96593922D01*
X216419423Y-96531438D01*
X216140398Y-96500000D01*
X215859601Y-96500000D01*
X215580576Y-96531438D01*
X215306817Y-96593922D01*
X215041785Y-96686661D01*
X215041782Y-96686662D01*
X214788798Y-96808492D01*
X214551041Y-96957885D01*
X214339064Y-97126931D01*
X215335352Y-98123219D01*
X215283398Y-98160967D01*
X215160967Y-98283398D01*
X215123219Y-98335352D01*
X214126931Y-97339064D01*
X213957885Y-97551041D01*
X213808492Y-97788798D01*
X213686662Y-98041782D01*
X213686661Y-98041785D01*
X213593922Y-98306817D01*
X213531438Y-98580576D01*
X213500000Y-98859601D01*
X189499999Y-98859601D01*
X189468561Y-98580576D01*
X189406077Y-98306817D01*
X189313338Y-98041785D01*
X189313337Y-98041782D01*
X189191507Y-97788798D01*
X189042114Y-97551041D01*
X188873067Y-97339064D01*
X187876779Y-98335351D01*
X187839033Y-98283398D01*
X187716602Y-98160967D01*
X187664645Y-98123219D01*
X188660934Y-97126931D01*
X188448958Y-96957885D01*
X188211201Y-96808492D01*
X187958217Y-96686662D01*
X187958214Y-96686661D01*
X187693182Y-96593922D01*
X187419423Y-96531438D01*
X187140398Y-96500000D01*
X186859601Y-96500000D01*
X186580576Y-96531438D01*
X186306817Y-96593922D01*
X186041785Y-96686661D01*
X186041782Y-96686662D01*
X185788798Y-96808492D01*
X185551041Y-96957885D01*
X185339064Y-97126931D01*
X186335352Y-98123219D01*
X186283398Y-98160967D01*
X186160967Y-98283398D01*
X186123219Y-98335352D01*
X185126931Y-97339064D01*
X184957885Y-97551041D01*
X184808492Y-97788798D01*
X184686662Y-98041782D01*
X184686661Y-98041785D01*
X184593922Y-98306817D01*
X184531438Y-98580576D01*
X184500000Y-98859601D01*
X184300500Y-98859601D01*
X184300500Y-47859601D01*
X184500000Y-47859601D01*
X184500000Y-48140398D01*
X184531438Y-48419423D01*
X184593922Y-48693182D01*
X184686661Y-48958214D01*
X184686662Y-48958217D01*
X184808492Y-49211201D01*
X184957885Y-49448958D01*
X185126931Y-49660934D01*
X186123219Y-48664645D01*
X186160967Y-48716602D01*
X186283398Y-48839033D01*
X186335351Y-48876779D01*
X185339064Y-49873067D01*
X185551041Y-50042114D01*
X185788798Y-50191507D01*
X186041782Y-50313337D01*
X186041785Y-50313338D01*
X186306817Y-50406077D01*
X186580576Y-50468561D01*
X186859601Y-50499999D01*
X186859604Y-50500000D01*
X187140396Y-50500000D01*
X187140398Y-50499999D01*
X187419423Y-50468561D01*
X187693182Y-50406077D01*
X187958214Y-50313338D01*
X187958217Y-50313337D01*
X188211201Y-50191507D01*
X188448958Y-50042114D01*
X188660934Y-49873067D01*
X187664647Y-48876780D01*
X187716602Y-48839033D01*
X187839033Y-48716602D01*
X187876780Y-48664647D01*
X188873067Y-49660934D01*
X189042114Y-49448958D01*
X189191507Y-49211201D01*
X189232004Y-49127108D01*
X189274287Y-49082883D01*
X189334489Y-49071958D01*
X189389615Y-49098505D01*
X189418609Y-49152385D01*
X189420200Y-49170062D01*
X189420200Y-64445459D01*
X189406936Y-64494959D01*
X189354309Y-64586110D01*
X189354307Y-64586114D01*
X189327065Y-64687782D01*
X189301443Y-64732162D01*
X187820917Y-66212690D01*
X187820916Y-66212691D01*
X187768194Y-66304007D01*
X187768193Y-66304012D01*
X187753918Y-66357288D01*
X187740900Y-66405873D01*
X187740900Y-78870373D01*
X187740900Y-78975827D01*
X187750650Y-79012214D01*
X187768194Y-79077692D01*
X187820916Y-79169008D01*
X187820918Y-79169010D01*
X187820920Y-79169013D01*
X188976344Y-80324437D01*
X189001965Y-80368814D01*
X189029208Y-80470486D01*
X189081836Y-80561641D01*
X189095100Y-80611140D01*
X189095100Y-92356773D01*
X189095100Y-92462227D01*
X189113050Y-92529219D01*
X189122394Y-92564092D01*
X189175116Y-92655408D01*
X189175118Y-92655410D01*
X189175120Y-92655413D01*
X195183587Y-98663880D01*
X195183589Y-98663881D01*
X195183591Y-98663883D01*
X195274908Y-98716605D01*
X195274906Y-98716605D01*
X195274910Y-98716606D01*
X195274912Y-98716607D01*
X195376773Y-98743900D01*
X195376775Y-98743900D01*
X198503025Y-98743900D01*
X198503027Y-98743900D01*
X198604888Y-98716607D01*
X198604890Y-98716605D01*
X198604892Y-98716605D01*
X198696208Y-98663883D01*
X198696208Y-98663882D01*
X198696213Y-98663880D01*
X201191380Y-96168713D01*
X201221513Y-96116521D01*
X201244107Y-96077387D01*
X201271400Y-95975527D01*
X201271400Y-95684740D01*
X201284663Y-95635241D01*
X201337292Y-95544086D01*
X201371400Y-95416792D01*
X201371400Y-95285008D01*
X201337292Y-95157714D01*
X201337290Y-95157711D01*
X201337290Y-95157709D01*
X201271403Y-95043590D01*
X201271401Y-95043588D01*
X201271400Y-95043586D01*
X201178214Y-94950400D01*
X201178211Y-94950398D01*
X201178209Y-94950396D01*
X201064089Y-94884509D01*
X201064091Y-94884509D01*
X201014699Y-94871275D01*
X200936792Y-94850400D01*
X200805008Y-94850400D01*
X200727100Y-94871275D01*
X200677709Y-94884509D01*
X200563590Y-94950396D01*
X200470396Y-95043590D01*
X200404509Y-95157709D01*
X200397568Y-95183614D01*
X200370400Y-95285008D01*
X200370400Y-95416792D01*
X200404508Y-95544086D01*
X200457136Y-95635241D01*
X200470400Y-95684740D01*
X200470400Y-95715899D01*
X200451493Y-95774090D01*
X200441404Y-95785903D01*
X200210004Y-96017303D01*
X200155487Y-96045080D01*
X200095055Y-96035509D01*
X200051790Y-95992244D01*
X200041000Y-95947299D01*
X200041000Y-93130239D01*
X200059907Y-93072048D01*
X200109407Y-93036084D01*
X200170593Y-93036084D01*
X200189500Y-93044503D01*
X200227410Y-93066390D01*
X200227408Y-93066390D01*
X200227412Y-93066391D01*
X200227414Y-93066392D01*
X200354708Y-93100500D01*
X200354710Y-93100500D01*
X200486490Y-93100500D01*
X200486492Y-93100500D01*
X200574878Y-93076817D01*
X200635979Y-93080020D01*
X200683528Y-93118525D01*
X200699500Y-93172444D01*
X200699500Y-93417053D01*
X200680593Y-93475244D01*
X200670507Y-93487053D01*
X200664877Y-93492683D01*
X200664871Y-93492690D01*
X200598984Y-93606809D01*
X200579914Y-93677978D01*
X200564875Y-93734108D01*
X200564875Y-93865892D01*
X200587861Y-93951679D01*
X200598984Y-93993190D01*
X200664871Y-94107309D01*
X200664873Y-94107311D01*
X200664875Y-94107314D01*
X200758061Y-94200500D01*
X200758063Y-94200501D01*
X200758065Y-94200503D01*
X200872185Y-94266390D01*
X200872183Y-94266390D01*
X200872187Y-94266391D01*
X200872189Y-94266392D01*
X200999483Y-94300500D01*
X200999485Y-94300500D01*
X201131265Y-94300500D01*
X201131267Y-94300500D01*
X201258561Y-94266392D01*
X201287699Y-94249568D01*
X201347547Y-94236847D01*
X201403443Y-94261733D01*
X201434036Y-94314721D01*
X201436200Y-94335305D01*
X201436200Y-94465892D01*
X201441664Y-94486283D01*
X201470309Y-94593190D01*
X201536196Y-94707309D01*
X201536198Y-94707311D01*
X201536200Y-94707314D01*
X201629386Y-94800500D01*
X201629388Y-94800501D01*
X201629390Y-94800503D01*
X201743510Y-94866390D01*
X201743508Y-94866390D01*
X201743512Y-94866391D01*
X201743514Y-94866392D01*
X201870808Y-94900500D01*
X201870810Y-94900500D01*
X202002590Y-94900500D01*
X202002592Y-94900500D01*
X202129886Y-94866392D01*
X202129888Y-94866390D01*
X202129890Y-94866390D01*
X202244009Y-94800503D01*
X202244009Y-94800502D01*
X202244014Y-94800500D01*
X202337200Y-94707314D01*
X202357930Y-94671409D01*
X202403090Y-94593190D01*
X202403090Y-94593188D01*
X202403092Y-94593186D01*
X202437200Y-94465892D01*
X202437200Y-94334108D01*
X202403092Y-94206814D01*
X202403090Y-94206811D01*
X202403090Y-94206809D01*
X202337203Y-94092690D01*
X202337201Y-94092688D01*
X202337200Y-94092686D01*
X202266194Y-94021680D01*
X202238419Y-93967166D01*
X202237200Y-93951679D01*
X202237200Y-91533037D01*
X202237199Y-91533035D01*
X202216721Y-91456611D01*
X202216719Y-91456607D01*
X202177159Y-91388087D01*
X202173209Y-91382939D01*
X202173809Y-91382478D01*
X202165536Y-91371696D01*
X202104100Y-91265286D01*
X202010914Y-91172100D01*
X201904507Y-91110665D01*
X201884006Y-91094935D01*
X201651796Y-90862725D01*
X201624019Y-90808208D01*
X201622800Y-90792721D01*
X201622800Y-87348321D01*
X201641707Y-87290130D01*
X201651790Y-87278323D01*
X201722800Y-87207314D01*
X201747328Y-87164830D01*
X201788690Y-87093190D01*
X201788690Y-87093188D01*
X201788692Y-87093186D01*
X201822800Y-86965892D01*
X201822800Y-86834108D01*
X201788692Y-86706814D01*
X201788690Y-86706811D01*
X201788690Y-86706809D01*
X201722803Y-86592690D01*
X201722801Y-86592688D01*
X201722800Y-86592686D01*
X201629614Y-86499500D01*
X201629611Y-86499498D01*
X201629609Y-86499496D01*
X201515489Y-86433609D01*
X201515486Y-86433608D01*
X201496175Y-86428433D01*
X201444861Y-86395108D01*
X201422936Y-86337986D01*
X201422800Y-86332807D01*
X201422800Y-83722877D01*
X201441707Y-83664686D01*
X201451784Y-83652886D01*
X201832175Y-83272494D01*
X201886690Y-83244719D01*
X201902177Y-83243500D01*
X202002590Y-83243500D01*
X202002592Y-83243500D01*
X202129886Y-83209392D01*
X202129888Y-83209390D01*
X202129890Y-83209390D01*
X202244009Y-83143503D01*
X202244009Y-83143502D01*
X202244014Y-83143500D01*
X202337200Y-83050314D01*
X202358787Y-83012925D01*
X202403090Y-82936190D01*
X202403090Y-82936188D01*
X202403092Y-82936186D01*
X202437200Y-82808892D01*
X202437200Y-82677108D01*
X202403092Y-82549814D01*
X202403090Y-82549811D01*
X202403090Y-82549809D01*
X202337203Y-82435690D01*
X202337201Y-82435688D01*
X202337200Y-82435686D01*
X202266194Y-82364680D01*
X202238419Y-82310166D01*
X202237200Y-82294679D01*
X202237200Y-81880978D01*
X202256107Y-81822787D01*
X202266190Y-81810980D01*
X204135274Y-79941895D01*
X204189791Y-79914119D01*
X204205278Y-79912900D01*
X204305690Y-79912900D01*
X204305692Y-79912900D01*
X204432986Y-79878792D01*
X204432988Y-79878790D01*
X204432990Y-79878790D01*
X204547109Y-79812903D01*
X204547109Y-79812902D01*
X204547114Y-79812900D01*
X204640300Y-79719714D01*
X204645442Y-79710808D01*
X204706190Y-79605590D01*
X204706190Y-79605588D01*
X204706192Y-79605586D01*
X204740300Y-79478292D01*
X204740300Y-79346508D01*
X204706192Y-79219214D01*
X204706190Y-79219211D01*
X204706190Y-79219209D01*
X204640303Y-79105090D01*
X204640301Y-79105088D01*
X204640300Y-79105086D01*
X204547114Y-79011900D01*
X204547111Y-79011898D01*
X204547109Y-79011896D01*
X204432989Y-78946009D01*
X204432991Y-78946009D01*
X204383599Y-78932775D01*
X204305692Y-78911900D01*
X204173908Y-78911900D01*
X204155107Y-78916937D01*
X204109124Y-78929258D01*
X204048022Y-78926055D01*
X204000473Y-78887549D01*
X203984638Y-78828448D01*
X203997764Y-78784133D01*
X204028392Y-78731086D01*
X204062500Y-78603792D01*
X204062500Y-78472008D01*
X204028392Y-78344714D01*
X204028390Y-78344711D01*
X204028390Y-78344709D01*
X203962503Y-78230590D01*
X203962501Y-78230588D01*
X203962500Y-78230586D01*
X203869314Y-78137400D01*
X203869311Y-78137398D01*
X203869309Y-78137396D01*
X203755189Y-78071509D01*
X203755191Y-78071509D01*
X203705799Y-78058275D01*
X203627892Y-78037400D01*
X203496108Y-78037400D01*
X203418200Y-78058275D01*
X203368809Y-78071509D01*
X203254690Y-78137396D01*
X203161496Y-78230590D01*
X203095609Y-78344709D01*
X203061500Y-78472009D01*
X203061500Y-78572420D01*
X203042593Y-78630611D01*
X203032504Y-78642424D01*
X200890104Y-80784824D01*
X200835587Y-80812601D01*
X200775155Y-80803030D01*
X200731890Y-80759765D01*
X200721100Y-80714820D01*
X200721100Y-79535978D01*
X200740007Y-79477787D01*
X200750090Y-79465980D01*
X203098574Y-77117495D01*
X203153091Y-77089719D01*
X203168578Y-77088500D01*
X203268990Y-77088500D01*
X203268992Y-77088500D01*
X203396286Y-77054392D01*
X203396288Y-77054390D01*
X203396290Y-77054390D01*
X203510409Y-76988503D01*
X203510409Y-76988502D01*
X203510414Y-76988500D01*
X203603600Y-76895314D01*
X203646864Y-76820379D01*
X203669490Y-76781190D01*
X203669490Y-76781188D01*
X203669492Y-76781186D01*
X203703600Y-76653892D01*
X203703600Y-76522108D01*
X203669492Y-76394814D01*
X203669490Y-76394811D01*
X203669490Y-76394809D01*
X203603603Y-76280690D01*
X203603601Y-76280688D01*
X203603600Y-76280686D01*
X203510414Y-76187500D01*
X203510411Y-76187498D01*
X203510409Y-76187496D01*
X203396289Y-76121609D01*
X203396291Y-76121609D01*
X203340969Y-76106786D01*
X203268992Y-76087500D01*
X203137208Y-76087500D01*
X203065231Y-76106786D01*
X203009909Y-76121609D01*
X202895790Y-76187496D01*
X202802596Y-76280690D01*
X202736709Y-76394809D01*
X202723920Y-76442539D01*
X202702743Y-76521577D01*
X202702600Y-76522109D01*
X202702600Y-76622520D01*
X202683693Y-76680711D01*
X202673604Y-76692524D01*
X200236089Y-79130040D01*
X200236088Y-79130039D01*
X200180139Y-79185989D01*
X200140580Y-79254507D01*
X200140578Y-79254511D01*
X200120100Y-79330935D01*
X200120100Y-79404242D01*
X200101193Y-79462433D01*
X200051693Y-79498397D01*
X199990507Y-79498397D01*
X199952982Y-79471880D01*
X199950888Y-79473975D01*
X199946301Y-79469388D01*
X199946300Y-79469386D01*
X199853114Y-79376200D01*
X199853111Y-79376198D01*
X199853109Y-79376196D01*
X199733367Y-79307063D01*
X199734575Y-79304969D01*
X199696033Y-79272039D01*
X199681761Y-79212542D01*
X199705185Y-79156018D01*
X199730953Y-79134591D01*
X199781514Y-79105400D01*
X199874700Y-79012214D01*
X199924444Y-78926055D01*
X199940590Y-78898090D01*
X199940590Y-78898088D01*
X199940592Y-78898086D01*
X199974700Y-78770792D01*
X199974700Y-78639008D01*
X199940592Y-78511714D01*
X199940590Y-78511711D01*
X199940590Y-78511709D01*
X199874703Y-78397590D01*
X199874701Y-78397588D01*
X199874700Y-78397586D01*
X199781514Y-78304400D01*
X199781511Y-78304398D01*
X199781509Y-78304396D01*
X199667389Y-78238509D01*
X199667391Y-78238509D01*
X199617999Y-78225275D01*
X199540092Y-78204400D01*
X199408308Y-78204400D01*
X199330400Y-78225275D01*
X199281009Y-78238509D01*
X199166890Y-78304396D01*
X199073698Y-78397588D01*
X199040777Y-78454608D01*
X198995307Y-78495549D01*
X198934456Y-78501943D01*
X198905541Y-78490843D01*
X198815589Y-78438909D01*
X198815591Y-78438909D01*
X198753118Y-78422170D01*
X198688292Y-78404800D01*
X198556508Y-78404800D01*
X198491682Y-78422170D01*
X198429209Y-78438909D01*
X198315090Y-78504796D01*
X198221896Y-78597990D01*
X198156009Y-78712109D01*
X198150924Y-78731088D01*
X198121900Y-78839408D01*
X198121900Y-78971192D01*
X198139908Y-79038400D01*
X198156009Y-79098490D01*
X198221896Y-79212609D01*
X198221898Y-79212611D01*
X198221900Y-79212614D01*
X198292905Y-79283619D01*
X198320681Y-79338134D01*
X198321900Y-79353621D01*
X198321900Y-80170464D01*
X198342376Y-80246881D01*
X198342378Y-80246885D01*
X198342379Y-80246889D01*
X198342380Y-80246890D01*
X198353021Y-80265322D01*
X198353022Y-80265322D01*
X198381940Y-80315411D01*
X198401905Y-80335376D01*
X198429681Y-80389891D01*
X198430900Y-80405378D01*
X198430900Y-81141321D01*
X198411993Y-81199512D01*
X198362493Y-81235476D01*
X198301307Y-81235476D01*
X198261896Y-81211325D01*
X197881996Y-80831425D01*
X197854219Y-80776908D01*
X197853000Y-80761421D01*
X197853000Y-78447978D01*
X197871907Y-78389787D01*
X197881990Y-78377980D01*
X199690960Y-76569011D01*
X199706638Y-76541856D01*
X199708246Y-76539072D01*
X199718579Y-76521172D01*
X199730521Y-76500489D01*
X199751000Y-76424062D01*
X199751000Y-72708904D01*
X199764265Y-72659401D01*
X199767392Y-72653986D01*
X199801500Y-72526692D01*
X199801500Y-72394908D01*
X199767392Y-72267614D01*
X199767390Y-72267611D01*
X199767390Y-72267609D01*
X199701503Y-72153490D01*
X199701501Y-72153488D01*
X199701500Y-72153486D01*
X199666515Y-72118501D01*
X199638740Y-72063987D01*
X199648311Y-72003555D01*
X199691576Y-71960290D01*
X199736521Y-71949500D01*
X201974421Y-71949500D01*
X202032612Y-71968407D01*
X202068576Y-72017907D01*
X202068576Y-72079093D01*
X202044426Y-72118502D01*
X201815089Y-72347840D01*
X201815088Y-72347839D01*
X201759139Y-72403789D01*
X201719580Y-72472307D01*
X201719578Y-72472311D01*
X201699100Y-72548735D01*
X201699100Y-75671479D01*
X201680193Y-75729670D01*
X201670109Y-75741476D01*
X201633794Y-75777792D01*
X201599097Y-75812489D01*
X201599096Y-75812490D01*
X201533209Y-75926609D01*
X201515951Y-75991018D01*
X201499100Y-76053908D01*
X201499100Y-76185692D01*
X201526940Y-76289592D01*
X201533209Y-76312990D01*
X201599096Y-76427109D01*
X201599098Y-76427111D01*
X201599100Y-76427114D01*
X201692286Y-76520300D01*
X201692288Y-76520301D01*
X201692290Y-76520303D01*
X201806410Y-76586190D01*
X201806408Y-76586190D01*
X201806412Y-76586191D01*
X201806414Y-76586192D01*
X201933708Y-76620300D01*
X201933710Y-76620300D01*
X202065490Y-76620300D01*
X202065492Y-76620300D01*
X202192786Y-76586192D01*
X202192788Y-76586190D01*
X202192790Y-76586190D01*
X202306909Y-76520303D01*
X202306909Y-76520302D01*
X202306914Y-76520300D01*
X202400100Y-76427114D01*
X202407614Y-76414100D01*
X202465990Y-76312990D01*
X202465990Y-76312988D01*
X202465992Y-76312986D01*
X202500100Y-76185692D01*
X202500100Y-76053908D01*
X202465992Y-75926614D01*
X202465990Y-75926611D01*
X202465990Y-75926609D01*
X202400103Y-75812490D01*
X202400101Y-75812488D01*
X202400100Y-75812486D01*
X202329094Y-75741480D01*
X202301319Y-75686966D01*
X202300100Y-75671479D01*
X202300100Y-72753779D01*
X202319007Y-72695588D01*
X202329096Y-72683775D01*
X202482675Y-72530196D01*
X202537192Y-72502419D01*
X202552679Y-72501200D01*
X202741963Y-72501200D01*
X202741963Y-72501199D01*
X202818389Y-72480721D01*
X202886911Y-72441160D01*
X202942860Y-72385211D01*
X203081375Y-72246696D01*
X203135892Y-72218919D01*
X203151379Y-72217700D01*
X205145122Y-72217700D01*
X205203313Y-72236607D01*
X205239277Y-72286107D01*
X205239277Y-72347293D01*
X205215127Y-72386701D01*
X204250467Y-73351361D01*
X203996024Y-73605804D01*
X203941507Y-73633581D01*
X203926020Y-73634800D01*
X203825608Y-73634800D01*
X203747700Y-73655675D01*
X203698309Y-73668909D01*
X203584190Y-73734796D01*
X203490996Y-73827990D01*
X203425109Y-73942109D01*
X203410516Y-73996571D01*
X203391000Y-74069408D01*
X203391000Y-74201192D01*
X203412196Y-74280296D01*
X203425109Y-74328490D01*
X203490996Y-74442609D01*
X203490998Y-74442611D01*
X203491000Y-74442614D01*
X203584186Y-74535800D01*
X203584188Y-74535801D01*
X203584190Y-74535803D01*
X203698310Y-74601690D01*
X203698308Y-74601690D01*
X203698312Y-74601691D01*
X203698314Y-74601692D01*
X203825608Y-74635800D01*
X203825610Y-74635800D01*
X203957390Y-74635800D01*
X203957392Y-74635800D01*
X204084686Y-74601692D01*
X204084688Y-74601690D01*
X204084690Y-74601690D01*
X204198809Y-74535803D01*
X204198809Y-74535802D01*
X204198814Y-74535800D01*
X204292000Y-74442614D01*
X204314595Y-74403478D01*
X204357890Y-74328490D01*
X204357890Y-74328488D01*
X204357892Y-74328486D01*
X204392000Y-74201192D01*
X204392000Y-74100778D01*
X204410907Y-74042587D01*
X204420996Y-74030774D01*
X205622775Y-72828996D01*
X205677292Y-72801219D01*
X205692779Y-72800000D01*
X205953221Y-72800000D01*
X206011412Y-72818907D01*
X206047376Y-72868407D01*
X206047376Y-72929593D01*
X206023225Y-72969004D01*
X204994689Y-73997540D01*
X204994688Y-73997539D01*
X204938739Y-74053489D01*
X204899180Y-74122007D01*
X204899178Y-74122011D01*
X204878700Y-74198435D01*
X204878700Y-76100464D01*
X204899177Y-76176885D01*
X204899179Y-76176890D01*
X204926204Y-76223699D01*
X204938738Y-76245408D01*
X204938740Y-76245411D01*
X205436105Y-76742776D01*
X205463881Y-76797291D01*
X205465100Y-76812778D01*
X205465100Y-77423264D01*
X205485578Y-77499688D01*
X205487686Y-77503339D01*
X205512901Y-77547012D01*
X205525140Y-77568211D01*
X206055205Y-78098276D01*
X206082981Y-78152791D01*
X206084200Y-78168278D01*
X206084200Y-78187321D01*
X206065293Y-78245512D01*
X206015793Y-78281476D01*
X205954607Y-78281476D01*
X205915196Y-78257325D01*
X205863410Y-78205539D01*
X205861428Y-78204395D01*
X205861428Y-78204394D01*
X205861426Y-78204394D01*
X205827329Y-78184708D01*
X205794888Y-78165978D01*
X205718464Y-78145500D01*
X205718462Y-78145500D01*
X205359879Y-78145500D01*
X205301688Y-78126593D01*
X205289875Y-78116504D01*
X205078096Y-77904725D01*
X205050319Y-77850208D01*
X205049100Y-77834721D01*
X205049100Y-77665921D01*
X205068007Y-77607730D01*
X205078090Y-77595923D01*
X205149100Y-77524914D01*
X205154935Y-77514807D01*
X205214990Y-77410790D01*
X205214990Y-77410788D01*
X205214992Y-77410786D01*
X205249100Y-77283492D01*
X205249100Y-77151708D01*
X205214992Y-77024414D01*
X205214990Y-77024411D01*
X205214990Y-77024409D01*
X205149103Y-76910290D01*
X205149101Y-76910288D01*
X205149100Y-76910286D01*
X205055914Y-76817100D01*
X205055911Y-76817098D01*
X205055909Y-76817096D01*
X204941789Y-76751209D01*
X204941791Y-76751209D01*
X204892399Y-76737975D01*
X204814492Y-76717100D01*
X204682708Y-76717100D01*
X204604800Y-76737975D01*
X204555409Y-76751209D01*
X204441290Y-76817096D01*
X204348096Y-76910290D01*
X204282209Y-77024409D01*
X204265582Y-77086463D01*
X204248100Y-77151708D01*
X204248100Y-77283492D01*
X204276729Y-77390339D01*
X204282209Y-77410790D01*
X204348096Y-77524909D01*
X204348098Y-77524911D01*
X204348100Y-77524914D01*
X204419105Y-77595919D01*
X204446881Y-77650434D01*
X204448100Y-77665921D01*
X204448100Y-78039764D01*
X204468578Y-78116188D01*
X204474586Y-78126593D01*
X204497112Y-78165609D01*
X204497113Y-78165613D01*
X204497114Y-78165613D01*
X204508138Y-78184708D01*
X204508139Y-78184710D01*
X204953939Y-78630511D01*
X205005327Y-78681898D01*
X205033105Y-78736414D01*
X205023534Y-78796846D01*
X205021061Y-78801401D01*
X204999809Y-78838210D01*
X204999808Y-78838214D01*
X204965700Y-78965508D01*
X204965700Y-79097292D01*
X204985528Y-79171292D01*
X204999809Y-79224590D01*
X205065696Y-79338709D01*
X205065698Y-79338711D01*
X205065700Y-79338714D01*
X205158886Y-79431900D01*
X205273014Y-79497792D01*
X205306523Y-79506770D01*
X205357836Y-79540092D01*
X205379764Y-79597213D01*
X205379900Y-79602396D01*
X205379900Y-79756300D01*
X205360993Y-79814491D01*
X205311493Y-79850455D01*
X205255278Y-79851927D01*
X205220437Y-79842592D01*
X205204792Y-79838400D01*
X205073008Y-79838400D01*
X204995100Y-79859275D01*
X204945709Y-79872509D01*
X204831590Y-79938396D01*
X204738396Y-80031590D01*
X204672509Y-80145709D01*
X204654905Y-80211409D01*
X204638400Y-80273008D01*
X204638400Y-80404792D01*
X204656917Y-80473900D01*
X204672509Y-80532090D01*
X204738396Y-80646209D01*
X204738398Y-80646211D01*
X204738400Y-80646214D01*
X204831586Y-80739400D01*
X204831588Y-80739401D01*
X204831590Y-80739403D01*
X204945710Y-80805290D01*
X204945708Y-80805290D01*
X204945712Y-80805291D01*
X204945714Y-80805292D01*
X205073008Y-80839400D01*
X205073010Y-80839400D01*
X205173421Y-80839400D01*
X205231612Y-80858307D01*
X205243425Y-80868396D01*
X205820504Y-81445475D01*
X205848281Y-81499992D01*
X205849500Y-81515479D01*
X205849500Y-83120521D01*
X205830593Y-83178712D01*
X205781093Y-83214676D01*
X205719907Y-83214676D01*
X205680496Y-83190525D01*
X204565696Y-82075725D01*
X204537919Y-82021208D01*
X204536700Y-82005721D01*
X204536700Y-81905309D01*
X204518399Y-81837008D01*
X204502592Y-81778014D01*
X204502590Y-81778011D01*
X204502590Y-81778009D01*
X204436703Y-81663890D01*
X204436701Y-81663888D01*
X204436700Y-81663886D01*
X204343514Y-81570700D01*
X204343511Y-81570698D01*
X204343509Y-81570696D01*
X204229389Y-81504809D01*
X204229391Y-81504809D01*
X204179999Y-81491575D01*
X204102092Y-81470700D01*
X203970308Y-81470700D01*
X203892400Y-81491575D01*
X203843009Y-81504809D01*
X203728890Y-81570696D01*
X203635696Y-81663890D01*
X203569809Y-81778009D01*
X203569808Y-81778014D01*
X203535700Y-81905308D01*
X203535700Y-82037092D01*
X203544746Y-82070852D01*
X203569809Y-82164390D01*
X203635696Y-82278509D01*
X203635698Y-82278511D01*
X203635700Y-82278514D01*
X203728886Y-82371700D01*
X203728888Y-82371701D01*
X203728890Y-82371703D01*
X203843010Y-82437590D01*
X203843008Y-82437590D01*
X203843012Y-82437591D01*
X203843014Y-82437592D01*
X203970308Y-82471700D01*
X203970310Y-82471700D01*
X204070721Y-82471700D01*
X204128912Y-82490607D01*
X204140725Y-82500696D01*
X205470504Y-83830475D01*
X205498281Y-83884992D01*
X205499500Y-83900479D01*
X205499500Y-86270542D01*
X205480593Y-86328733D01*
X205470504Y-86340546D01*
X204983178Y-86827872D01*
X204928661Y-86855649D01*
X204913174Y-86856868D01*
X204812762Y-86856868D01*
X204736056Y-86877421D01*
X204685463Y-86890977D01*
X204571344Y-86956864D01*
X204478150Y-87050058D01*
X204412263Y-87164177D01*
X204399076Y-87213392D01*
X204378154Y-87291476D01*
X204378154Y-87423260D01*
X204403532Y-87517972D01*
X204412263Y-87550558D01*
X204478150Y-87664677D01*
X204478152Y-87664679D01*
X204478154Y-87664682D01*
X204571340Y-87757868D01*
X204571342Y-87757869D01*
X204571344Y-87757871D01*
X204685464Y-87823758D01*
X204685462Y-87823758D01*
X204685466Y-87823759D01*
X204685468Y-87823760D01*
X204812762Y-87857868D01*
X204836500Y-87857868D01*
X204894691Y-87876775D01*
X204930655Y-87926275D01*
X204935500Y-87956868D01*
X204935500Y-91142147D01*
X204916593Y-91200338D01*
X204886000Y-91227883D01*
X204831590Y-91259296D01*
X204738396Y-91352490D01*
X204672509Y-91466609D01*
X204654711Y-91533035D01*
X204638400Y-91593908D01*
X204638400Y-91725692D01*
X204662651Y-91816200D01*
X204672509Y-91852990D01*
X204738396Y-91967109D01*
X204738398Y-91967111D01*
X204738400Y-91967114D01*
X204831586Y-92060300D01*
X204831588Y-92060301D01*
X204831590Y-92060303D01*
X204945710Y-92126190D01*
X204945708Y-92126190D01*
X204945712Y-92126191D01*
X204945714Y-92126192D01*
X205073008Y-92160300D01*
X205073010Y-92160300D01*
X205204790Y-92160300D01*
X205204792Y-92160300D01*
X205332086Y-92126192D01*
X205332088Y-92126190D01*
X205332090Y-92126190D01*
X205446209Y-92060303D01*
X205446209Y-92060302D01*
X205446214Y-92060300D01*
X205539400Y-91967114D01*
X205553963Y-91941890D01*
X205605290Y-91852990D01*
X205605290Y-91852988D01*
X205605292Y-91852986D01*
X205639400Y-91725692D01*
X205639400Y-91593908D01*
X205605292Y-91466614D01*
X205599514Y-91456607D01*
X205549763Y-91370435D01*
X205536500Y-91320935D01*
X205536500Y-88599821D01*
X205555407Y-88541630D01*
X205604907Y-88505666D01*
X205661122Y-88504195D01*
X205720108Y-88520000D01*
X205720109Y-88520000D01*
X205820521Y-88520000D01*
X205878712Y-88538907D01*
X205890525Y-88548996D01*
X208117940Y-90776411D01*
X208117939Y-90776411D01*
X208173889Y-90832360D01*
X208242407Y-90871919D01*
X208242411Y-90871921D01*
X208318835Y-90892399D01*
X208318837Y-90892400D01*
X213700920Y-90892400D01*
X213759111Y-90911307D01*
X213795075Y-90960807D01*
X213795075Y-91021993D01*
X213770924Y-91061404D01*
X212912625Y-91919704D01*
X212858108Y-91947481D01*
X212842621Y-91948700D01*
X207558221Y-91948700D01*
X207500030Y-91929793D01*
X207488223Y-91919709D01*
X207417214Y-91848700D01*
X207417211Y-91848698D01*
X207417209Y-91848696D01*
X207303089Y-91782809D01*
X207303091Y-91782809D01*
X207253699Y-91769575D01*
X207175792Y-91748700D01*
X207044008Y-91748700D01*
X206966100Y-91769575D01*
X206916709Y-91782809D01*
X206802590Y-91848696D01*
X206709396Y-91941890D01*
X206643509Y-92056009D01*
X206639038Y-92072695D01*
X206609400Y-92183308D01*
X206609400Y-92315092D01*
X206639479Y-92427351D01*
X206643509Y-92442390D01*
X206709396Y-92556509D01*
X206709398Y-92556511D01*
X206709400Y-92556514D01*
X206802586Y-92649700D01*
X206802588Y-92649701D01*
X206802590Y-92649703D01*
X206916710Y-92715590D01*
X206916708Y-92715590D01*
X206916712Y-92715591D01*
X206916714Y-92715592D01*
X207044008Y-92749700D01*
X207044010Y-92749700D01*
X207175790Y-92749700D01*
X207175792Y-92749700D01*
X207303086Y-92715592D01*
X207303088Y-92715590D01*
X207303090Y-92715590D01*
X207417209Y-92649703D01*
X207417209Y-92649702D01*
X207417214Y-92649700D01*
X207488219Y-92578694D01*
X207542734Y-92550919D01*
X207558221Y-92549700D01*
X213047663Y-92549700D01*
X213047663Y-92549699D01*
X213124089Y-92529221D01*
X213192611Y-92489660D01*
X213248560Y-92433711D01*
X215861260Y-89821011D01*
X215861263Y-89821006D01*
X215900820Y-89752492D01*
X215900820Y-89752490D01*
X215900822Y-89752488D01*
X215921300Y-89676062D01*
X215921300Y-89596938D01*
X215921300Y-87223021D01*
X215940207Y-87164830D01*
X215950290Y-87153023D01*
X216021300Y-87082014D01*
X216039752Y-87050054D01*
X216087190Y-86967890D01*
X216087190Y-86967888D01*
X216087192Y-86967886D01*
X216121300Y-86840592D01*
X216121300Y-86708808D01*
X216087192Y-86581514D01*
X216087190Y-86581511D01*
X216087190Y-86581509D01*
X216021303Y-86467390D01*
X216021301Y-86467388D01*
X216021300Y-86467386D01*
X215928114Y-86374200D01*
X215928111Y-86374198D01*
X215928109Y-86374196D01*
X215813989Y-86308309D01*
X215813991Y-86308309D01*
X215761643Y-86294283D01*
X215686692Y-86274200D01*
X215554908Y-86274200D01*
X215479957Y-86294283D01*
X215427609Y-86308309D01*
X215348200Y-86354157D01*
X215288352Y-86366879D01*
X215232456Y-86341992D01*
X215201863Y-86289004D01*
X215199700Y-86268421D01*
X215199700Y-84832466D01*
X215218607Y-84774275D01*
X215268107Y-84738311D01*
X215324319Y-84736839D01*
X215400308Y-84757200D01*
X215400310Y-84757200D01*
X215532090Y-84757200D01*
X215532092Y-84757200D01*
X215659386Y-84723092D01*
X215659388Y-84723090D01*
X215659390Y-84723090D01*
X215773509Y-84657203D01*
X215773509Y-84657202D01*
X215773514Y-84657200D01*
X215866700Y-84564014D01*
X215932592Y-84449886D01*
X215966700Y-84322592D01*
X215966700Y-84190808D01*
X215932592Y-84063514D01*
X215932590Y-84063511D01*
X215932590Y-84063509D01*
X215866703Y-83949390D01*
X215866701Y-83949388D01*
X215866700Y-83949386D01*
X215773514Y-83856200D01*
X215773511Y-83856198D01*
X215773509Y-83856196D01*
X215659389Y-83790309D01*
X215659386Y-83790308D01*
X215624775Y-83781033D01*
X215573461Y-83747708D01*
X215551536Y-83690586D01*
X215551400Y-83685407D01*
X215551400Y-82373672D01*
X215570307Y-82315481D01*
X215619807Y-82279517D01*
X215676020Y-82278045D01*
X215768408Y-82302800D01*
X215768410Y-82302800D01*
X215900190Y-82302800D01*
X215900192Y-82302800D01*
X216027486Y-82268692D01*
X216027488Y-82268690D01*
X216027490Y-82268690D01*
X216141609Y-82202803D01*
X216141609Y-82202802D01*
X216141614Y-82202800D01*
X216234800Y-82109614D01*
X216257179Y-82070852D01*
X216300690Y-81995490D01*
X216300690Y-81995488D01*
X216300692Y-81995486D01*
X216334800Y-81868192D01*
X216334800Y-81736408D01*
X216318597Y-81675938D01*
X216316173Y-81666889D01*
X216312800Y-81641267D01*
X216312800Y-63346121D01*
X216331707Y-63287930D01*
X216341790Y-63276123D01*
X216412800Y-63205114D01*
X216478692Y-63090986D01*
X216512800Y-62963692D01*
X216512800Y-62831908D01*
X216478692Y-62704614D01*
X216478690Y-62704611D01*
X216478690Y-62704609D01*
X216412803Y-62590490D01*
X216412801Y-62590488D01*
X216412800Y-62590486D01*
X216319614Y-62497300D01*
X216319611Y-62497298D01*
X216319609Y-62497296D01*
X216205489Y-62431409D01*
X216205491Y-62431409D01*
X216156099Y-62418175D01*
X216078192Y-62397300D01*
X215946408Y-62397300D01*
X215868500Y-62418175D01*
X215819109Y-62431409D01*
X215704990Y-62497296D01*
X215611796Y-62590490D01*
X215545909Y-62704609D01*
X215545908Y-62704614D01*
X215511800Y-62831908D01*
X215511800Y-62963692D01*
X215541879Y-63075951D01*
X215545909Y-63090990D01*
X215611796Y-63205109D01*
X215611798Y-63205111D01*
X215611800Y-63205114D01*
X215682805Y-63276119D01*
X215710581Y-63330634D01*
X215711800Y-63346121D01*
X215711800Y-76753916D01*
X215692893Y-76812107D01*
X215643393Y-76848071D01*
X215587178Y-76849543D01*
X215545798Y-76838455D01*
X215519092Y-76831300D01*
X215387308Y-76831300D01*
X215324321Y-76848176D01*
X215263221Y-76844974D01*
X215215671Y-76806469D01*
X215199700Y-76752550D01*
X215199700Y-75994021D01*
X215218607Y-75935830D01*
X215228690Y-75924023D01*
X215299700Y-75853014D01*
X215302763Y-75847709D01*
X215365590Y-75738890D01*
X215365590Y-75738888D01*
X215365592Y-75738886D01*
X215399700Y-75611592D01*
X215399700Y-75479808D01*
X215365592Y-75352514D01*
X215365590Y-75352511D01*
X215365590Y-75352509D01*
X215299703Y-75238390D01*
X215299701Y-75238388D01*
X215299700Y-75238386D01*
X215206514Y-75145200D01*
X215206511Y-75145198D01*
X215206509Y-75145196D01*
X215092389Y-75079309D01*
X215092391Y-75079309D01*
X215033624Y-75063563D01*
X214965092Y-75045200D01*
X214833308Y-75045200D01*
X214764776Y-75063563D01*
X214706009Y-75079309D01*
X214591890Y-75145196D01*
X214591885Y-75145200D01*
X214512937Y-75224148D01*
X214458420Y-75251925D01*
X214397988Y-75242353D01*
X214354724Y-75199089D01*
X214347310Y-75179775D01*
X214335021Y-75133911D01*
X214334478Y-75132971D01*
X214295460Y-75065389D01*
X214239511Y-75009439D01*
X214239511Y-75009440D01*
X211240411Y-72010340D01*
X211240408Y-72010338D01*
X211240407Y-72010337D01*
X211221637Y-71999501D01*
X211221637Y-71999500D01*
X211221633Y-71999499D01*
X211185255Y-71978496D01*
X211171888Y-71970778D01*
X211095464Y-71950300D01*
X211095462Y-71950300D01*
X209206838Y-71950300D01*
X209206835Y-71950300D01*
X209130411Y-71970778D01*
X209080667Y-71999499D01*
X209080663Y-71999501D01*
X209061891Y-72010338D01*
X209061889Y-72010339D01*
X208902224Y-72170004D01*
X208847708Y-72197781D01*
X208832221Y-72199000D01*
X207525879Y-72199000D01*
X207467688Y-72180093D01*
X207431724Y-72130593D01*
X207431724Y-72069407D01*
X207455875Y-72029996D01*
X207937578Y-71548293D01*
X208418724Y-71067147D01*
X213644501Y-71067147D01*
X213644501Y-71152853D01*
X213666683Y-71235638D01*
X213709536Y-71309862D01*
X213770139Y-71370465D01*
X213844363Y-71413318D01*
X213927148Y-71435500D01*
X213927150Y-71435500D01*
X214012852Y-71435500D01*
X214012854Y-71435500D01*
X214095639Y-71413318D01*
X214169863Y-71370465D01*
X214230466Y-71309862D01*
X214273319Y-71235638D01*
X214295501Y-71152853D01*
X214295501Y-71067147D01*
X214273319Y-70984362D01*
X214230466Y-70910138D01*
X214169863Y-70849535D01*
X214095639Y-70806682D01*
X214012854Y-70784500D01*
X213927148Y-70784500D01*
X213844363Y-70806682D01*
X213770139Y-70849535D01*
X213709536Y-70910138D01*
X213666683Y-70984362D01*
X213644501Y-71067147D01*
X208418724Y-71067147D01*
X208568360Y-70917511D01*
X208607922Y-70848988D01*
X208628400Y-70772562D01*
X208628400Y-70772560D01*
X208630079Y-70766294D01*
X208632688Y-70766993D01*
X208654092Y-70722071D01*
X208655893Y-70720220D01*
X208728400Y-70647714D01*
X208794292Y-70533586D01*
X208828400Y-70406292D01*
X208828400Y-70274508D01*
X208794292Y-70147214D01*
X208794290Y-70147211D01*
X208794290Y-70147209D01*
X208728403Y-70033090D01*
X208728401Y-70033088D01*
X208728400Y-70033086D01*
X208635214Y-69939900D01*
X208635211Y-69939898D01*
X208635209Y-69939896D01*
X208521089Y-69874009D01*
X208521091Y-69874009D01*
X208471699Y-69860775D01*
X208393792Y-69839900D01*
X208262008Y-69839900D01*
X208184100Y-69860775D01*
X208134709Y-69874009D01*
X208020590Y-69939896D01*
X207927396Y-70033090D01*
X207861509Y-70147209D01*
X207851171Y-70185793D01*
X207832976Y-70253700D01*
X207827400Y-70274509D01*
X207827400Y-70371832D01*
X207808493Y-70430023D01*
X207758993Y-70465987D01*
X207697807Y-70465987D01*
X207677952Y-70455545D01*
X207677434Y-70456444D01*
X207557689Y-70387309D01*
X207557685Y-70387307D01*
X207456014Y-70360064D01*
X207416416Y-70337203D01*
X207416059Y-70337669D01*
X207412521Y-70334954D01*
X207411636Y-70334443D01*
X207410913Y-70333720D01*
X207410910Y-70333718D01*
X207410908Y-70333716D01*
X207319591Y-70280994D01*
X207319593Y-70280994D01*
X207280070Y-70270404D01*
X207217727Y-70253700D01*
X207217725Y-70253700D01*
X205613806Y-70253700D01*
X205613790Y-70253699D01*
X205607727Y-70253699D01*
X205502273Y-70253699D01*
X205478823Y-70259982D01*
X205425429Y-70274289D01*
X205364327Y-70271086D01*
X205316777Y-70232581D01*
X205304179Y-70204285D01*
X205302900Y-70199511D01*
X205302900Y-70199508D01*
X205268792Y-70072214D01*
X205268790Y-70072211D01*
X205268790Y-70072209D01*
X205202903Y-69958090D01*
X205202901Y-69958088D01*
X205202900Y-69958086D01*
X205109714Y-69864900D01*
X205109711Y-69864898D01*
X205109709Y-69864896D01*
X204995589Y-69799009D01*
X204995591Y-69799009D01*
X204946199Y-69785775D01*
X204868292Y-69764900D01*
X204767879Y-69764900D01*
X204709688Y-69745993D01*
X204697875Y-69735904D01*
X204567575Y-69605604D01*
X204539798Y-69551087D01*
X204549369Y-69490655D01*
X204592634Y-69447390D01*
X204637579Y-69436600D01*
X204672490Y-69436600D01*
X204672492Y-69436600D01*
X204799786Y-69402492D01*
X204799788Y-69402490D01*
X204799790Y-69402490D01*
X204913909Y-69336603D01*
X204913909Y-69336602D01*
X204913914Y-69336600D01*
X205007100Y-69243414D01*
X205032873Y-69198774D01*
X205072990Y-69129290D01*
X205072990Y-69129288D01*
X205072992Y-69129286D01*
X205107100Y-69001992D01*
X205107100Y-68901578D01*
X205126007Y-68843387D01*
X205136096Y-68831574D01*
X207216174Y-66751496D01*
X207270691Y-66723719D01*
X207286178Y-66722500D01*
X207386590Y-66722500D01*
X207386592Y-66722500D01*
X207513886Y-66688392D01*
X207513888Y-66688390D01*
X207513890Y-66688390D01*
X207628009Y-66622503D01*
X207628009Y-66622502D01*
X207628014Y-66622500D01*
X207721200Y-66529314D01*
X207737341Y-66501357D01*
X207787090Y-66415190D01*
X207787090Y-66415188D01*
X207787092Y-66415186D01*
X207821200Y-66287892D01*
X207821200Y-66156108D01*
X207787092Y-66028814D01*
X207787090Y-66028811D01*
X207787090Y-66028809D01*
X207721203Y-65914690D01*
X207721201Y-65914688D01*
X207721200Y-65914686D01*
X207628014Y-65821500D01*
X207628011Y-65821498D01*
X207628009Y-65821496D01*
X207513889Y-65755609D01*
X207513891Y-65755609D01*
X207459696Y-65741088D01*
X207386592Y-65721500D01*
X207254808Y-65721500D01*
X207181704Y-65741088D01*
X207127509Y-65755609D01*
X207013390Y-65821496D01*
X206920196Y-65914690D01*
X206854309Y-66028809D01*
X206820200Y-66156109D01*
X206820200Y-66256520D01*
X206801293Y-66314711D01*
X206791203Y-66326524D01*
X206563103Y-66554623D01*
X206508587Y-66582400D01*
X206448155Y-66572829D01*
X206407365Y-66534121D01*
X206357000Y-66446886D01*
X206263814Y-66353700D01*
X206263811Y-66353698D01*
X206263809Y-66353696D01*
X206149689Y-66287809D01*
X206149691Y-66287809D01*
X206100299Y-66274575D01*
X206022392Y-66253700D01*
X205890608Y-66253700D01*
X205812700Y-66274575D01*
X205763309Y-66287809D01*
X205649190Y-66353696D01*
X205555998Y-66446888D01*
X205545471Y-66465122D01*
X205509236Y-66501357D01*
X205487791Y-66513738D01*
X204463724Y-67537804D01*
X204409207Y-67565581D01*
X204393720Y-67566800D01*
X204293308Y-67566800D01*
X204215400Y-67587675D01*
X204166009Y-67600909D01*
X204051890Y-67666796D01*
X203958696Y-67759990D01*
X203892809Y-67874109D01*
X203892808Y-67874114D01*
X203858700Y-68001408D01*
X203858700Y-68133192D01*
X203888779Y-68245451D01*
X203892809Y-68260490D01*
X203958696Y-68374609D01*
X203958698Y-68374611D01*
X203958700Y-68374614D01*
X204051886Y-68467800D01*
X204151519Y-68525323D01*
X204192460Y-68570792D01*
X204198856Y-68631642D01*
X204187755Y-68660559D01*
X204140209Y-68742909D01*
X204140208Y-68742914D01*
X204106100Y-68870208D01*
X204106100Y-69001992D01*
X204112824Y-69027086D01*
X204140209Y-69129288D01*
X204152975Y-69151399D01*
X204165697Y-69211247D01*
X204140811Y-69267143D01*
X204087823Y-69297736D01*
X204067239Y-69299900D01*
X201905287Y-69299900D01*
X201847096Y-69280993D01*
X201811132Y-69231493D01*
X201811132Y-69170307D01*
X201819551Y-69151399D01*
X201825431Y-69141214D01*
X201828392Y-69136086D01*
X201862500Y-69008792D01*
X201862500Y-68877008D01*
X201828392Y-68749714D01*
X201828390Y-68749711D01*
X201828390Y-68749709D01*
X201762503Y-68635590D01*
X201762501Y-68635588D01*
X201762500Y-68635586D01*
X201669314Y-68542400D01*
X201669311Y-68542398D01*
X201669309Y-68542396D01*
X201555189Y-68476509D01*
X201555191Y-68476509D01*
X201505799Y-68463275D01*
X201427892Y-68442400D01*
X201296108Y-68442400D01*
X201218200Y-68463275D01*
X201168809Y-68476509D01*
X201054690Y-68542396D01*
X200961496Y-68635590D01*
X200895609Y-68749709D01*
X200895608Y-68749714D01*
X200861500Y-68877008D01*
X200861500Y-69008792D01*
X200866402Y-69027086D01*
X200895609Y-69136090D01*
X200961496Y-69250209D01*
X200961498Y-69250211D01*
X200961500Y-69250214D01*
X201032505Y-69321219D01*
X201060281Y-69375734D01*
X201061500Y-69391221D01*
X201061500Y-69434921D01*
X201042593Y-69493112D01*
X201032504Y-69504925D01*
X200977125Y-69560304D01*
X200922608Y-69588081D01*
X200907121Y-69589300D01*
X199321275Y-69589300D01*
X199263084Y-69570393D01*
X199227120Y-69520893D01*
X199225648Y-69464677D01*
X199233621Y-69434921D01*
X199242900Y-69400292D01*
X199242900Y-69299878D01*
X199261807Y-69241687D01*
X199271896Y-69229874D01*
X199758861Y-68742909D01*
X200293260Y-68208511D01*
X200309721Y-68180000D01*
X200332821Y-68139989D01*
X200353300Y-68063562D01*
X200353300Y-67756021D01*
X200372207Y-67697830D01*
X200382290Y-67686023D01*
X200453300Y-67615014D01*
X200479961Y-67568836D01*
X200519190Y-67500890D01*
X200519190Y-67500888D01*
X200519192Y-67500886D01*
X200553300Y-67373592D01*
X200553300Y-67241808D01*
X200519192Y-67114514D01*
X200519190Y-67114511D01*
X200519190Y-67114509D01*
X200453303Y-67000390D01*
X200453301Y-67000388D01*
X200453300Y-67000386D01*
X200360114Y-66907200D01*
X200360111Y-66907198D01*
X200360109Y-66907196D01*
X200245989Y-66841309D01*
X200245991Y-66841309D01*
X200196599Y-66828075D01*
X200118692Y-66807200D01*
X199986908Y-66807200D01*
X199909000Y-66828075D01*
X199859609Y-66841309D01*
X199745490Y-66907196D01*
X199652296Y-67000390D01*
X199586409Y-67114509D01*
X199574195Y-67160093D01*
X199552300Y-67241808D01*
X199552300Y-67373592D01*
X199582379Y-67485851D01*
X199586409Y-67500890D01*
X199652296Y-67615009D01*
X199652298Y-67615011D01*
X199652300Y-67615014D01*
X199723305Y-67686019D01*
X199751081Y-67740534D01*
X199752300Y-67756021D01*
X199752300Y-67858520D01*
X199733393Y-67916711D01*
X199723304Y-67928524D01*
X198846924Y-68804904D01*
X198792407Y-68832681D01*
X198776920Y-68833900D01*
X198676508Y-68833900D01*
X198598600Y-68854775D01*
X198549209Y-68868009D01*
X198435090Y-68933896D01*
X198341896Y-69027090D01*
X198276009Y-69141210D01*
X198276007Y-69141214D01*
X198272474Y-69154399D01*
X198239147Y-69205711D01*
X198182025Y-69227635D01*
X198122925Y-69211795D01*
X198106845Y-69198774D01*
X196692096Y-67784025D01*
X196664319Y-67729508D01*
X196663100Y-67714021D01*
X196663100Y-67613609D01*
X196650231Y-67565581D01*
X196628992Y-67486314D01*
X196628990Y-67486311D01*
X196628990Y-67486309D01*
X196563103Y-67372190D01*
X196563101Y-67372188D01*
X196563100Y-67372186D01*
X196469914Y-67279000D01*
X196469911Y-67278998D01*
X196469909Y-67278996D01*
X196355789Y-67213109D01*
X196355791Y-67213109D01*
X196306399Y-67199875D01*
X196228492Y-67179000D01*
X196128079Y-67179000D01*
X196069888Y-67160093D01*
X196058075Y-67150004D01*
X194437696Y-65529625D01*
X194409919Y-65475108D01*
X194408700Y-65459621D01*
X194408700Y-60979008D01*
X198480000Y-60979008D01*
X198480000Y-61110792D01*
X198503182Y-61197309D01*
X198514109Y-61238090D01*
X198579996Y-61352209D01*
X198579998Y-61352211D01*
X198580000Y-61352214D01*
X198673186Y-61445400D01*
X198673188Y-61445401D01*
X198673190Y-61445403D01*
X198787310Y-61511290D01*
X198787308Y-61511290D01*
X198787312Y-61511291D01*
X198787314Y-61511292D01*
X198914608Y-61545400D01*
X198914610Y-61545400D01*
X199046390Y-61545400D01*
X199046392Y-61545400D01*
X199173686Y-61511292D01*
X199173688Y-61511290D01*
X199173690Y-61511290D01*
X199287809Y-61445403D01*
X199287809Y-61445402D01*
X199287814Y-61445400D01*
X199358819Y-61374394D01*
X199413334Y-61346619D01*
X199428821Y-61345400D01*
X209261249Y-61345400D01*
X209300035Y-61355794D01*
X209300817Y-61353908D01*
X209306809Y-61356390D01*
X209306811Y-61356390D01*
X209306814Y-61356392D01*
X209434108Y-61390500D01*
X209434110Y-61390500D01*
X209565890Y-61390500D01*
X209565892Y-61390500D01*
X209693186Y-61356392D01*
X209693188Y-61356390D01*
X209693190Y-61356390D01*
X209807309Y-61290503D01*
X209807309Y-61290502D01*
X209807314Y-61290500D01*
X209900500Y-61197314D01*
X209966392Y-61083186D01*
X210000500Y-60955892D01*
X210000500Y-60824108D01*
X209966392Y-60696814D01*
X209966390Y-60696811D01*
X209966390Y-60696809D01*
X209900503Y-60582690D01*
X209900501Y-60582688D01*
X209900500Y-60582686D01*
X209807314Y-60489500D01*
X209807311Y-60489498D01*
X209807309Y-60489496D01*
X209693189Y-60423609D01*
X209693191Y-60423609D01*
X209643799Y-60410375D01*
X209565892Y-60389500D01*
X209434108Y-60389500D01*
X209356200Y-60410375D01*
X209306809Y-60423609D01*
X209192690Y-60489496D01*
X209099496Y-60582690D01*
X209034712Y-60694900D01*
X208989243Y-60735841D01*
X208948976Y-60744400D01*
X199428821Y-60744400D01*
X199370630Y-60725493D01*
X199358823Y-60715409D01*
X199287814Y-60644400D01*
X199287811Y-60644398D01*
X199287809Y-60644396D01*
X199173689Y-60578509D01*
X199173691Y-60578509D01*
X199124299Y-60565275D01*
X199046392Y-60544400D01*
X198914608Y-60544400D01*
X198836700Y-60565275D01*
X198787309Y-60578509D01*
X198673190Y-60644396D01*
X198579996Y-60737590D01*
X198514109Y-60851709D01*
X198514108Y-60851714D01*
X198480000Y-60979008D01*
X194408700Y-60979008D01*
X194408700Y-54609008D01*
X195214600Y-54609008D01*
X195214600Y-54740792D01*
X195244679Y-54853051D01*
X195248709Y-54868090D01*
X195314596Y-54982209D01*
X195314598Y-54982211D01*
X195314600Y-54982214D01*
X195407786Y-55075400D01*
X195407788Y-55075401D01*
X195407790Y-55075403D01*
X195521910Y-55141290D01*
X195521908Y-55141290D01*
X195521912Y-55141291D01*
X195521914Y-55141292D01*
X195649208Y-55175400D01*
X195649210Y-55175400D01*
X195780990Y-55175400D01*
X195780992Y-55175400D01*
X195908286Y-55141292D01*
X195908288Y-55141290D01*
X195908290Y-55141290D01*
X196022409Y-55075403D01*
X196022409Y-55075402D01*
X196022414Y-55075400D01*
X196115600Y-54982214D01*
X196181492Y-54868086D01*
X196215600Y-54740792D01*
X196215600Y-54640378D01*
X196234507Y-54582187D01*
X196244596Y-54570374D01*
X196588562Y-54226408D01*
X203038900Y-54226408D01*
X203038900Y-54358192D01*
X203068979Y-54470451D01*
X203073009Y-54485490D01*
X203138896Y-54599609D01*
X203138898Y-54599611D01*
X203138900Y-54599614D01*
X203232086Y-54692800D01*
X203232088Y-54692801D01*
X203232090Y-54692803D01*
X203346210Y-54758690D01*
X203346208Y-54758690D01*
X203346212Y-54758691D01*
X203346214Y-54758692D01*
X203473508Y-54792800D01*
X203473510Y-54792800D01*
X203605290Y-54792800D01*
X203605292Y-54792800D01*
X203732586Y-54758692D01*
X203732588Y-54758690D01*
X203732590Y-54758690D01*
X203846709Y-54692803D01*
X203846709Y-54692802D01*
X203846714Y-54692800D01*
X203939900Y-54599614D01*
X204005792Y-54485486D01*
X204033033Y-54383814D01*
X204058653Y-54339438D01*
X207194580Y-51203513D01*
X207247307Y-51112188D01*
X207274600Y-51010327D01*
X207274600Y-50904873D01*
X207274600Y-48591640D01*
X207287863Y-48542141D01*
X207340492Y-48450986D01*
X207374600Y-48323692D01*
X207374600Y-48191908D01*
X207340492Y-48064614D01*
X207340490Y-48064611D01*
X207340490Y-48064609D01*
X207274603Y-47950490D01*
X207274601Y-47950488D01*
X207274600Y-47950486D01*
X207183715Y-47859601D01*
X213500000Y-47859601D01*
X213500000Y-48140398D01*
X213531438Y-48419423D01*
X213593922Y-48693182D01*
X213686661Y-48958214D01*
X213686662Y-48958217D01*
X213808492Y-49211201D01*
X213957885Y-49448958D01*
X214126931Y-49660934D01*
X215123219Y-48664645D01*
X215160967Y-48716602D01*
X215283398Y-48839033D01*
X215335351Y-48876779D01*
X214339064Y-49873067D01*
X214551041Y-50042114D01*
X214788798Y-50191507D01*
X215041782Y-50313337D01*
X215041785Y-50313338D01*
X215306817Y-50406077D01*
X215580576Y-50468561D01*
X215859601Y-50499999D01*
X215859604Y-50500000D01*
X216140396Y-50500000D01*
X216140398Y-50499999D01*
X216419423Y-50468561D01*
X216693182Y-50406077D01*
X216958214Y-50313338D01*
X216958217Y-50313337D01*
X217211201Y-50191507D01*
X217448958Y-50042114D01*
X217660934Y-49873067D01*
X216664647Y-48876780D01*
X216716602Y-48839033D01*
X216839033Y-48716602D01*
X216876780Y-48664647D01*
X217873067Y-49660934D01*
X218042114Y-49448958D01*
X218191507Y-49211201D01*
X218313337Y-48958217D01*
X218313338Y-48958214D01*
X218406077Y-48693182D01*
X218468561Y-48419423D01*
X218499999Y-48140398D01*
X218500000Y-48140396D01*
X218500000Y-47859603D01*
X218499999Y-47859601D01*
X218468561Y-47580576D01*
X218406077Y-47306817D01*
X218313338Y-47041785D01*
X218313337Y-47041782D01*
X218191507Y-46788798D01*
X218042114Y-46551041D01*
X217873067Y-46339064D01*
X216876779Y-47335351D01*
X216839033Y-47283398D01*
X216716602Y-47160967D01*
X216664645Y-47123219D01*
X217660934Y-46126931D01*
X217448958Y-45957885D01*
X217211201Y-45808492D01*
X216958217Y-45686662D01*
X216958214Y-45686661D01*
X216693182Y-45593922D01*
X216419423Y-45531438D01*
X216140398Y-45500000D01*
X215859601Y-45500000D01*
X215580576Y-45531438D01*
X215306817Y-45593922D01*
X215041785Y-45686661D01*
X215041782Y-45686662D01*
X214788798Y-45808492D01*
X214551041Y-45957885D01*
X214339064Y-46126931D01*
X215335352Y-47123219D01*
X215283398Y-47160967D01*
X215160967Y-47283398D01*
X215123219Y-47335352D01*
X214126931Y-46339064D01*
X213957885Y-46551041D01*
X213808492Y-46788798D01*
X213686662Y-47041782D01*
X213686661Y-47041785D01*
X213593922Y-47306817D01*
X213531438Y-47580576D01*
X213500000Y-47859601D01*
X207183715Y-47859601D01*
X207181414Y-47857300D01*
X207181411Y-47857298D01*
X207181409Y-47857296D01*
X207067289Y-47791409D01*
X207067291Y-47791409D01*
X207017899Y-47778175D01*
X206939992Y-47757300D01*
X206808208Y-47757300D01*
X206730300Y-47778175D01*
X206680909Y-47791409D01*
X206566790Y-47857296D01*
X206473596Y-47950490D01*
X206407709Y-48064609D01*
X206407708Y-48064614D01*
X206373600Y-48191908D01*
X206373600Y-48323692D01*
X206407708Y-48450986D01*
X206460336Y-48542141D01*
X206473600Y-48591640D01*
X206473600Y-50750698D01*
X206454693Y-50808889D01*
X206444604Y-50820702D01*
X205705935Y-51559370D01*
X205651418Y-51587147D01*
X205590986Y-51577576D01*
X205547721Y-51534311D01*
X205538150Y-51473879D01*
X205544467Y-51451480D01*
X205589257Y-51343349D01*
X205619999Y-51188795D01*
X205620000Y-51188792D01*
X205620000Y-50710001D01*
X205619999Y-50710000D01*
X205120000Y-50710000D01*
X205120000Y-50410000D01*
X205619999Y-50410000D01*
X205620000Y-50409999D01*
X205620000Y-49931207D01*
X205619999Y-49931204D01*
X205589257Y-49776650D01*
X205528951Y-49631059D01*
X205528947Y-49631050D01*
X205441400Y-49500030D01*
X205441397Y-49500026D01*
X205329973Y-49388602D01*
X205329969Y-49388599D01*
X205198949Y-49301052D01*
X205198940Y-49301048D01*
X205053354Y-49240744D01*
X205053350Y-49240743D01*
X204970000Y-49224163D01*
X204970000Y-49750191D01*
X204935796Y-49730444D01*
X204859496Y-49710000D01*
X204780504Y-49710000D01*
X204704204Y-49730444D01*
X204670000Y-49750191D01*
X204670000Y-49224163D01*
X204586649Y-49240743D01*
X204586645Y-49240744D01*
X204441059Y-49301048D01*
X204441050Y-49301052D01*
X204310030Y-49388599D01*
X204310026Y-49388602D01*
X204198602Y-49500026D01*
X204198599Y-49500030D01*
X204111052Y-49631050D01*
X204111048Y-49631059D01*
X204050742Y-49776650D01*
X204020000Y-49931204D01*
X204020000Y-50409999D01*
X204020001Y-50410000D01*
X204520000Y-50410000D01*
X204520000Y-50710000D01*
X204020001Y-50710000D01*
X204020000Y-50710001D01*
X204020000Y-51188795D01*
X204050742Y-51343349D01*
X204111048Y-51488940D01*
X204111052Y-51488949D01*
X204198599Y-51619969D01*
X204198602Y-51619973D01*
X204310026Y-51731397D01*
X204310030Y-51731400D01*
X204441050Y-51818947D01*
X204441059Y-51818951D01*
X204586651Y-51879257D01*
X204586650Y-51879257D01*
X204669999Y-51895835D01*
X204670000Y-51895835D01*
X204670000Y-51369808D01*
X204704204Y-51389556D01*
X204780504Y-51410000D01*
X204859496Y-51410000D01*
X204935796Y-51389556D01*
X204970000Y-51369808D01*
X204970000Y-51895835D01*
X205053348Y-51879257D01*
X205161480Y-51834467D01*
X205222476Y-51829666D01*
X205274646Y-51861635D01*
X205298061Y-51918163D01*
X205283778Y-51977658D01*
X205269370Y-51995935D01*
X203492262Y-53773043D01*
X203447882Y-53798665D01*
X203346214Y-53825907D01*
X203346210Y-53825909D01*
X203232090Y-53891796D01*
X203138896Y-53984990D01*
X203073009Y-54099109D01*
X203073008Y-54099114D01*
X203038900Y-54226408D01*
X196588562Y-54226408D01*
X196665055Y-54149915D01*
X197041928Y-53773043D01*
X197821375Y-52993596D01*
X197875892Y-52965819D01*
X197891379Y-52964600D01*
X201355979Y-52964600D01*
X201414170Y-52983507D01*
X201425976Y-52993590D01*
X201496986Y-53064600D01*
X201496988Y-53064601D01*
X201496990Y-53064603D01*
X201611110Y-53130490D01*
X201611108Y-53130490D01*
X201611112Y-53130491D01*
X201611114Y-53130492D01*
X201738408Y-53164600D01*
X201738410Y-53164600D01*
X201870190Y-53164600D01*
X201870192Y-53164600D01*
X201997486Y-53130492D01*
X201997488Y-53130490D01*
X201997490Y-53130490D01*
X202111609Y-53064603D01*
X202111609Y-53064602D01*
X202111614Y-53064600D01*
X202204800Y-52971414D01*
X202270692Y-52857286D01*
X202304800Y-52729992D01*
X202304800Y-52598208D01*
X202270692Y-52470914D01*
X202270690Y-52470911D01*
X202270690Y-52470909D01*
X202204803Y-52356790D01*
X202204801Y-52356788D01*
X202204800Y-52356786D01*
X202111614Y-52263600D01*
X202111611Y-52263598D01*
X202111609Y-52263596D01*
X201997489Y-52197709D01*
X201997491Y-52197709D01*
X201948099Y-52184475D01*
X201870192Y-52163600D01*
X201738408Y-52163600D01*
X201660500Y-52184475D01*
X201611109Y-52197709D01*
X201496990Y-52263596D01*
X201496989Y-52263597D01*
X201496986Y-52263599D01*
X201496986Y-52263600D01*
X201425980Y-52334605D01*
X201371466Y-52362381D01*
X201355979Y-52363600D01*
X197765462Y-52363600D01*
X197686338Y-52363600D01*
X197639561Y-52376133D01*
X197609907Y-52384079D01*
X197541393Y-52423636D01*
X197541392Y-52423637D01*
X195819624Y-54145404D01*
X195765107Y-54173181D01*
X195749620Y-54174400D01*
X195649208Y-54174400D01*
X195571300Y-54195275D01*
X195521909Y-54208509D01*
X195407790Y-54274396D01*
X195314596Y-54367590D01*
X195248709Y-54481709D01*
X195247697Y-54485486D01*
X195214600Y-54609008D01*
X194408700Y-54609008D01*
X194408700Y-50538821D01*
X194427607Y-50480630D01*
X194437690Y-50468823D01*
X194508700Y-50397814D01*
X194545937Y-50333318D01*
X194574590Y-50283690D01*
X194574590Y-50283688D01*
X194574592Y-50283686D01*
X194608700Y-50156392D01*
X194608700Y-50024608D01*
X194583673Y-49931204D01*
X195380000Y-49931204D01*
X195380000Y-50409999D01*
X195380001Y-50410000D01*
X195880000Y-50410000D01*
X195880000Y-50710000D01*
X195380001Y-50710000D01*
X195380000Y-50710001D01*
X195380000Y-51188795D01*
X195410742Y-51343349D01*
X195471048Y-51488940D01*
X195471052Y-51488949D01*
X195558599Y-51619969D01*
X195558602Y-51619973D01*
X195670026Y-51731397D01*
X195670030Y-51731400D01*
X195801050Y-51818947D01*
X195801059Y-51818951D01*
X195946651Y-51879257D01*
X195946650Y-51879257D01*
X196029999Y-51895835D01*
X196030000Y-51895835D01*
X196030000Y-51369808D01*
X196064204Y-51389556D01*
X196140504Y-51410000D01*
X196219496Y-51410000D01*
X196295796Y-51389556D01*
X196330000Y-51369808D01*
X196330000Y-51895835D01*
X196413348Y-51879257D01*
X196558940Y-51818951D01*
X196558949Y-51818947D01*
X196689969Y-51731400D01*
X196689973Y-51731397D01*
X196801397Y-51619973D01*
X196801400Y-51619969D01*
X196888947Y-51488949D01*
X196888951Y-51488940D01*
X196949257Y-51343349D01*
X196979999Y-51188795D01*
X196980000Y-51188792D01*
X196980000Y-50710001D01*
X196979999Y-50710000D01*
X196480000Y-50710000D01*
X196480000Y-50410000D01*
X196979999Y-50410000D01*
X196980000Y-50409999D01*
X196980000Y-49987147D01*
X197284500Y-49987147D01*
X197284500Y-50072853D01*
X197306682Y-50155638D01*
X197349535Y-50229862D01*
X197410138Y-50290465D01*
X197484362Y-50333318D01*
X197567147Y-50355500D01*
X197567149Y-50355500D01*
X197652851Y-50355500D01*
X197652853Y-50355500D01*
X197735638Y-50333318D01*
X197809862Y-50290465D01*
X197870465Y-50229862D01*
X197913318Y-50155638D01*
X197935500Y-50072853D01*
X197935500Y-49987147D01*
X203064500Y-49987147D01*
X203064500Y-50072853D01*
X203086682Y-50155638D01*
X203129535Y-50229862D01*
X203190138Y-50290465D01*
X203264362Y-50333318D01*
X203347147Y-50355500D01*
X203347149Y-50355500D01*
X203432851Y-50355500D01*
X203432853Y-50355500D01*
X203515638Y-50333318D01*
X203589862Y-50290465D01*
X203650465Y-50229862D01*
X203693318Y-50155638D01*
X203715500Y-50072853D01*
X203715500Y-49987147D01*
X203693318Y-49904362D01*
X203650465Y-49830138D01*
X203589862Y-49769535D01*
X203515638Y-49726682D01*
X203432853Y-49704500D01*
X203347147Y-49704500D01*
X203264362Y-49726682D01*
X203190138Y-49769535D01*
X203129535Y-49830138D01*
X203086682Y-49904362D01*
X203064500Y-49987147D01*
X197935500Y-49987147D01*
X197913318Y-49904362D01*
X197870465Y-49830138D01*
X197809862Y-49769535D01*
X197735638Y-49726682D01*
X197652853Y-49704500D01*
X197567147Y-49704500D01*
X197484362Y-49726682D01*
X197410138Y-49769535D01*
X197349535Y-49830138D01*
X197306682Y-49904362D01*
X197284500Y-49987147D01*
X196980000Y-49987147D01*
X196980000Y-49931207D01*
X196979999Y-49931204D01*
X196949257Y-49776650D01*
X196888951Y-49631059D01*
X196888947Y-49631050D01*
X196801400Y-49500030D01*
X196801397Y-49500026D01*
X196689973Y-49388602D01*
X196689969Y-49388599D01*
X196558949Y-49301052D01*
X196558940Y-49301048D01*
X196413354Y-49240744D01*
X196413350Y-49240743D01*
X196330000Y-49224163D01*
X196330000Y-49750191D01*
X196295796Y-49730444D01*
X196219496Y-49710000D01*
X196140504Y-49710000D01*
X196064204Y-49730444D01*
X196030000Y-49750191D01*
X196030000Y-49224163D01*
X195946649Y-49240743D01*
X195946645Y-49240744D01*
X195801059Y-49301048D01*
X195801050Y-49301052D01*
X195670030Y-49388599D01*
X195670026Y-49388602D01*
X195558602Y-49500026D01*
X195558599Y-49500030D01*
X195471052Y-49631050D01*
X195471048Y-49631059D01*
X195410742Y-49776650D01*
X195380000Y-49931204D01*
X194583673Y-49931204D01*
X194574592Y-49897314D01*
X194574590Y-49897311D01*
X194574590Y-49897309D01*
X194508703Y-49783190D01*
X194508701Y-49783188D01*
X194508700Y-49783186D01*
X194415514Y-49690000D01*
X194415511Y-49689998D01*
X194415509Y-49689996D01*
X194301389Y-49624109D01*
X194301391Y-49624109D01*
X194251999Y-49610875D01*
X194174092Y-49590000D01*
X194042308Y-49590000D01*
X193964400Y-49610875D01*
X193915009Y-49624109D01*
X193800890Y-49689996D01*
X193707696Y-49783190D01*
X193641809Y-49897309D01*
X193632727Y-49931204D01*
X193607700Y-50024608D01*
X193607700Y-50156392D01*
X193617109Y-50191507D01*
X193641809Y-50283690D01*
X193707696Y-50397809D01*
X193707698Y-50397811D01*
X193707700Y-50397814D01*
X193778705Y-50468819D01*
X193806481Y-50523334D01*
X193807700Y-50538821D01*
X193807700Y-65664662D01*
X193828179Y-65741089D01*
X193836562Y-65755608D01*
X193867740Y-65809611D01*
X195633105Y-67574976D01*
X195660881Y-67629491D01*
X195662100Y-67644978D01*
X195662100Y-67745392D01*
X195672452Y-67784025D01*
X195696209Y-67872690D01*
X195762096Y-67986809D01*
X195762098Y-67986811D01*
X195762100Y-67986814D01*
X195855286Y-68080000D01*
X195855288Y-68080001D01*
X195855290Y-68080003D01*
X195969410Y-68145890D01*
X195969408Y-68145890D01*
X195969412Y-68145891D01*
X195969414Y-68145892D01*
X196096708Y-68180000D01*
X196096710Y-68180000D01*
X196197121Y-68180000D01*
X196255312Y-68198907D01*
X196267125Y-68208996D01*
X198093825Y-70035696D01*
X198121602Y-70090213D01*
X198112031Y-70150645D01*
X198068766Y-70193910D01*
X198023821Y-70204700D01*
X194672627Y-70204700D01*
X194567173Y-70204700D01*
X194504829Y-70221404D01*
X194465307Y-70231994D01*
X194373991Y-70284716D01*
X194373990Y-70284717D01*
X189250462Y-75408243D01*
X189206082Y-75433865D01*
X189104414Y-75461107D01*
X189104410Y-75461109D01*
X188990290Y-75526996D01*
X188897096Y-75620190D01*
X188831209Y-75734309D01*
X188819558Y-75777792D01*
X188797100Y-75861608D01*
X188797100Y-75993392D01*
X188813495Y-76054578D01*
X188831209Y-76120690D01*
X188897096Y-76234809D01*
X188897098Y-76234811D01*
X188897100Y-76234814D01*
X188990286Y-76328000D01*
X188990288Y-76328001D01*
X188990290Y-76328003D01*
X189079942Y-76379764D01*
X189120883Y-76425233D01*
X189127279Y-76486084D01*
X189096686Y-76539072D01*
X189040790Y-76563958D01*
X189030442Y-76564500D01*
X188987146Y-76564500D01*
X188906197Y-76586190D01*
X188904361Y-76586682D01*
X188830137Y-76629535D01*
X188769532Y-76690140D01*
X188726636Y-76764439D01*
X188681167Y-76805380D01*
X188620317Y-76811776D01*
X188567329Y-76781183D01*
X188542442Y-76725287D01*
X188541900Y-76714939D01*
X188541900Y-71285060D01*
X188560807Y-71226869D01*
X188610307Y-71190905D01*
X188671493Y-71190905D01*
X188720993Y-71226869D01*
X188726637Y-71235560D01*
X188726680Y-71235634D01*
X188726681Y-71235638D01*
X188769534Y-71309862D01*
X188830137Y-71370465D01*
X188904361Y-71413318D01*
X188987146Y-71435500D01*
X188987148Y-71435500D01*
X189072850Y-71435500D01*
X189072852Y-71435500D01*
X189155637Y-71413318D01*
X189229861Y-71370465D01*
X189290464Y-71309862D01*
X189333317Y-71235638D01*
X189355499Y-71152853D01*
X189355499Y-71067147D01*
X189333317Y-70984362D01*
X189290464Y-70910138D01*
X189229861Y-70849535D01*
X189155637Y-70806682D01*
X189072852Y-70784500D01*
X188987146Y-70784500D01*
X188904361Y-70806682D01*
X188830137Y-70849535D01*
X188769532Y-70910140D01*
X188726636Y-70984439D01*
X188681167Y-71025380D01*
X188620317Y-71031776D01*
X188567329Y-71001183D01*
X188542442Y-70945287D01*
X188541900Y-70934939D01*
X188541900Y-66665500D01*
X188560807Y-66607309D01*
X188570890Y-66595502D01*
X189867838Y-65298553D01*
X189912214Y-65272933D01*
X190013886Y-65245692D01*
X190128014Y-65179800D01*
X190221200Y-65086614D01*
X190287092Y-64972486D01*
X190321200Y-64845192D01*
X190321200Y-64713408D01*
X190287092Y-64586114D01*
X190287090Y-64586110D01*
X190287090Y-64586109D01*
X190234464Y-64494959D01*
X190221200Y-64445459D01*
X190221200Y-46679640D01*
X190234463Y-46630141D01*
X190287092Y-46538986D01*
X190321200Y-46411692D01*
X190321200Y-46279908D01*
X190287092Y-46152614D01*
X190287090Y-46152611D01*
X190287090Y-46152609D01*
X190221203Y-46038490D01*
X190221201Y-46038488D01*
X190221200Y-46038486D01*
X190128014Y-45945300D01*
X190128011Y-45945298D01*
X190128009Y-45945296D01*
X190013889Y-45879409D01*
X190013891Y-45879409D01*
X189964499Y-45866175D01*
X189886592Y-45845300D01*
X189754808Y-45845300D01*
X189676900Y-45866175D01*
X189627509Y-45879409D01*
X189513390Y-45945296D01*
X189420196Y-46038490D01*
X189354309Y-46152609D01*
X189354308Y-46152614D01*
X189320200Y-46279908D01*
X189320200Y-46411692D01*
X189354308Y-46538986D01*
X189406936Y-46630141D01*
X189420200Y-46679640D01*
X189420200Y-46829937D01*
X189401293Y-46888128D01*
X189351793Y-46924092D01*
X189290607Y-46924092D01*
X189241107Y-46888128D01*
X189232004Y-46872892D01*
X189191505Y-46788795D01*
X189042114Y-46551041D01*
X188873067Y-46339064D01*
X187876779Y-47335351D01*
X187839033Y-47283398D01*
X187716602Y-47160967D01*
X187664645Y-47123219D01*
X188660934Y-46126931D01*
X188448958Y-45957885D01*
X188211201Y-45808492D01*
X187958217Y-45686662D01*
X187958214Y-45686661D01*
X187693182Y-45593922D01*
X187419423Y-45531438D01*
X187140398Y-45500000D01*
X186859601Y-45500000D01*
X186580576Y-45531438D01*
X186306817Y-45593922D01*
X186041785Y-45686661D01*
X186041782Y-45686662D01*
X185788798Y-45808492D01*
X185551041Y-45957885D01*
X185339064Y-46126931D01*
X186335352Y-47123219D01*
X186283398Y-47160967D01*
X186160967Y-47283398D01*
X186123219Y-47335352D01*
X185126931Y-46339064D01*
X184957885Y-46551041D01*
X184808492Y-46788798D01*
X184686662Y-47041782D01*
X184686661Y-47041785D01*
X184593922Y-47306817D01*
X184531438Y-47580576D01*
X184500000Y-47859601D01*
X184300500Y-47859601D01*
X184300500Y-47003538D01*
X184300752Y-46996476D01*
X184303329Y-46960438D01*
X184317293Y-46765189D01*
X184319300Y-46751230D01*
X184367838Y-46528100D01*
X184371812Y-46514567D01*
X184451608Y-46300628D01*
X184457473Y-46287788D01*
X184461776Y-46279908D01*
X184566900Y-46087385D01*
X184574524Y-46075522D01*
X184711363Y-45892727D01*
X184720599Y-45882067D01*
X184882067Y-45720599D01*
X184892727Y-45711363D01*
X185075522Y-45574524D01*
X185087385Y-45566900D01*
X185287794Y-45457469D01*
X185300628Y-45451608D01*
X185514567Y-45371812D01*
X185528100Y-45367838D01*
X185751230Y-45319300D01*
X185765189Y-45317293D01*
X185996476Y-45300751D01*
X186003538Y-45300500D01*
X186047594Y-45300500D01*
X195589121Y-45300500D01*
X195647312Y-45319407D01*
G37*
%TD.AperFunction*%
%TD*%
M02*
